<?xml version="1.0" encoding="utf-8" standalone="no"?>
<!DOCTYPE svg PUBLIC "-//W3C//DTD SVG 1.1//EN"
  "http://www.w3.org/Graphics/SVG/1.1/DTD/svg11.dtd">
<svg xmlns:xlink="http://www.w3.org/1999/xlink" width="410.4pt" height="302.4pt" viewBox="0 0 410.4 302.4" xmlns="http://www.w3.org/2000/svg" version="1.1">
 <metadata>
  <rdf:RDF xmlns:dc="http://purl.org/dc/elements/1.1/" xmlns:cc="http://creativecommons.org/ns#" xmlns:rdf="http://www.w3.org/1999/02/22-rdf-syntax-ns#">
   <cc:Work>
    <dc:type rdf:resource="http://purl.org/dc/dcmitype/StillImage"/>
    <dc:date>2024-11-05T16:39:49.334144</dc:date>
    <dc:format>image/svg+xml</dc:format>
    <dc:creator>
     <cc:Agent>
      <dc:title>Matplotlib v3.9.2, https://matplotlib.org/</dc:title>
     </cc:Agent>
    </dc:creator>
   </cc:Work>
  </rdf:RDF>
 </metadata>
 <defs>
  <style type="text/css">*{stroke-linejoin: round; stroke-linecap: butt}</style>
 </defs>
 <g id="figure_1">
  <g id="patch_1">
   <path d="M 0 302.4 
L 410.4 302.4 
L 410.4 0 
L 0 0 
z
" style="fill: #ffffff"/>
  </g>
  <g id="axes_1">
   <g id="patch_2">
    <path d="M 81.814088 237.577187 
L 374.4 237.577187 
L 374.4 36 
L 81.814088 36 
z
" style="fill: #ffffff"/>
   </g>
   <g id="matplotlib.axis_1">
    <g id="xtick_1">
     <g id="line2d_1">
      <path d="M 95.113448 237.577187 
L 95.113448 36 
" clip-path="url(#p843a9cc11d)" style="fill: none; stroke-dasharray: 0.9,1.485; stroke-dashoffset: 0; stroke: #b0b0b0; stroke-width: 0.9"/>
     </g>
     <g id="line2d_2">
      <defs>
       <path id="m6020c1143e" d="M 0 0 
L 0 3.5 
" style="stroke: #000000; stroke-width: 0.8"/>
      </defs>
      <g>
       <use xlink:href="#m6020c1143e" x="95.113448" y="237.577187" style="stroke: #000000; stroke-width: 0.8"/>
      </g>
     </g>
     <g id="text_1">
      <!-- $\mathdefault{0}$ -->
      <g transform="translate(92.622788 251.331765) scale(0.1 -0.1)">
       <defs>
        <path id="NimbusRomNo9L-Regu-30" d="M 1626 4352 
C 1274 4352 1005 4243 768 4019 
C 397 3661 154 2924 154 2176 
C 154 1478 365 729 666 371 
C 902 89 1229 -64 1600 -64 
C 1926 -64 2202 44 2432 268 
C 2803 620 3046 1363 3046 2137 
C 3046 3449 2464 4352 1626 4352 
z
M 1606 4185 
C 2144 4185 2432 3462 2432 2124 
C 2432 787 2150 102 1600 102 
C 1050 102 768 787 768 2118 
C 768 3475 1056 4185 1606 4185 
z
" transform="scale(0.015625)"/>
       </defs>
       <use xlink:href="#NimbusRomNo9L-Regu-30" transform="scale(0.996264)"/>
      </g>
     </g>
    </g>
    <g id="xtick_2">
     <g id="line2d_3">
      <path d="M 148.310886 237.577187 
L 148.310886 36 
" clip-path="url(#p843a9cc11d)" style="fill: none; stroke-dasharray: 0.9,1.485; stroke-dashoffset: 0; stroke: #b0b0b0; stroke-width: 0.9"/>
     </g>
     <g id="line2d_4">
      <g>
       <use xlink:href="#m6020c1143e" x="148.310886" y="237.577187" style="stroke: #000000; stroke-width: 0.8"/>
      </g>
     </g>
     <g id="text_2">
      <!-- $\mathdefault{2}$ -->
      <g transform="translate(145.820226 251.331765) scale(0.1 -0.1)">
       <defs>
        <path id="NimbusRomNo9L-Regu-32" d="M 3040 879 
L 2957 912 
C 2720 544 2637 486 2349 486 
L 819 486 
L 1894 1621 
C 2464 2221 2714 2711 2714 3214 
C 2714 3858 2195 4352 1530 4352 
C 1178 4352 845 4211 608 3955 
C 403 3736 307 3530 198 3072 
L 333 3039 
C 589 3671 819 3878 1261 3878 
C 1798 3878 2163 3510 2163 2969 
C 2163 2466 1869 1866 1331 1292 
L 192 76 
L 192 0 
L 2688 0 
L 3040 879 
z
" transform="scale(0.015625)"/>
       </defs>
       <use xlink:href="#NimbusRomNo9L-Regu-32" transform="scale(0.996264)"/>
      </g>
     </g>
    </g>
    <g id="xtick_3">
     <g id="line2d_5">
      <path d="M 201.508325 237.577187 
L 201.508325 36 
" clip-path="url(#p843a9cc11d)" style="fill: none; stroke-dasharray: 0.9,1.485; stroke-dashoffset: 0; stroke: #b0b0b0; stroke-width: 0.9"/>
     </g>
     <g id="line2d_6">
      <g>
       <use xlink:href="#m6020c1143e" x="201.508325" y="237.577187" style="stroke: #000000; stroke-width: 0.8"/>
      </g>
     </g>
     <g id="text_3">
      <!-- $\mathdefault{4}$ -->
      <g transform="translate(199.017665 251.331765) scale(0.1 -0.1)">
       <defs>
        <path id="NimbusRomNo9L-Regu-34" d="M 3021 1497 
L 2368 1497 
L 2368 4352 
L 2086 4352 
L 77 1497 
L 77 1088 
L 1875 1088 
L 1875 0 
L 2368 0 
L 2368 1088 
L 3021 1088 
L 3021 1497 
z
M 1869 1497 
L 333 1497 
L 1869 3697 
L 1869 1497 
z
" transform="scale(0.015625)"/>
       </defs>
       <use xlink:href="#NimbusRomNo9L-Regu-34" transform="scale(0.996264)"/>
      </g>
     </g>
    </g>
    <g id="xtick_4">
     <g id="line2d_7">
      <path d="M 254.705763 237.577187 
L 254.705763 36 
" clip-path="url(#p843a9cc11d)" style="fill: none; stroke-dasharray: 0.9,1.485; stroke-dashoffset: 0; stroke: #b0b0b0; stroke-width: 0.9"/>
     </g>
     <g id="line2d_8">
      <g>
       <use xlink:href="#m6020c1143e" x="254.705763" y="237.577187" style="stroke: #000000; stroke-width: 0.8"/>
      </g>
     </g>
     <g id="text_4">
      <!-- $\mathdefault{6}$ -->
      <g transform="translate(252.215103 251.331765) scale(0.1 -0.1)">
       <defs>
        <path id="NimbusRomNo9L-Regu-36" d="M 2854 4390 
C 2125 4326 1754 4204 1286 3878 
C 595 3385 218 2655 218 1801 
C 218 1248 390 688 666 369 
C 909 89 1254 -64 1651 -64 
C 2445 -64 2995 541 2995 1420 
C 2995 2234 2528 2752 1792 2752 
C 1510 2752 1376 2707 973 2463 
C 1146 3430 1862 4121 2867 4288 
L 2854 4390 
z
M 1549 2457 
C 2099 2457 2419 1999 2419 1203 
C 2419 503 2170 115 1722 115 
C 1158 115 813 713 813 1700 
C 813 2024 864 2203 992 2298 
C 1126 2400 1325 2457 1549 2457 
z
" transform="scale(0.015625)"/>
       </defs>
       <use xlink:href="#NimbusRomNo9L-Regu-36" transform="scale(0.996264)"/>
      </g>
     </g>
    </g>
    <g id="xtick_5">
     <g id="line2d_9">
      <path d="M 307.903202 237.577187 
L 307.903202 36 
" clip-path="url(#p843a9cc11d)" style="fill: none; stroke-dasharray: 0.9,1.485; stroke-dashoffset: 0; stroke: #b0b0b0; stroke-width: 0.9"/>
     </g>
     <g id="line2d_10">
      <g>
       <use xlink:href="#m6020c1143e" x="307.903202" y="237.577187" style="stroke: #000000; stroke-width: 0.8"/>
      </g>
     </g>
     <g id="text_5">
      <!-- $\mathdefault{8}$ -->
      <g transform="translate(305.412542 251.331765) scale(0.1 -0.1)">
       <defs>
        <path id="NimbusRomNo9L-Regu-38" d="M 1856 2400 
C 2490 2739 2714 3008 2714 3443 
C 2714 3968 2253 4352 1613 4352 
C 915 4352 397 3923 397 3341 
C 397 2924 518 2739 1190 2150 
C 499 1625 358 1427 358 992 
C 358 371 864 -64 1587 -64 
C 2355 -64 2848 358 2848 1017 
C 2848 1510 2630 1824 1856 2400 
z
M 1741 1740 
C 2208 1408 2362 1177 2362 819 
C 2362 403 2074 115 1658 115 
C 1171 115 845 486 845 1043 
C 845 1452 986 1721 1357 2022 
L 1741 1740 
z
M 1670 2515 
C 1101 2886 870 3180 870 3539 
C 870 3910 1158 4172 1562 4172 
C 1997 4172 2272 3891 2272 3449 
C 2272 3084 2093 2796 1728 2553 
C 1696 2534 1696 2534 1670 2515 
z
" transform="scale(0.015625)"/>
       </defs>
       <use xlink:href="#NimbusRomNo9L-Regu-38" transform="scale(0.996264)"/>
      </g>
     </g>
    </g>
    <g id="xtick_6">
     <g id="line2d_11">
      <path d="M 361.10064 237.577187 
L 361.10064 36 
" clip-path="url(#p843a9cc11d)" style="fill: none; stroke-dasharray: 0.9,1.485; stroke-dashoffset: 0; stroke: #b0b0b0; stroke-width: 0.9"/>
     </g>
     <g id="line2d_12">
      <g>
       <use xlink:href="#m6020c1143e" x="361.10064" y="237.577187" style="stroke: #000000; stroke-width: 0.8"/>
      </g>
     </g>
     <g id="text_6">
      <!-- $\mathdefault{10}$ -->
      <g transform="translate(356.11932 251.331765) scale(0.1 -0.1)">
       <defs>
        <path id="NimbusRomNo9L-Regu-31" d="M 1862 4352 
L 710 3776 
L 710 3686 
C 787 3718 858 3743 883 3756 
C 998 3801 1107 3826 1171 3826 
C 1306 3826 1363 3731 1363 3525 
L 1363 599 
C 1363 386 1312 238 1210 179 
C 1114 121 1024 102 755 96 
L 755 0 
L 2522 0 
L 2522 96 
C 2016 102 1914 167 1914 477 
L 1914 4339 
L 1862 4352 
z
" transform="scale(0.015625)"/>
       </defs>
       <use xlink:href="#NimbusRomNo9L-Regu-31" transform="scale(0.996264)"/>
       <use xlink:href="#NimbusRomNo9L-Regu-30" transform="translate(49.8132 0) scale(0.996264)"/>
      </g>
     </g>
    </g>
    <g id="text_7">
     <!-- Observer gain coefficient, $l_{obs}$ -->
     <g transform="translate(168.985002 264.243171) scale(0.1 -0.1)">
      <defs>
       <path id="NimbusRomNo9L-Regu-4f" d="M 2310 4352 
C 1088 4352 218 3430 218 2144 
C 218 1542 422 960 768 588 
C 1139 185 1709 -64 2272 -64 
C 3533 -64 4403 832 4403 2118 
C 4403 2752 4218 3296 3866 3680 
C 3462 4121 2925 4352 2310 4352 
z
M 2310 4121 
C 2605 4121 2899 4006 3130 3801 
C 3475 3488 3674 2886 3674 2124 
C 3674 1747 3590 1305 3462 972 
C 3405 812 3296 652 3149 505 
C 2925 281 2637 166 2298 166 
C 2003 166 1715 281 1491 480 
C 1158 774 947 1420 947 2131 
C 947 2784 1126 3405 1395 3705 
C 1645 3981 1958 4121 2310 4121 
z
" transform="scale(0.015625)"/>
       <path id="NimbusRomNo9L-Regu-62" d="M 979 4358 
L 947 4371 
C 678 4275 506 4224 205 4140 
L 19 4089 
L 19 3987 
C 58 3993 83 3993 128 3993 
C 384 3993 442 3936 442 3667 
L 442 345 
C 442 147 986 -64 1498 -64 
C 2342 -64 2995 639 2995 1555 
C 2995 2342 2509 2944 1869 2944 
C 1478 2944 1107 2713 979 2399 
L 979 4358 
z
M 979 2060 
C 979 2310 1280 2540 1613 2540 
C 2112 2540 2432 2041 2432 1260 
C 2432 550 2125 140 1600 140 
C 1267 140 979 287 979 447 
L 979 2060 
z
" transform="scale(0.015625)"/>
       <path id="NimbusRomNo9L-Regu-73" d="M 2016 2009 
L 1990 2880 
L 1920 2880 
L 1907 2867 
C 1850 2822 1843 2815 1818 2815 
C 1779 2815 1715 2828 1645 2860 
C 1504 2918 1363 2944 1197 2944 
C 691 2944 326 2617 326 2155 
C 326 1796 531 1539 1075 1231 
L 1446 1019 
C 1670 891 1779 737 1779 538 
C 1779 256 1574 76 1248 76 
C 1030 76 832 160 710 301 
C 576 461 518 609 435 974 
L 333 974 
L 333 -26 
L 416 -26 
C 461 38 486 51 563 51 
C 621 51 710 38 858 0 
C 1037 -39 1210 -64 1325 -64 
C 1818 -64 2227 307 2227 756 
C 2227 1077 2074 1289 1690 1520 
L 998 1930 
C 819 2033 723 2193 723 2366 
C 723 2623 922 2803 1216 2803 
C 1581 2803 1773 2585 1920 2014 
L 2016 2009 
z
" transform="scale(0.015625)"/>
       <path id="NimbusRomNo9L-Regu-65" d="M 2611 1052 
C 2304 564 2029 377 1619 377 
C 1254 377 979 564 794 930 
C 678 1174 634 1386 621 1779 
L 2592 1779 
C 2541 2193 2477 2377 2317 2580 
C 2125 2809 1830 2944 1498 2944 
C 1178 2944 877 2828 634 2612 
C 333 2351 160 1900 160 1374 
C 160 486 621 -64 1357 -64 
C 1965 -64 2445 313 2714 1007 
L 2611 1052 
z
M 634 1984 
C 704 2478 922 2713 1312 2713 
C 1702 2713 1856 2535 1939 1984 
L 634 1984 
z
" transform="scale(0.015625)"/>
       <path id="NimbusRomNo9L-Regu-72" d="M 45 2496 
C 134 2515 192 2521 269 2521 
C 429 2521 486 2419 486 2137 
L 486 537 
C 486 217 442 172 32 96 
L 32 0 
L 1568 0 
L 1568 96 
C 1133 115 1024 211 1024 576 
L 1024 2016 
C 1024 2220 1299 2540 1472 2540 
C 1510 2540 1568 2508 1638 2444 
C 1741 2355 1811 2316 1894 2316 
C 2048 2316 2144 2425 2144 2604 
C 2144 2815 2010 2944 1792 2944 
C 1523 2944 1338 2796 1024 2342 
L 1024 2931 
L 992 2944 
C 653 2803 422 2720 45 2598 
L 45 2496 
z
" transform="scale(0.015625)"/>
       <path id="NimbusRomNo9L-Regu-76" d="M 3053 2880 
L 2163 2880 
L 2163 2783 
C 2368 2764 2464 2701 2464 2580 
C 2464 2517 2451 2454 2426 2390 
L 1792 748 
L 1139 2371 
C 1101 2460 1082 2549 1082 2606 
C 1082 2720 1152 2764 1376 2783 
L 1376 2880 
L 122 2880 
L 122 2783 
C 365 2771 410 2707 704 2054 
L 1472 235 
C 1485 197 1504 152 1523 102 
C 1562 -13 1600 -64 1638 -64 
C 1677 -64 1722 19 1818 254 
L 2637 2289 
C 2822 2720 2861 2764 3053 2783 
L 3053 2880 
z
" transform="scale(0.015625)"/>
       <path id="NimbusRomNo9L-Regu-67" d="M 3008 2438 
L 3008 2688 
L 2515 2688 
C 2387 2688 2291 2734 2163 2796 
L 2022 2847 
C 1850 2911 1677 2944 1510 2944 
C 915 2944 442 2438 442 1877 
C 442 1489 614 1255 1037 1049 
C 915 934 800 826 762 794 
C 550 610 467 483 467 356 
C 467 223 544 147 806 19 
C 352 -316 179 -529 179 -767 
C 179 -1108 678 -1389 1286 -1389 
C 1766 -1389 2266 -1223 2598 -954 
C 2842 -754 2950 -548 2950 -303 
C 2950 96 2650 363 2176 382 
L 1350 420 
C 1011 432 851 490 851 591 
C 851 718 1062 941 1235 992 
C 1293 985 1338 979 1357 979 
C 1478 966 1562 960 1600 960 
C 1837 960 2093 1056 2291 1224 
C 2502 1397 2598 1612 2598 1920 
C 2598 2099 2566 2241 2477 2438 
L 3008 2438 
z
M 941 0 
C 1152 -46 1664 -84 1978 -84 
C 2560 -84 2771 -168 2771 -400 
C 2771 -773 2285 -1024 1562 -1024 
C 998 -1024 627 -838 627 -554 
C 627 -406 672 -322 941 0 
z
M 973 2130 
C 973 2495 1152 2764 1446 2764 
C 1645 2764 1811 2611 1914 2419 
C 2029 2204 2106 1920 2106 1680 
C 2106 1335 1920 1120 1626 1120 
C 1242 1120 973 1520 973 2111 
L 973 2130 
z
" transform="scale(0.015625)"/>
       <path id="NimbusRomNo9L-Regu-61" d="M 2829 422 
C 2720 332 2643 300 2547 300 
C 2400 300 2355 390 2355 672 
L 2355 1920 
C 2355 2252 2323 2438 2227 2592 
C 2086 2822 1811 2944 1434 2944 
C 832 2944 358 2630 358 2227 
C 358 2080 486 1952 634 1952 
C 787 1952 922 2080 922 2220 
C 922 2246 915 2278 909 2323 
C 896 2380 890 2432 890 2476 
C 890 2649 1094 2790 1350 2790 
C 1664 2790 1837 2604 1837 2259 
L 1837 1868 
C 851 1472 742 1420 467 1177 
C 326 1049 237 832 237 620 
C 237 217 518 -64 909 -64 
C 1190 -64 1453 70 1843 403 
C 1875 70 1990 -64 2253 -64 
C 2470 -64 2605 12 2829 256 
L 2829 422 
z
M 1837 787 
C 1837 588 1805 531 1670 454 
C 1517 364 1338 307 1203 307 
C 979 307 800 524 800 800 
L 800 825 
C 800 1203 1062 1433 1837 1715 
L 1837 787 
z
" transform="scale(0.015625)"/>
       <path id="NimbusRomNo9L-Regu-69" d="M 1120 2944 
L 128 2592 
L 128 2496 
L 179 2502 
C 256 2515 339 2521 397 2521 
C 550 2521 608 2419 608 2137 
L 608 652 
C 608 192 544 121 102 96 
L 102 0 
L 1619 0 
L 1619 96 
C 1197 128 1146 192 1146 652 
L 1146 2924 
L 1120 2944 
z
M 819 4352 
C 646 4352 499 4204 499 4025 
C 499 3846 640 3699 819 3699 
C 1005 3699 1152 3839 1152 4025 
C 1152 4204 1005 4352 819 4352 
z
" transform="scale(0.015625)"/>
       <path id="NimbusRomNo9L-Regu-6e" d="M 102 2547 
C 141 2566 205 2572 275 2572 
C 454 2572 512 2476 512 2163 
L 512 576 
C 512 211 442 121 115 96 
L 115 0 
L 1472 0 
L 1472 96 
C 1146 121 1050 198 1050 428 
L 1050 2227 
C 1357 2515 1498 2591 1709 2591 
C 2022 2591 2176 2393 2176 1971 
L 2176 633 
C 2176 230 2093 121 1773 96 
L 1773 0 
L 3104 0 
L 3104 96 
C 2790 128 2714 204 2714 518 
L 2714 1984 
C 2714 2585 2432 2944 1958 2944 
C 1664 2944 1466 2835 1030 2425 
L 1030 2931 
L 986 2944 
C 672 2828 454 2758 102 2655 
L 102 2547 
z
" transform="scale(0.015625)"/>
       <path id="NimbusRomNo9L-Regu-63" d="M 2547 998 
C 2240 550 2010 396 1645 396 
C 1062 396 653 908 653 1644 
C 653 2303 1005 2758 1523 2758 
C 1754 2758 1837 2687 1901 2451 
L 1939 2310 
C 1990 2131 2106 2015 2240 2015 
C 2406 2015 2547 2137 2547 2284 
C 2547 2643 2099 2944 1562 2944 
C 1248 2944 922 2815 659 2585 
C 339 2303 160 1868 160 1363 
C 160 531 666 -64 1376 -64 
C 1664 -64 1920 38 2150 236 
C 2323 390 2445 563 2637 940 
L 2547 998 
z
" transform="scale(0.015625)"/>
       <path id="NimbusRomNo9L-Regu-6f" d="M 1600 2944 
C 768 2944 186 2329 186 1446 
C 186 582 781 -64 1587 -64 
C 2394 -64 3008 614 3008 1497 
C 3008 2336 2419 2944 1600 2944 
z
M 1517 2764 
C 2054 2764 2432 2150 2432 1273 
C 2432 550 2144 115 1664 115 
C 1414 115 1178 268 1043 524 
C 864 857 762 1305 762 1760 
C 762 2368 1062 2764 1517 2764 
z
" transform="scale(0.015625)"/>
       <path id="NimbusRomNo9L-Regu-66" d="M 1978 2880 
L 1190 2880 
L 1190 3611 
C 1190 3977 1312 4172 1555 4172 
C 1690 4172 1779 4109 1894 3926 
C 1997 3762 2074 3699 2182 3699 
C 2330 3699 2451 3813 2451 3958 
C 2451 4185 2170 4352 1786 4352 
C 1389 4352 1050 4179 883 3889 
C 717 3611 666 3384 659 2880 
L 134 2880 
L 134 2675 
L 659 2675 
L 659 665 
C 659 198 589 121 128 96 
L 128 0 
L 1792 0 
L 1792 96 
C 1267 115 1197 185 1197 665 
L 1197 2675 
L 1978 2675 
L 1978 2880 
z
" transform="scale(0.015625)"/>
       <path id="NimbusRomNo9L-Regu-2" d="M 198 2668 
L 634 2668 
L 634 601 
C 634 192 563 108 205 96 
L 205 0 
L 1613 0 
L 1613 96 
C 1254 121 1171 211 1171 563 
L 1171 2668 
L 1722 2668 
C 2336 2668 2368 2649 2368 2310 
L 2368 620 
C 2368 185 2323 128 1926 96 
L 1926 0 
L 3334 0 
L 3334 96 
C 2976 128 2906 211 2906 620 
L 2906 2297 
C 2906 2438 2906 2585 2918 2924 
L 2893 2944 
C 2611 2898 2426 2880 2170 2880 
L 1165 2880 
L 1165 3151 
C 1165 3428 1184 3624 1216 3731 
C 1306 4002 1555 4191 1843 4191 
C 2022 4191 2144 4109 2298 3895 
C 2419 3725 2502 3662 2611 3662 
C 2746 3662 2842 3769 2842 3908 
C 2842 4173 2522 4352 2029 4352 
C 1542 4352 1171 4185 941 3876 
C 749 3617 678 3384 640 2880 
L 198 2880 
L 198 2668 
z
" transform="scale(0.015625)"/>
       <path id="NimbusRomNo9L-Regu-74" d="M 1632 2880 
L 986 2880 
L 986 3622 
C 986 3686 979 3705 941 3705 
C 896 3648 858 3590 813 3526 
C 570 3174 294 2867 192 2841 
C 122 2796 83 2751 83 2719 
C 83 2700 90 2687 109 2675 
L 448 2675 
L 448 748 
C 448 211 640 -64 1018 -64 
C 1331 -64 1574 89 1786 422 
L 1702 492 
C 1568 332 1459 268 1318 268 
C 1082 268 986 441 986 844 
L 986 2675 
L 1632 2675 
L 1632 2880 
z
" transform="scale(0.015625)"/>
       <path id="NimbusRomNo9L-Regu-2c" d="M 531 -890 
C 960 -679 1248 -289 1248 96 
C 1248 416 1024 665 736 665 
C 512 665 358 518 358 300 
C 358 57 506 -64 736 -64 
C 774 -64 819 -58 858 -52 
C 902 0 902 0 909 0 
C 960 0 998 -39 998 -90 
C 998 -295 819 -532 474 -769 
L 531 -890 
z
" transform="scale(0.015625)"/>
       <path id="NimbusRomNo9L-ReguItal-6c" d="M 1459 793 
C 1402 723 1344 652 1286 576 
C 1082 307 960 211 845 211 
C 781 211 749 256 749 326 
C 749 371 768 448 800 576 
C 806 595 813 627 819 640 
L 1786 4345 
L 1754 4377 
C 1376 4294 1133 4249 755 4205 
L 755 4102 
C 1062 4102 1190 4057 1190 3955 
C 1190 3936 1184 3897 1165 3840 
L 288 460 
C 269 390 256 326 256 294 
C 256 64 365 -64 570 -64 
C 902 -64 1126 121 1542 736 
L 1459 793 
z
" transform="scale(0.015625)"/>
       <path id="NimbusRomNo9L-ReguItal-6f" d="M 2080 2816 
C 1120 2816 173 1828 173 828 
C 173 280 531 -64 1114 -64 
C 1536 -64 1946 127 2317 490 
C 2739 904 2995 1446 2995 1923 
C 2995 2452 2624 2816 2080 2816 
z
M 2003 2681 
C 2278 2681 2458 2446 2458 2083 
C 2458 1618 2246 981 1965 567 
C 1728 229 1485 70 1210 70 
C 909 70 710 299 710 650 
C 710 1121 896 1681 1210 2134 
C 1459 2490 1728 2681 2003 2681 
z
" transform="scale(0.015625)"/>
       <path id="NimbusRomNo9L-ReguItal-62" d="M 704 4108 
C 1082 4096 1120 4076 1120 3936 
C 1120 3878 1101 3801 1062 3660 
C 1050 3616 1037 3571 1030 3539 
L 1018 3494 
L 147 299 
L 147 274 
C 147 127 640 -64 998 -64 
C 1965 -64 3027 1050 3027 2050 
C 3027 2496 2714 2816 2285 2816 
C 1837 2816 1504 2553 1050 1853 
C 1382 3065 1427 3238 1715 4332 
L 1683 4364 
C 1363 4307 1133 4268 704 4217 
L 704 4108 
z
M 2035 2502 
C 2310 2502 2483 2292 2483 1954 
C 2483 1534 2157 853 1779 458 
C 1542 216 1267 83 992 83 
C 794 83 698 153 698 299 
C 698 681 890 1299 1158 1770 
C 1440 2260 1728 2502 2035 2502 
z
" transform="scale(0.015625)"/>
       <path id="NimbusRomNo9L-ReguItal-73" d="M 230 953 
L 102 -64 
L 205 -64 
C 256 38 294 70 358 70 
C 429 70 544 44 672 12 
C 813 -45 922 -64 1024 -64 
C 1562 -64 1946 280 1946 764 
C 1946 1006 1811 1286 1510 1656 
C 1267 1955 1165 2152 1165 2324 
C 1165 2534 1299 2668 1523 2668 
C 1856 2668 2048 2432 2112 1936 
L 2214 1936 
L 2342 2816 
L 2253 2816 
C 2202 2726 2150 2700 2061 2700 
C 2016 2700 1952 2713 1830 2745 
C 1670 2803 1574 2816 1472 2816 
C 1005 2816 698 2541 698 2114 
C 698 1910 832 1636 1101 1293 
C 1350 968 1459 745 1459 560 
C 1459 274 1267 70 986 70 
C 634 70 435 331 333 936 
L 230 953 
z
" transform="scale(0.015625)"/>
      </defs>
      <use xlink:href="#NimbusRomNo9L-Regu-4f" transform="scale(0.996264)"/>
      <use xlink:href="#NimbusRomNo9L-Regu-62" transform="translate(71.929985 0) scale(0.996264)"/>
      <use xlink:href="#NimbusRomNo9L-Regu-73" transform="translate(121.743185 0) scale(0.996264)"/>
      <use xlink:href="#NimbusRomNo9L-Regu-65" transform="translate(160.496892 0) scale(0.996264)"/>
      <use xlink:href="#NimbusRomNo9L-Regu-72" transform="translate(204.73046 0) scale(0.996264)"/>
      <use xlink:href="#NimbusRomNo9L-Regu-76" transform="translate(237.90569 0) scale(0.996264)"/>
      <use xlink:href="#NimbusRomNo9L-Regu-65" transform="translate(286.225498 0) scale(0.996264)"/>
      <use xlink:href="#NimbusRomNo9L-Regu-72" transform="translate(330.459066 0) scale(0.996264)"/>
      <use xlink:href="#NimbusRomNo9L-Regu-67" transform="translate(388.540896 0) scale(0.996264)"/>
      <use xlink:href="#NimbusRomNo9L-Regu-61" transform="translate(437.856619 0) scale(0.996264)"/>
      <use xlink:href="#NimbusRomNo9L-Regu-69" transform="translate(482.090187 0) scale(0.996264)"/>
      <use xlink:href="#NimbusRomNo9L-Regu-6e" transform="translate(509.785357 0) scale(0.996264)"/>
      <use xlink:href="#NimbusRomNo9L-Regu-63" transform="translate(584.505158 0) scale(0.996264)"/>
      <use xlink:href="#NimbusRomNo9L-Regu-6f" transform="translate(628.738726 0) scale(0.996264)"/>
      <use xlink:href="#NimbusRomNo9L-Regu-65" transform="translate(678.551927 0) scale(0.996264)"/>
      <use xlink:href="#NimbusRomNo9L-Regu-66" transform="translate(722.785496 0) scale(0.996264)"/>
      <use xlink:href="#NimbusRomNo9L-Regu-2" transform="translate(753.470096 0) scale(0.996264)"/>
      <use xlink:href="#NimbusRomNo9L-Regu-63" transform="translate(808.861681 0) scale(0.996264)"/>
      <use xlink:href="#NimbusRomNo9L-Regu-69" transform="translate(853.09525 0) scale(0.996264)"/>
      <use xlink:href="#NimbusRomNo9L-Regu-65" transform="translate(880.79042 0) scale(0.996264)"/>
      <use xlink:href="#NimbusRomNo9L-Regu-6e" transform="translate(925.023988 0) scale(0.996264)"/>
      <use xlink:href="#NimbusRomNo9L-Regu-74" transform="translate(974.837189 0) scale(0.996264)"/>
      <use xlink:href="#NimbusRomNo9L-Regu-2c" transform="translate(1002.532359 0) scale(0.996264)"/>
      <use xlink:href="#NimbusRomNo9L-ReguItal-6c" transform="translate(1052.345559 0) scale(0.996264)"/>
      <use xlink:href="#NimbusRomNo9L-ReguItal-6f" transform="translate(1080.040729 -16.487732) scale(0.737241)"/>
      <use xlink:href="#NimbusRomNo9L-ReguItal-62" transform="translate(1116.902771 -16.487732) scale(0.737241)"/>
      <use xlink:href="#NimbusRomNo9L-ReguItal-73" transform="translate(1153.764813 -16.487732) scale(0.737241)"/>
     </g>
    </g>
   </g>
   <g id="matplotlib.axis_2">
    <g id="ytick_1">
     <g id="line2d_13">
      <path d="M 81.814088 219.458319 
L 374.4 219.458319 
" clip-path="url(#p843a9cc11d)" style="fill: none; stroke-dasharray: 0.9,1.485; stroke-dashoffset: 0; stroke: #b0b0b0; stroke-width: 0.9"/>
     </g>
     <g id="line2d_14">
      <defs>
       <path id="m6477747687" d="M 0 0 
L -3.5 0 
" style="stroke: #000000; stroke-width: 0.8"/>
      </defs>
      <g>
       <use xlink:href="#m6477747687" x="81.814088" y="219.458319" style="stroke: #000000; stroke-width: 0.8"/>
      </g>
     </g>
     <g id="text_8">
      <!-- $\mathdefault{−1.25}$ -->
      <g transform="translate(49.36971 222.835608) scale(0.1 -0.1)">
       <defs>
        <path id="CMSY10-0" d="M 4218 1472 
C 4326 1472 4442 1472 4442 1600 
C 4442 1728 4326 1728 4218 1728 
L 755 1728 
C 646 1728 531 1728 531 1600 
C 531 1472 646 1472 755 1472 
L 4218 1472 
z
" transform="scale(0.015625)"/>
        <path id="CMMI10-3a" d="M 1229 339 
C 1229 524 1075 678 890 678 
C 704 678 550 524 550 339 
C 550 153 704 0 890 0 
C 1075 0 1229 153 1229 339 
z
" transform="scale(0.015625)"/>
        <path id="NimbusRomNo9L-Regu-35" d="M 1158 3718 
L 2413 3718 
C 2515 3718 2541 3731 2560 3775 
L 2803 4345 
L 2746 4390 
C 2650 4256 2586 4224 2451 4224 
L 1114 4224 
L 416 2717 
C 410 2705 410 2698 410 2686 
C 410 2654 435 2635 486 2635 
C 691 2635 947 2591 1210 2508 
C 1946 2274 2285 1882 2285 1255 
C 2285 647 1894 172 1395 172 
C 1267 172 1158 217 966 356 
C 762 502 614 565 480 565 
C 294 565 205 489 205 331 
C 205 89 506 -64 986 -64 
C 1523 -64 1984 108 2304 432 
C 2598 717 2733 1078 2733 1559 
C 2733 2015 2611 2306 2291 2622 
C 2010 2901 1645 3047 890 3180 
L 1158 3718 
z
" transform="scale(0.015625)"/>
       </defs>
       <use xlink:href="#CMSY10-0" transform="scale(0.996264)"/>
       <use xlink:href="#NimbusRomNo9L-Regu-31" transform="translate(77.408707 0) scale(0.996264)"/>
       <use xlink:href="#CMMI10-3a" transform="translate(127.221908 0) scale(0.996264)"/>
       <use xlink:href="#NimbusRomNo9L-Regu-32" transform="translate(154.817414 0) scale(0.996264)"/>
       <use xlink:href="#NimbusRomNo9L-Regu-35" transform="translate(204.630615 0) scale(0.996264)"/>
      </g>
     </g>
    </g>
    <g id="ytick_2">
     <g id="line2d_15">
      <path d="M 81.814088 194.818992 
L 374.4 194.818992 
" clip-path="url(#p843a9cc11d)" style="fill: none; stroke-dasharray: 0.9,1.485; stroke-dashoffset: 0; stroke: #b0b0b0; stroke-width: 0.9"/>
     </g>
     <g id="line2d_16">
      <g>
       <use xlink:href="#m6477747687" x="81.814088" y="194.818992" style="stroke: #000000; stroke-width: 0.8"/>
      </g>
     </g>
     <g id="text_9">
      <!-- $\mathdefault{−1.00}$ -->
      <g transform="translate(49.36971 198.196281) scale(0.1 -0.1)">
       <use xlink:href="#CMSY10-0" transform="scale(0.996264)"/>
       <use xlink:href="#NimbusRomNo9L-Regu-31" transform="translate(77.408707 0) scale(0.996264)"/>
       <use xlink:href="#CMMI10-3a" transform="translate(127.221908 0) scale(0.996264)"/>
       <use xlink:href="#NimbusRomNo9L-Regu-30" transform="translate(154.817414 0) scale(0.996264)"/>
       <use xlink:href="#NimbusRomNo9L-Regu-30" transform="translate(204.630615 0) scale(0.996264)"/>
      </g>
     </g>
    </g>
    <g id="ytick_3">
     <g id="line2d_17">
      <path d="M 81.814088 170.179666 
L 374.4 170.179666 
" clip-path="url(#p843a9cc11d)" style="fill: none; stroke-dasharray: 0.9,1.485; stroke-dashoffset: 0; stroke: #b0b0b0; stroke-width: 0.9"/>
     </g>
     <g id="line2d_18">
      <g>
       <use xlink:href="#m6477747687" x="81.814088" y="170.179666" style="stroke: #000000; stroke-width: 0.8"/>
      </g>
     </g>
     <g id="text_10">
      <!-- $\mathdefault{−0.75}$ -->
      <g transform="translate(49.36971 173.556955) scale(0.1 -0.1)">
       <defs>
        <path id="NimbusRomNo9L-Regu-37" d="M 2874 4224 
L 506 4224 
L 128 3283 
L 237 3232 
C 512 3667 627 3750 979 3750 
L 2368 3750 
L 1101 -64 
L 1517 -64 
L 2874 4121 
L 2874 4224 
z
" transform="scale(0.015625)"/>
       </defs>
       <use xlink:href="#CMSY10-0" transform="scale(0.996264)"/>
       <use xlink:href="#NimbusRomNo9L-Regu-30" transform="translate(77.408707 0) scale(0.996264)"/>
       <use xlink:href="#CMMI10-3a" transform="translate(127.221908 0) scale(0.996264)"/>
       <use xlink:href="#NimbusRomNo9L-Regu-37" transform="translate(154.817414 0) scale(0.996264)"/>
       <use xlink:href="#NimbusRomNo9L-Regu-35" transform="translate(204.630615 0) scale(0.996264)"/>
      </g>
     </g>
    </g>
    <g id="ytick_4">
     <g id="line2d_19">
      <path d="M 81.814088 145.540339 
L 374.4 145.540339 
" clip-path="url(#p843a9cc11d)" style="fill: none; stroke-dasharray: 0.9,1.485; stroke-dashoffset: 0; stroke: #b0b0b0; stroke-width: 0.9"/>
     </g>
     <g id="line2d_20">
      <g>
       <use xlink:href="#m6477747687" x="81.814088" y="145.540339" style="stroke: #000000; stroke-width: 0.8"/>
      </g>
     </g>
     <g id="text_11">
      <!-- $\mathdefault{−0.50}$ -->
      <g transform="translate(49.36971 148.917628) scale(0.1 -0.1)">
       <use xlink:href="#CMSY10-0" transform="scale(0.996264)"/>
       <use xlink:href="#NimbusRomNo9L-Regu-30" transform="translate(77.408707 0) scale(0.996264)"/>
       <use xlink:href="#CMMI10-3a" transform="translate(127.221908 0) scale(0.996264)"/>
       <use xlink:href="#NimbusRomNo9L-Regu-35" transform="translate(154.817414 0) scale(0.996264)"/>
       <use xlink:href="#NimbusRomNo9L-Regu-30" transform="translate(204.630615 0) scale(0.996264)"/>
      </g>
     </g>
    </g>
    <g id="ytick_5">
     <g id="line2d_21">
      <path d="M 81.814088 120.901013 
L 374.4 120.901013 
" clip-path="url(#p843a9cc11d)" style="fill: none; stroke-dasharray: 0.9,1.485; stroke-dashoffset: 0; stroke: #b0b0b0; stroke-width: 0.9"/>
     </g>
     <g id="line2d_22">
      <g>
       <use xlink:href="#m6477747687" x="81.814088" y="120.901013" style="stroke: #000000; stroke-width: 0.8"/>
      </g>
     </g>
     <g id="text_12">
      <!-- $\mathdefault{−0.25}$ -->
      <g transform="translate(49.36971 124.278302) scale(0.1 -0.1)">
       <use xlink:href="#CMSY10-0" transform="scale(0.996264)"/>
       <use xlink:href="#NimbusRomNo9L-Regu-30" transform="translate(77.408707 0) scale(0.996264)"/>
       <use xlink:href="#CMMI10-3a" transform="translate(127.221908 0) scale(0.996264)"/>
       <use xlink:href="#NimbusRomNo9L-Regu-32" transform="translate(154.817414 0) scale(0.996264)"/>
       <use xlink:href="#NimbusRomNo9L-Regu-35" transform="translate(204.630615 0) scale(0.996264)"/>
      </g>
     </g>
    </g>
    <g id="ytick_6">
     <g id="line2d_23">
      <path d="M 81.814088 96.261686 
L 374.4 96.261686 
" clip-path="url(#p843a9cc11d)" style="fill: none; stroke-dasharray: 0.9,1.485; stroke-dashoffset: 0; stroke: #b0b0b0; stroke-width: 0.9"/>
     </g>
     <g id="line2d_24">
      <g>
       <use xlink:href="#m6477747687" x="81.814088" y="96.261686" style="stroke: #000000; stroke-width: 0.8"/>
      </g>
     </g>
     <g id="text_13">
      <!-- $\mathdefault{0.00}$ -->
      <g transform="translate(57.110579 99.638975) scale(0.1 -0.1)">
       <use xlink:href="#NimbusRomNo9L-Regu-30" transform="scale(0.996264)"/>
       <use xlink:href="#CMMI10-3a" transform="translate(49.8132 0) scale(0.996264)"/>
       <use xlink:href="#NimbusRomNo9L-Regu-30" transform="translate(77.408707 0) scale(0.996264)"/>
       <use xlink:href="#NimbusRomNo9L-Regu-30" transform="translate(127.221908 0) scale(0.996264)"/>
      </g>
     </g>
    </g>
    <g id="ytick_7">
     <g id="line2d_25">
      <path d="M 81.814088 71.62236 
L 374.4 71.62236 
" clip-path="url(#p843a9cc11d)" style="fill: none; stroke-dasharray: 0.9,1.485; stroke-dashoffset: 0; stroke: #b0b0b0; stroke-width: 0.9"/>
     </g>
     <g id="line2d_26">
      <g>
       <use xlink:href="#m6477747687" x="81.814088" y="71.62236" style="stroke: #000000; stroke-width: 0.8"/>
      </g>
     </g>
     <g id="text_14">
      <!-- $\mathdefault{0.25}$ -->
      <g transform="translate(57.110579 74.999649) scale(0.1 -0.1)">
       <use xlink:href="#NimbusRomNo9L-Regu-30" transform="scale(0.996264)"/>
       <use xlink:href="#CMMI10-3a" transform="translate(49.8132 0) scale(0.996264)"/>
       <use xlink:href="#NimbusRomNo9L-Regu-32" transform="translate(77.408707 0) scale(0.996264)"/>
       <use xlink:href="#NimbusRomNo9L-Regu-35" transform="translate(127.221908 0) scale(0.996264)"/>
      </g>
     </g>
    </g>
    <g id="ytick_8">
     <g id="line2d_27">
      <path d="M 81.814088 46.983034 
L 374.4 46.983034 
" clip-path="url(#p843a9cc11d)" style="fill: none; stroke-dasharray: 0.9,1.485; stroke-dashoffset: 0; stroke: #b0b0b0; stroke-width: 0.9"/>
     </g>
     <g id="line2d_28">
      <g>
       <use xlink:href="#m6477747687" x="81.814088" y="46.983034" style="stroke: #000000; stroke-width: 0.8"/>
      </g>
     </g>
     <g id="text_15">
      <!-- $\mathdefault{0.50}$ -->
      <g transform="translate(57.110579 50.360322) scale(0.1 -0.1)">
       <use xlink:href="#NimbusRomNo9L-Regu-30" transform="scale(0.996264)"/>
       <use xlink:href="#CMMI10-3a" transform="translate(49.8132 0) scale(0.996264)"/>
       <use xlink:href="#NimbusRomNo9L-Regu-35" transform="translate(77.408707 0) scale(0.996264)"/>
       <use xlink:href="#NimbusRomNo9L-Regu-30" transform="translate(127.221908 0) scale(0.996264)"/>
      </g>
     </g>
    </g>
    <g id="text_16">
     <!-- Most positive real part of $\lambda_i$ -->
     <g transform="translate(43.212881 191.954646) rotate(-90) scale(0.1 -0.1)">
      <defs>
       <path id="NimbusRomNo9L-Regu-4d" d="M 4314 3656 
L 4314 765 
C 4314 236 4237 153 3731 121 
L 3731 0 
L 5523 0 
L 5523 121 
C 5056 153 4966 242 4966 695 
L 4966 3528 
C 4966 3981 5050 4064 5523 4102 
L 5523 4224 
L 4250 4224 
L 2835 1002 
L 1357 4224 
L 90 4224 
L 90 4102 
C 614 4070 698 3994 698 3528 
L 698 938 
C 698 281 608 159 77 121 
L 77 0 
L 1581 0 
L 1581 121 
C 1088 147 979 293 979 938 
L 979 3509 
L 2586 0 
L 2675 0 
L 4314 3656 
z
" transform="scale(0.015625)"/>
       <path id="NimbusRomNo9L-Regu-70" d="M 58 2515 
C 115 2521 160 2521 218 2521 
C 435 2521 480 2457 480 2157 
L 480 -839 
C 480 -1172 410 -1242 32 -1280 
L 32 -1389 
L 1581 -1389 
L 1581 -1280 
C 1101 -1274 1018 -1203 1018 -798 
L 1018 211 
C 1242 0 1395 -64 1664 -64 
C 2419 -64 3008 652 3008 1580 
C 3008 2374 2560 2944 1939 2944 
C 1581 2944 1299 2783 1018 2438 
L 1018 2931 
L 979 2944 
C 634 2809 410 2726 58 2617 
L 58 2515 
z
M 1018 2137 
C 1018 2329 1376 2559 1670 2559 
C 2144 2559 2458 2073 2458 1331 
C 2458 620 2144 140 1683 140 
C 1382 140 1018 371 1018 563 
L 1018 2137 
z
" transform="scale(0.015625)"/>
       <path id="NimbusRomNo9L-Regu-6c" d="M 122 3987 
L 160 3987 
C 230 3993 307 4000 358 4000 
C 563 4000 627 3910 627 3609 
L 627 556 
C 627 211 538 128 134 96 
L 134 0 
L 1645 0 
L 1645 96 
C 1242 121 1165 185 1165 537 
L 1165 4358 
L 1139 4371 
C 806 4262 563 4198 122 4089 
L 122 3987 
z
" transform="scale(0.015625)"/>
       <path id="StandardSymL-6c" d="M 480 3650 
C 525 4013 710 4224 998 4224 
C 1203 4224 1376 4064 1472 3778 
C 1517 3650 1574 3440 1632 3198 
L 154 19 
L 755 19 
L 1843 2301 
C 2048 1059 2150 607 2266 358 
C 2406 83 2611 -64 2848 -64 
C 3098 -64 3296 89 3405 371 
C 3475 543 3501 715 3507 1014 
L 3373 1014 
C 3322 683 3174 499 2944 499 
C 2752 499 2586 620 2483 843 
C 2400 1008 2355 1174 2266 1645 
L 2093 2466 
C 2086 2485 2080 2530 2067 2594 
C 1920 3415 1690 4192 1536 4422 
C 1395 4627 1203 4736 992 4736 
C 602 4736 397 4403 326 3650 
L 480 3650 
z
" transform="scale(0.015625)"/>
       <path id="NimbusRomNo9L-ReguItal-69" d="M 1421 733 
C 1267 529 1222 478 1158 408 
C 1050 300 954 236 896 236 
C 845 236 794 287 794 332 
C 794 395 813 491 858 612 
C 858 631 877 676 890 727 
L 890 739 
L 896 752 
L 1459 2803 
L 1440 2816 
C 794 2694 666 2675 416 2655 
L 416 2554 
C 755 2547 819 2528 819 2401 
C 819 2350 800 2248 762 2121 
L 454 994 
C 352 625 314 427 314 300 
C 314 64 416 -64 608 -64 
C 902 -64 1139 128 1504 663 
L 1421 733 
z
M 1370 4160 
C 1197 4160 1069 4013 1069 3824 
C 1069 3622 1190 3490 1376 3490 
C 1542 3490 1690 3635 1690 3811 
C 1690 3994 1542 4160 1370 4160 
z
" transform="scale(0.015625)"/>
      </defs>
      <use xlink:href="#NimbusRomNo9L-Regu-4d" transform="scale(0.996264)"/>
      <use xlink:href="#NimbusRomNo9L-Regu-6f" transform="translate(88.566907 0) scale(0.996264)"/>
      <use xlink:href="#NimbusRomNo9L-Regu-73" transform="translate(138.380107 0) scale(0.996264)"/>
      <use xlink:href="#NimbusRomNo9L-Regu-74" transform="translate(177.133813 0) scale(0.996264)"/>
      <use xlink:href="#NimbusRomNo9L-Regu-70" transform="translate(229.735583 0) scale(0.996264)"/>
      <use xlink:href="#NimbusRomNo9L-Regu-6f" transform="translate(279.548784 0) scale(0.996264)"/>
      <use xlink:href="#NimbusRomNo9L-Regu-73" transform="translate(329.361984 0) scale(0.996264)"/>
      <use xlink:href="#NimbusRomNo9L-Regu-69" transform="translate(368.11569 0) scale(0.996264)"/>
      <use xlink:href="#NimbusRomNo9L-Regu-74" transform="translate(395.81086 0) scale(0.996264)"/>
      <use xlink:href="#NimbusRomNo9L-Regu-69" transform="translate(423.50603 0) scale(0.996264)"/>
      <use xlink:href="#NimbusRomNo9L-Regu-76" transform="translate(448.71057 0) scale(0.996264)"/>
      <use xlink:href="#NimbusRomNo9L-Regu-65" transform="translate(497.030377 0) scale(0.996264)"/>
      <use xlink:href="#NimbusRomNo9L-Regu-72" transform="translate(566.170546 0) scale(0.996264)"/>
      <use xlink:href="#NimbusRomNo9L-Regu-65" transform="translate(599.345776 0) scale(0.996264)"/>
      <use xlink:href="#NimbusRomNo9L-Regu-61" transform="translate(643.579345 0) scale(0.996264)"/>
      <use xlink:href="#NimbusRomNo9L-Regu-6c" transform="translate(687.812913 0) scale(0.996264)"/>
      <use xlink:href="#NimbusRomNo9L-Regu-70" transform="translate(740.414683 0) scale(0.996264)"/>
      <use xlink:href="#NimbusRomNo9L-Regu-61" transform="translate(790.227884 0) scale(0.996264)"/>
      <use xlink:href="#NimbusRomNo9L-Regu-72" transform="translate(834.461453 0) scale(0.996264)"/>
      <use xlink:href="#NimbusRomNo9L-Regu-74" transform="translate(867.636682 0) scale(0.996264)"/>
      <use xlink:href="#NimbusRomNo9L-Regu-6f" transform="translate(920.238452 0) scale(0.996264)"/>
      <use xlink:href="#NimbusRomNo9L-Regu-66" transform="translate(970.051653 0) scale(0.996264)"/>
      <use xlink:href="#StandardSymL-6c" transform="translate(1028.133483 0) scale(0.996264)"/>
      <use xlink:href="#NimbusRomNo9L-ReguItal-69" transform="translate(1082.828249 -14.943915) scale(0.737241)"/>
     </g>
    </g>
   </g>
   <g id="line2d_29">
    <path d="M 95.113448 45.162599 
L 98.438288 64.337294 
L 101.763128 83.871785 
L 105.087968 103.662435 
L 108.412808 123.55843 
L 111.737647 143.370832 
L 115.062487 162.895358 
L 118.387327 181.943317 
L 121.712167 185.354791 
L 125.037007 183.078326 
L 128.361847 181.185757 
L 131.686687 179.670864 
L 135.011527 178.5125 
L 138.336367 177.681247 
L 141.661207 177.144323 
L 144.986046 176.868741 
L 148.310886 176.823101 
L 151.635726 176.978481 
L 154.960566 177.308743 
L 158.285406 177.790538 
L 161.610246 178.403134 
L 164.935086 179.128181 
L 168.259926 179.949454 
L 171.584766 180.852598 
L 174.909606 181.824901 
L 178.234446 182.855088 
L 181.559285 183.933144 
L 184.884125 185.050158 
L 188.208965 186.19819 
L 191.533805 187.37016 
L 194.858645 188.559749 
L 198.183485 189.761319 
L 201.508325 190.969839 
L 204.833165 192.180824 
L 208.158005 193.390284 
L 211.482845 194.594678 
L 214.807685 195.79087 
L 218.132524 196.976095 
L 221.457364 198.147929 
L 224.782204 199.304255 
L 228.107044 200.443243 
L 231.431884 201.563322 
L 234.756724 202.663159 
L 238.081564 203.741639 
L 241.406404 204.797844 
L 244.731244 205.831041 
L 248.056084 206.840659 
L 251.380923 207.826277 
L 254.705763 208.787609 
L 258.030603 209.724492 
L 261.355443 210.636869 
L 264.680283 211.52478 
L 268.005123 212.388354 
L 271.329963 213.227792 
L 274.654803 214.043362 
L 277.979643 214.83539 
L 281.304483 215.60425 
L 284.629323 216.350358 
L 287.954162 217.074164 
L 291.279002 217.776148 
L 294.603842 218.456812 
L 297.928682 219.116677 
L 301.253522 219.756276 
L 304.578362 220.376152 
L 307.903202 220.976854 
L 311.228042 221.558934 
L 314.552882 222.122943 
L 317.877722 222.66943 
L 321.202562 223.19894 
L 324.527401 223.712009 
L 327.852241 224.209168 
L 331.177081 224.690938 
L 334.501921 225.157828 
L 337.826761 225.610338 
L 341.151601 226.048956 
L 344.476441 226.474155 
L 347.801281 226.886398 
L 351.126121 227.286134 
L 354.450961 227.673798 
L 357.7758 228.049813 
L 361.10064 228.414588 
" clip-path="url(#p843a9cc11d)" style="fill: none; stroke-dasharray: 2.96,1.28; stroke-dashoffset: 0; stroke: #000000; stroke-width: 0.8"/>
    <defs>
     <path id="m381a47e734" d="M 0 -1.5 
L -1.5 1.5 
L 1.5 1.5 
z
" style="stroke: #000000; stroke-width: 0.6; stroke-linejoin: miter"/>
    </defs>
    <g clip-path="url(#p843a9cc11d)">
     <use xlink:href="#m381a47e734" x="95.113448" y="45.162599" style="stroke: #000000; stroke-width: 0.6; stroke-linejoin: miter"/>
     <use xlink:href="#m381a47e734" x="98.438288" y="64.337294" style="stroke: #000000; stroke-width: 0.6; stroke-linejoin: miter"/>
     <use xlink:href="#m381a47e734" x="101.763128" y="83.871785" style="stroke: #000000; stroke-width: 0.6; stroke-linejoin: miter"/>
     <use xlink:href="#m381a47e734" x="105.087968" y="103.662435" style="stroke: #000000; stroke-width: 0.6; stroke-linejoin: miter"/>
     <use xlink:href="#m381a47e734" x="108.412808" y="123.55843" style="stroke: #000000; stroke-width: 0.6; stroke-linejoin: miter"/>
     <use xlink:href="#m381a47e734" x="111.737647" y="143.370832" style="stroke: #000000; stroke-width: 0.6; stroke-linejoin: miter"/>
     <use xlink:href="#m381a47e734" x="115.062487" y="162.895358" style="stroke: #000000; stroke-width: 0.6; stroke-linejoin: miter"/>
     <use xlink:href="#m381a47e734" x="118.387327" y="181.943317" style="stroke: #000000; stroke-width: 0.6; stroke-linejoin: miter"/>
     <use xlink:href="#m381a47e734" x="121.712167" y="185.354791" style="stroke: #000000; stroke-width: 0.6; stroke-linejoin: miter"/>
     <use xlink:href="#m381a47e734" x="125.037007" y="183.078326" style="stroke: #000000; stroke-width: 0.6; stroke-linejoin: miter"/>
     <use xlink:href="#m381a47e734" x="128.361847" y="181.185757" style="stroke: #000000; stroke-width: 0.6; stroke-linejoin: miter"/>
     <use xlink:href="#m381a47e734" x="131.686687" y="179.670864" style="stroke: #000000; stroke-width: 0.6; stroke-linejoin: miter"/>
     <use xlink:href="#m381a47e734" x="135.011527" y="178.5125" style="stroke: #000000; stroke-width: 0.6; stroke-linejoin: miter"/>
     <use xlink:href="#m381a47e734" x="138.336367" y="177.681247" style="stroke: #000000; stroke-width: 0.6; stroke-linejoin: miter"/>
     <use xlink:href="#m381a47e734" x="141.661207" y="177.144323" style="stroke: #000000; stroke-width: 0.6; stroke-linejoin: miter"/>
     <use xlink:href="#m381a47e734" x="144.986046" y="176.868741" style="stroke: #000000; stroke-width: 0.6; stroke-linejoin: miter"/>
     <use xlink:href="#m381a47e734" x="148.310886" y="176.823101" style="stroke: #000000; stroke-width: 0.6; stroke-linejoin: miter"/>
     <use xlink:href="#m381a47e734" x="151.635726" y="176.978481" style="stroke: #000000; stroke-width: 0.6; stroke-linejoin: miter"/>
     <use xlink:href="#m381a47e734" x="154.960566" y="177.308743" style="stroke: #000000; stroke-width: 0.6; stroke-linejoin: miter"/>
     <use xlink:href="#m381a47e734" x="158.285406" y="177.790538" style="stroke: #000000; stroke-width: 0.6; stroke-linejoin: miter"/>
     <use xlink:href="#m381a47e734" x="161.610246" y="178.403134" style="stroke: #000000; stroke-width: 0.6; stroke-linejoin: miter"/>
     <use xlink:href="#m381a47e734" x="164.935086" y="179.128181" style="stroke: #000000; stroke-width: 0.6; stroke-linejoin: miter"/>
     <use xlink:href="#m381a47e734" x="168.259926" y="179.949454" style="stroke: #000000; stroke-width: 0.6; stroke-linejoin: miter"/>
     <use xlink:href="#m381a47e734" x="171.584766" y="180.852598" style="stroke: #000000; stroke-width: 0.6; stroke-linejoin: miter"/>
     <use xlink:href="#m381a47e734" x="174.909606" y="181.824901" style="stroke: #000000; stroke-width: 0.6; stroke-linejoin: miter"/>
     <use xlink:href="#m381a47e734" x="178.234446" y="182.855088" style="stroke: #000000; stroke-width: 0.6; stroke-linejoin: miter"/>
     <use xlink:href="#m381a47e734" x="181.559285" y="183.933144" style="stroke: #000000; stroke-width: 0.6; stroke-linejoin: miter"/>
     <use xlink:href="#m381a47e734" x="184.884125" y="185.050158" style="stroke: #000000; stroke-width: 0.6; stroke-linejoin: miter"/>
     <use xlink:href="#m381a47e734" x="188.208965" y="186.19819" style="stroke: #000000; stroke-width: 0.6; stroke-linejoin: miter"/>
     <use xlink:href="#m381a47e734" x="191.533805" y="187.37016" style="stroke: #000000; stroke-width: 0.6; stroke-linejoin: miter"/>
     <use xlink:href="#m381a47e734" x="194.858645" y="188.559749" style="stroke: #000000; stroke-width: 0.6; stroke-linejoin: miter"/>
     <use xlink:href="#m381a47e734" x="198.183485" y="189.761319" style="stroke: #000000; stroke-width: 0.6; stroke-linejoin: miter"/>
     <use xlink:href="#m381a47e734" x="201.508325" y="190.969839" style="stroke: #000000; stroke-width: 0.6; stroke-linejoin: miter"/>
     <use xlink:href="#m381a47e734" x="204.833165" y="192.180824" style="stroke: #000000; stroke-width: 0.6; stroke-linejoin: miter"/>
     <use xlink:href="#m381a47e734" x="208.158005" y="193.390284" style="stroke: #000000; stroke-width: 0.6; stroke-linejoin: miter"/>
     <use xlink:href="#m381a47e734" x="211.482845" y="194.594678" style="stroke: #000000; stroke-width: 0.6; stroke-linejoin: miter"/>
     <use xlink:href="#m381a47e734" x="214.807685" y="195.79087" style="stroke: #000000; stroke-width: 0.6; stroke-linejoin: miter"/>
     <use xlink:href="#m381a47e734" x="218.132524" y="196.976095" style="stroke: #000000; stroke-width: 0.6; stroke-linejoin: miter"/>
     <use xlink:href="#m381a47e734" x="221.457364" y="198.147929" style="stroke: #000000; stroke-width: 0.6; stroke-linejoin: miter"/>
     <use xlink:href="#m381a47e734" x="224.782204" y="199.304255" style="stroke: #000000; stroke-width: 0.6; stroke-linejoin: miter"/>
     <use xlink:href="#m381a47e734" x="228.107044" y="200.443243" style="stroke: #000000; stroke-width: 0.6; stroke-linejoin: miter"/>
     <use xlink:href="#m381a47e734" x="231.431884" y="201.563322" style="stroke: #000000; stroke-width: 0.6; stroke-linejoin: miter"/>
     <use xlink:href="#m381a47e734" x="234.756724" y="202.663159" style="stroke: #000000; stroke-width: 0.6; stroke-linejoin: miter"/>
     <use xlink:href="#m381a47e734" x="238.081564" y="203.741639" style="stroke: #000000; stroke-width: 0.6; stroke-linejoin: miter"/>
     <use xlink:href="#m381a47e734" x="241.406404" y="204.797844" style="stroke: #000000; stroke-width: 0.6; stroke-linejoin: miter"/>
     <use xlink:href="#m381a47e734" x="244.731244" y="205.831041" style="stroke: #000000; stroke-width: 0.6; stroke-linejoin: miter"/>
     <use xlink:href="#m381a47e734" x="248.056084" y="206.840659" style="stroke: #000000; stroke-width: 0.6; stroke-linejoin: miter"/>
     <use xlink:href="#m381a47e734" x="251.380923" y="207.826277" style="stroke: #000000; stroke-width: 0.6; stroke-linejoin: miter"/>
     <use xlink:href="#m381a47e734" x="254.705763" y="208.787609" style="stroke: #000000; stroke-width: 0.6; stroke-linejoin: miter"/>
     <use xlink:href="#m381a47e734" x="258.030603" y="209.724492" style="stroke: #000000; stroke-width: 0.6; stroke-linejoin: miter"/>
     <use xlink:href="#m381a47e734" x="261.355443" y="210.636869" style="stroke: #000000; stroke-width: 0.6; stroke-linejoin: miter"/>
     <use xlink:href="#m381a47e734" x="264.680283" y="211.52478" style="stroke: #000000; stroke-width: 0.6; stroke-linejoin: miter"/>
     <use xlink:href="#m381a47e734" x="268.005123" y="212.388354" style="stroke: #000000; stroke-width: 0.6; stroke-linejoin: miter"/>
     <use xlink:href="#m381a47e734" x="271.329963" y="213.227792" style="stroke: #000000; stroke-width: 0.6; stroke-linejoin: miter"/>
     <use xlink:href="#m381a47e734" x="274.654803" y="214.043362" style="stroke: #000000; stroke-width: 0.6; stroke-linejoin: miter"/>
     <use xlink:href="#m381a47e734" x="277.979643" y="214.83539" style="stroke: #000000; stroke-width: 0.6; stroke-linejoin: miter"/>
     <use xlink:href="#m381a47e734" x="281.304483" y="215.60425" style="stroke: #000000; stroke-width: 0.6; stroke-linejoin: miter"/>
     <use xlink:href="#m381a47e734" x="284.629323" y="216.350358" style="stroke: #000000; stroke-width: 0.6; stroke-linejoin: miter"/>
     <use xlink:href="#m381a47e734" x="287.954162" y="217.074164" style="stroke: #000000; stroke-width: 0.6; stroke-linejoin: miter"/>
     <use xlink:href="#m381a47e734" x="291.279002" y="217.776148" style="stroke: #000000; stroke-width: 0.6; stroke-linejoin: miter"/>
     <use xlink:href="#m381a47e734" x="294.603842" y="218.456812" style="stroke: #000000; stroke-width: 0.6; stroke-linejoin: miter"/>
     <use xlink:href="#m381a47e734" x="297.928682" y="219.116677" style="stroke: #000000; stroke-width: 0.6; stroke-linejoin: miter"/>
     <use xlink:href="#m381a47e734" x="301.253522" y="219.756276" style="stroke: #000000; stroke-width: 0.6; stroke-linejoin: miter"/>
     <use xlink:href="#m381a47e734" x="304.578362" y="220.376152" style="stroke: #000000; stroke-width: 0.6; stroke-linejoin: miter"/>
     <use xlink:href="#m381a47e734" x="307.903202" y="220.976854" style="stroke: #000000; stroke-width: 0.6; stroke-linejoin: miter"/>
     <use xlink:href="#m381a47e734" x="311.228042" y="221.558934" style="stroke: #000000; stroke-width: 0.6; stroke-linejoin: miter"/>
     <use xlink:href="#m381a47e734" x="314.552882" y="222.122943" style="stroke: #000000; stroke-width: 0.6; stroke-linejoin: miter"/>
     <use xlink:href="#m381a47e734" x="317.877722" y="222.66943" style="stroke: #000000; stroke-width: 0.6; stroke-linejoin: miter"/>
     <use xlink:href="#m381a47e734" x="321.202562" y="223.19894" style="stroke: #000000; stroke-width: 0.6; stroke-linejoin: miter"/>
     <use xlink:href="#m381a47e734" x="324.527401" y="223.712009" style="stroke: #000000; stroke-width: 0.6; stroke-linejoin: miter"/>
     <use xlink:href="#m381a47e734" x="327.852241" y="224.209168" style="stroke: #000000; stroke-width: 0.6; stroke-linejoin: miter"/>
     <use xlink:href="#m381a47e734" x="331.177081" y="224.690938" style="stroke: #000000; stroke-width: 0.6; stroke-linejoin: miter"/>
     <use xlink:href="#m381a47e734" x="334.501921" y="225.157828" style="stroke: #000000; stroke-width: 0.6; stroke-linejoin: miter"/>
     <use xlink:href="#m381a47e734" x="337.826761" y="225.610338" style="stroke: #000000; stroke-width: 0.6; stroke-linejoin: miter"/>
     <use xlink:href="#m381a47e734" x="341.151601" y="226.048956" style="stroke: #000000; stroke-width: 0.6; stroke-linejoin: miter"/>
     <use xlink:href="#m381a47e734" x="344.476441" y="226.474155" style="stroke: #000000; stroke-width: 0.6; stroke-linejoin: miter"/>
     <use xlink:href="#m381a47e734" x="347.801281" y="226.886398" style="stroke: #000000; stroke-width: 0.6; stroke-linejoin: miter"/>
     <use xlink:href="#m381a47e734" x="351.126121" y="227.286134" style="stroke: #000000; stroke-width: 0.6; stroke-linejoin: miter"/>
     <use xlink:href="#m381a47e734" x="354.450961" y="227.673798" style="stroke: #000000; stroke-width: 0.6; stroke-linejoin: miter"/>
     <use xlink:href="#m381a47e734" x="357.7758" y="228.049813" style="stroke: #000000; stroke-width: 0.6; stroke-linejoin: miter"/>
     <use xlink:href="#m381a47e734" x="361.10064" y="228.414588" style="stroke: #000000; stroke-width: 0.6; stroke-linejoin: miter"/>
    </g>
   </g>
   <g id="line2d_30">
    <path d="M 95.113448 45.162599 
L 98.438288 50.537896 
L 101.763128 56.007658 
L 105.087968 61.582821 
L 108.412808 67.275716 
L 111.737647 73.100313 
L 115.062487 79.072518 
L 118.387327 85.210536 
L 121.712167 91.535309 
L 125.037007 98.071069 
L 128.361847 104.846009 
L 131.686687 111.893113 
L 135.011527 119.251178 
L 138.336367 126.966053 
L 141.661207 135.092117 
L 144.986046 143.693961 
L 148.310886 152.848159 
L 151.635726 162.644761 
L 154.960566 173.187728 
L 158.285406 184.592685 
L 161.610246 196.97914 
L 164.935086 210.452943 
L 168.259926 213.402504 
L 171.584766 210.115878 
L 174.909606 206.379512 
L 178.234446 202.330721 
L 181.559285 198.141413 
L 184.884125 193.975833 
L 188.208965 189.958436 
L 191.533805 186.164672 
L 194.858645 182.628823 
L 198.183485 179.357399 
L 201.508325 176.340942 
L 204.833165 173.562158 
L 208.158005 171.000821 
L 211.482845 168.636449 
L 214.807685 166.449638 
L 218.132524 164.422631 
L 221.457364 162.539486 
L 224.782204 160.786028 
L 228.107044 159.149724 
L 231.431884 157.619509 
L 234.756724 156.185617 
L 238.081564 154.839415 
L 241.406404 153.57326 
L 244.731244 152.380365 
L 248.056084 151.25469 
L 251.380923 150.190845 
L 254.705763 149.184003 
L 258.030603 148.229832 
L 261.355443 147.324433 
L 264.680283 146.464284 
L 268.005123 145.646198 
L 271.329963 144.867286 
L 274.654803 144.124917 
L 277.979643 143.416694 
L 281.304483 142.740425 
L 284.629323 142.094104 
L 287.954162 141.47589 
L 291.279002 140.88409 
L 294.603842 140.317145 
L 297.928682 139.773616 
L 301.253522 139.252173 
L 304.578362 138.751583 
L 307.903202 138.270706 
L 311.228042 137.808479 
L 314.552882 137.363917 
L 317.877722 136.9361 
L 321.202562 136.524172 
L 324.527401 136.127332 
L 327.852241 135.744832 
L 331.177081 135.375971 
L 334.501921 135.020094 
L 337.826761 134.676585 
L 341.151601 134.344866 
L 344.476441 134.024393 
L 347.801281 133.714654 
L 351.126121 133.41517 
L 354.450961 133.125484 
L 357.7758 132.84517 
L 361.10064 132.573823 
" clip-path="url(#p843a9cc11d)" style="fill: none; stroke: #000000; stroke-width: 0.8; stroke-linecap: square"/>
    <defs>
     <path id="m8c425dbb5a" d="M -1.5 1.5 
L 1.5 1.5 
L 1.5 -1.5 
L -1.5 -1.5 
z
" style="stroke: #000000; stroke-width: 0.6; stroke-linejoin: miter"/>
    </defs>
    <g clip-path="url(#p843a9cc11d)">
     <use xlink:href="#m8c425dbb5a" x="95.113448" y="45.162599" style="stroke: #000000; stroke-width: 0.6; stroke-linejoin: miter"/>
     <use xlink:href="#m8c425dbb5a" x="98.438288" y="50.537896" style="stroke: #000000; stroke-width: 0.6; stroke-linejoin: miter"/>
     <use xlink:href="#m8c425dbb5a" x="101.763128" y="56.007658" style="stroke: #000000; stroke-width: 0.6; stroke-linejoin: miter"/>
     <use xlink:href="#m8c425dbb5a" x="105.087968" y="61.582821" style="stroke: #000000; stroke-width: 0.6; stroke-linejoin: miter"/>
     <use xlink:href="#m8c425dbb5a" x="108.412808" y="67.275716" style="stroke: #000000; stroke-width: 0.6; stroke-linejoin: miter"/>
     <use xlink:href="#m8c425dbb5a" x="111.737647" y="73.100313" style="stroke: #000000; stroke-width: 0.6; stroke-linejoin: miter"/>
     <use xlink:href="#m8c425dbb5a" x="115.062487" y="79.072518" style="stroke: #000000; stroke-width: 0.6; stroke-linejoin: miter"/>
     <use xlink:href="#m8c425dbb5a" x="118.387327" y="85.210536" style="stroke: #000000; stroke-width: 0.6; stroke-linejoin: miter"/>
     <use xlink:href="#m8c425dbb5a" x="121.712167" y="91.535309" style="stroke: #000000; stroke-width: 0.6; stroke-linejoin: miter"/>
     <use xlink:href="#m8c425dbb5a" x="125.037007" y="98.071069" style="stroke: #000000; stroke-width: 0.6; stroke-linejoin: miter"/>
     <use xlink:href="#m8c425dbb5a" x="128.361847" y="104.846009" style="stroke: #000000; stroke-width: 0.6; stroke-linejoin: miter"/>
     <use xlink:href="#m8c425dbb5a" x="131.686687" y="111.893113" style="stroke: #000000; stroke-width: 0.6; stroke-linejoin: miter"/>
     <use xlink:href="#m8c425dbb5a" x="135.011527" y="119.251178" style="stroke: #000000; stroke-width: 0.6; stroke-linejoin: miter"/>
     <use xlink:href="#m8c425dbb5a" x="138.336367" y="126.966053" style="stroke: #000000; stroke-width: 0.6; stroke-linejoin: miter"/>
     <use xlink:href="#m8c425dbb5a" x="141.661207" y="135.092117" style="stroke: #000000; stroke-width: 0.6; stroke-linejoin: miter"/>
     <use xlink:href="#m8c425dbb5a" x="144.986046" y="143.693961" style="stroke: #000000; stroke-width: 0.6; stroke-linejoin: miter"/>
     <use xlink:href="#m8c425dbb5a" x="148.310886" y="152.848159" style="stroke: #000000; stroke-width: 0.6; stroke-linejoin: miter"/>
     <use xlink:href="#m8c425dbb5a" x="151.635726" y="162.644761" style="stroke: #000000; stroke-width: 0.6; stroke-linejoin: miter"/>
     <use xlink:href="#m8c425dbb5a" x="154.960566" y="173.187728" style="stroke: #000000; stroke-width: 0.6; stroke-linejoin: miter"/>
     <use xlink:href="#m8c425dbb5a" x="158.285406" y="184.592685" style="stroke: #000000; stroke-width: 0.6; stroke-linejoin: miter"/>
     <use xlink:href="#m8c425dbb5a" x="161.610246" y="196.97914" style="stroke: #000000; stroke-width: 0.6; stroke-linejoin: miter"/>
     <use xlink:href="#m8c425dbb5a" x="164.935086" y="210.452943" style="stroke: #000000; stroke-width: 0.6; stroke-linejoin: miter"/>
     <use xlink:href="#m8c425dbb5a" x="168.259926" y="213.402504" style="stroke: #000000; stroke-width: 0.6; stroke-linejoin: miter"/>
     <use xlink:href="#m8c425dbb5a" x="171.584766" y="210.115878" style="stroke: #000000; stroke-width: 0.6; stroke-linejoin: miter"/>
     <use xlink:href="#m8c425dbb5a" x="174.909606" y="206.379512" style="stroke: #000000; stroke-width: 0.6; stroke-linejoin: miter"/>
     <use xlink:href="#m8c425dbb5a" x="178.234446" y="202.330721" style="stroke: #000000; stroke-width: 0.6; stroke-linejoin: miter"/>
     <use xlink:href="#m8c425dbb5a" x="181.559285" y="198.141413" style="stroke: #000000; stroke-width: 0.6; stroke-linejoin: miter"/>
     <use xlink:href="#m8c425dbb5a" x="184.884125" y="193.975833" style="stroke: #000000; stroke-width: 0.6; stroke-linejoin: miter"/>
     <use xlink:href="#m8c425dbb5a" x="188.208965" y="189.958436" style="stroke: #000000; stroke-width: 0.6; stroke-linejoin: miter"/>
     <use xlink:href="#m8c425dbb5a" x="191.533805" y="186.164672" style="stroke: #000000; stroke-width: 0.6; stroke-linejoin: miter"/>
     <use xlink:href="#m8c425dbb5a" x="194.858645" y="182.628823" style="stroke: #000000; stroke-width: 0.6; stroke-linejoin: miter"/>
     <use xlink:href="#m8c425dbb5a" x="198.183485" y="179.357399" style="stroke: #000000; stroke-width: 0.6; stroke-linejoin: miter"/>
     <use xlink:href="#m8c425dbb5a" x="201.508325" y="176.340942" style="stroke: #000000; stroke-width: 0.6; stroke-linejoin: miter"/>
     <use xlink:href="#m8c425dbb5a" x="204.833165" y="173.562158" style="stroke: #000000; stroke-width: 0.6; stroke-linejoin: miter"/>
     <use xlink:href="#m8c425dbb5a" x="208.158005" y="171.000821" style="stroke: #000000; stroke-width: 0.6; stroke-linejoin: miter"/>
     <use xlink:href="#m8c425dbb5a" x="211.482845" y="168.636449" style="stroke: #000000; stroke-width: 0.6; stroke-linejoin: miter"/>
     <use xlink:href="#m8c425dbb5a" x="214.807685" y="166.449638" style="stroke: #000000; stroke-width: 0.6; stroke-linejoin: miter"/>
     <use xlink:href="#m8c425dbb5a" x="218.132524" y="164.422631" style="stroke: #000000; stroke-width: 0.6; stroke-linejoin: miter"/>
     <use xlink:href="#m8c425dbb5a" x="221.457364" y="162.539486" style="stroke: #000000; stroke-width: 0.6; stroke-linejoin: miter"/>
     <use xlink:href="#m8c425dbb5a" x="224.782204" y="160.786028" style="stroke: #000000; stroke-width: 0.6; stroke-linejoin: miter"/>
     <use xlink:href="#m8c425dbb5a" x="228.107044" y="159.149724" style="stroke: #000000; stroke-width: 0.6; stroke-linejoin: miter"/>
     <use xlink:href="#m8c425dbb5a" x="231.431884" y="157.619509" style="stroke: #000000; stroke-width: 0.6; stroke-linejoin: miter"/>
     <use xlink:href="#m8c425dbb5a" x="234.756724" y="156.185617" style="stroke: #000000; stroke-width: 0.6; stroke-linejoin: miter"/>
     <use xlink:href="#m8c425dbb5a" x="238.081564" y="154.839415" style="stroke: #000000; stroke-width: 0.6; stroke-linejoin: miter"/>
     <use xlink:href="#m8c425dbb5a" x="241.406404" y="153.57326" style="stroke: #000000; stroke-width: 0.6; stroke-linejoin: miter"/>
     <use xlink:href="#m8c425dbb5a" x="244.731244" y="152.380365" style="stroke: #000000; stroke-width: 0.6; stroke-linejoin: miter"/>
     <use xlink:href="#m8c425dbb5a" x="248.056084" y="151.25469" style="stroke: #000000; stroke-width: 0.6; stroke-linejoin: miter"/>
     <use xlink:href="#m8c425dbb5a" x="251.380923" y="150.190845" style="stroke: #000000; stroke-width: 0.6; stroke-linejoin: miter"/>
     <use xlink:href="#m8c425dbb5a" x="254.705763" y="149.184003" style="stroke: #000000; stroke-width: 0.6; stroke-linejoin: miter"/>
     <use xlink:href="#m8c425dbb5a" x="258.030603" y="148.229832" style="stroke: #000000; stroke-width: 0.6; stroke-linejoin: miter"/>
     <use xlink:href="#m8c425dbb5a" x="261.355443" y="147.324433" style="stroke: #000000; stroke-width: 0.6; stroke-linejoin: miter"/>
     <use xlink:href="#m8c425dbb5a" x="264.680283" y="146.464284" style="stroke: #000000; stroke-width: 0.6; stroke-linejoin: miter"/>
     <use xlink:href="#m8c425dbb5a" x="268.005123" y="145.646198" style="stroke: #000000; stroke-width: 0.6; stroke-linejoin: miter"/>
     <use xlink:href="#m8c425dbb5a" x="271.329963" y="144.867286" style="stroke: #000000; stroke-width: 0.6; stroke-linejoin: miter"/>
     <use xlink:href="#m8c425dbb5a" x="274.654803" y="144.124917" style="stroke: #000000; stroke-width: 0.6; stroke-linejoin: miter"/>
     <use xlink:href="#m8c425dbb5a" x="277.979643" y="143.416694" style="stroke: #000000; stroke-width: 0.6; stroke-linejoin: miter"/>
     <use xlink:href="#m8c425dbb5a" x="281.304483" y="142.740425" style="stroke: #000000; stroke-width: 0.6; stroke-linejoin: miter"/>
     <use xlink:href="#m8c425dbb5a" x="284.629323" y="142.094104" style="stroke: #000000; stroke-width: 0.6; stroke-linejoin: miter"/>
     <use xlink:href="#m8c425dbb5a" x="287.954162" y="141.47589" style="stroke: #000000; stroke-width: 0.6; stroke-linejoin: miter"/>
     <use xlink:href="#m8c425dbb5a" x="291.279002" y="140.88409" style="stroke: #000000; stroke-width: 0.6; stroke-linejoin: miter"/>
     <use xlink:href="#m8c425dbb5a" x="294.603842" y="140.317145" style="stroke: #000000; stroke-width: 0.6; stroke-linejoin: miter"/>
     <use xlink:href="#m8c425dbb5a" x="297.928682" y="139.773616" style="stroke: #000000; stroke-width: 0.6; stroke-linejoin: miter"/>
     <use xlink:href="#m8c425dbb5a" x="301.253522" y="139.252173" style="stroke: #000000; stroke-width: 0.6; stroke-linejoin: miter"/>
     <use xlink:href="#m8c425dbb5a" x="304.578362" y="138.751583" style="stroke: #000000; stroke-width: 0.6; stroke-linejoin: miter"/>
     <use xlink:href="#m8c425dbb5a" x="307.903202" y="138.270706" style="stroke: #000000; stroke-width: 0.6; stroke-linejoin: miter"/>
     <use xlink:href="#m8c425dbb5a" x="311.228042" y="137.808479" style="stroke: #000000; stroke-width: 0.6; stroke-linejoin: miter"/>
     <use xlink:href="#m8c425dbb5a" x="314.552882" y="137.363917" style="stroke: #000000; stroke-width: 0.6; stroke-linejoin: miter"/>
     <use xlink:href="#m8c425dbb5a" x="317.877722" y="136.9361" style="stroke: #000000; stroke-width: 0.6; stroke-linejoin: miter"/>
     <use xlink:href="#m8c425dbb5a" x="321.202562" y="136.524172" style="stroke: #000000; stroke-width: 0.6; stroke-linejoin: miter"/>
     <use xlink:href="#m8c425dbb5a" x="324.527401" y="136.127332" style="stroke: #000000; stroke-width: 0.6; stroke-linejoin: miter"/>
     <use xlink:href="#m8c425dbb5a" x="327.852241" y="135.744832" style="stroke: #000000; stroke-width: 0.6; stroke-linejoin: miter"/>
     <use xlink:href="#m8c425dbb5a" x="331.177081" y="135.375971" style="stroke: #000000; stroke-width: 0.6; stroke-linejoin: miter"/>
     <use xlink:href="#m8c425dbb5a" x="334.501921" y="135.020094" style="stroke: #000000; stroke-width: 0.6; stroke-linejoin: miter"/>
     <use xlink:href="#m8c425dbb5a" x="337.826761" y="134.676585" style="stroke: #000000; stroke-width: 0.6; stroke-linejoin: miter"/>
     <use xlink:href="#m8c425dbb5a" x="341.151601" y="134.344866" style="stroke: #000000; stroke-width: 0.6; stroke-linejoin: miter"/>
     <use xlink:href="#m8c425dbb5a" x="344.476441" y="134.024393" style="stroke: #000000; stroke-width: 0.6; stroke-linejoin: miter"/>
     <use xlink:href="#m8c425dbb5a" x="347.801281" y="133.714654" style="stroke: #000000; stroke-width: 0.6; stroke-linejoin: miter"/>
     <use xlink:href="#m8c425dbb5a" x="351.126121" y="133.41517" style="stroke: #000000; stroke-width: 0.6; stroke-linejoin: miter"/>
     <use xlink:href="#m8c425dbb5a" x="354.450961" y="133.125484" style="stroke: #000000; stroke-width: 0.6; stroke-linejoin: miter"/>
     <use xlink:href="#m8c425dbb5a" x="357.7758" y="132.84517" style="stroke: #000000; stroke-width: 0.6; stroke-linejoin: miter"/>
     <use xlink:href="#m8c425dbb5a" x="361.10064" y="132.573823" style="stroke: #000000; stroke-width: 0.6; stroke-linejoin: miter"/>
    </g>
   </g>
   <g id="line2d_31">
    <path d="M 95.113448 45.162599 
L 98.438288 58.833377 
L 101.763128 72.507349 
L 105.087968 86.087188 
L 108.412808 99.466231 
L 111.737647 112.537067 
L 115.062487 125.201262 
L 118.387327 137.377914 
L 121.712167 149.009064 
L 125.037007 160.061173 
L 128.361847 170.52313 
L 131.686687 171.22725 
L 135.011527 169.090377 
L 138.336367 167.214353 
L 141.661207 165.58211 
L 144.986046 164.175611 
L 148.310886 162.976848 
L 151.635726 161.96848 
L 154.960566 161.134193 
L 158.285406 160.458885 
L 161.610246 159.928722 
L 164.935086 159.531118 
L 168.259926 159.254677 
L 171.584766 159.089101 
L 174.909606 159.025101 
L 178.234446 159.054295 
L 181.559285 159.169119 
L 184.884125 159.362741 
L 188.208965 159.628981 
L 191.533805 159.962236 
L 194.858645 160.357425 
L 198.183485 160.809923 
L 201.508325 161.315518 
L 204.833165 161.870364 
L 208.158005 162.470939 
L 211.482845 163.114018 
L 214.807685 163.796633 
L 218.132524 164.516056 
L 221.457364 165.269767 
L 224.782204 166.05544 
L 228.107044 166.870918 
L 231.431884 167.714202 
L 234.756724 168.583433 
L 238.081564 169.476881 
L 241.406404 170.392931 
L 244.731244 171.330076 
L 248.056084 172.286904 
L 251.380923 173.262093 
L 254.705763 174.254403 
L 258.030603 175.262666 
L 261.355443 176.285784 
L 264.680283 177.322722 
L 268.005123 178.372503 
L 271.329963 179.434204 
L 274.654803 180.506952 
L 277.979643 181.589919 
L 281.304483 182.68232 
L 284.629323 183.78341 
L 287.954162 184.892482 
L 291.279002 186.008862 
L 294.603842 187.131909 
L 297.928682 188.261012 
L 301.253522 189.395588 
L 304.578362 190.535081 
L 307.903202 191.678959 
L 311.228042 192.826714 
L 314.552882 193.977861 
L 317.877722 195.131933 
L 321.202562 196.288487 
L 324.527401 197.447094 
L 327.852241 198.607346 
L 331.177081 199.768849 
L 334.501921 200.931228 
L 337.826761 202.094121 
L 341.151601 203.257182 
L 344.476441 204.420076 
L 347.801281 205.582483 
L 351.126121 206.744097 
L 354.450961 207.904622 
L 357.7758 209.063774 
L 361.10064 210.22128 
" clip-path="url(#p843a9cc11d)" style="fill: none; stroke-dasharray: 5.12,1.28,0.8,1.28; stroke-dashoffset: 0; stroke: #000000; stroke-width: 0.8"/>
    <defs>
     <path id="maf2148cd1e" d="M 0 1.5 
C 0.397805 1.5 0.77937 1.341951 1.06066 1.06066 
C 1.341951 0.77937 1.5 0.397805 1.5 0 
C 1.5 -0.397805 1.341951 -0.77937 1.06066 -1.06066 
C 0.77937 -1.341951 0.397805 -1.5 0 -1.5 
C -0.397805 -1.5 -0.77937 -1.341951 -1.06066 -1.06066 
C -1.341951 -0.77937 -1.5 -0.397805 -1.5 0 
C -1.5 0.397805 -1.341951 0.77937 -1.06066 1.06066 
C -0.77937 1.341951 -0.397805 1.5 0 1.5 
z
" style="stroke: #000000; stroke-width: 0.6"/>
    </defs>
    <g clip-path="url(#p843a9cc11d)">
     <use xlink:href="#maf2148cd1e" x="95.113448" y="45.162599" style="fill: #808080; stroke: #000000; stroke-width: 0.6"/>
     <use xlink:href="#maf2148cd1e" x="98.438288" y="58.833377" style="fill: #808080; stroke: #000000; stroke-width: 0.6"/>
     <use xlink:href="#maf2148cd1e" x="101.763128" y="72.507349" style="fill: #808080; stroke: #000000; stroke-width: 0.6"/>
     <use xlink:href="#maf2148cd1e" x="105.087968" y="86.087188" style="fill: #808080; stroke: #000000; stroke-width: 0.6"/>
     <use xlink:href="#maf2148cd1e" x="108.412808" y="99.466231" style="fill: #808080; stroke: #000000; stroke-width: 0.6"/>
     <use xlink:href="#maf2148cd1e" x="111.737647" y="112.537067" style="fill: #808080; stroke: #000000; stroke-width: 0.6"/>
     <use xlink:href="#maf2148cd1e" x="115.062487" y="125.201262" style="fill: #808080; stroke: #000000; stroke-width: 0.6"/>
     <use xlink:href="#maf2148cd1e" x="118.387327" y="137.377914" style="fill: #808080; stroke: #000000; stroke-width: 0.6"/>
     <use xlink:href="#maf2148cd1e" x="121.712167" y="149.009064" style="fill: #808080; stroke: #000000; stroke-width: 0.6"/>
     <use xlink:href="#maf2148cd1e" x="125.037007" y="160.061173" style="fill: #808080; stroke: #000000; stroke-width: 0.6"/>
     <use xlink:href="#maf2148cd1e" x="128.361847" y="170.52313" style="fill: #808080; stroke: #000000; stroke-width: 0.6"/>
     <use xlink:href="#maf2148cd1e" x="131.686687" y="171.22725" style="fill: #808080; stroke: #000000; stroke-width: 0.6"/>
     <use xlink:href="#maf2148cd1e" x="135.011527" y="169.090377" style="fill: #808080; stroke: #000000; stroke-width: 0.6"/>
     <use xlink:href="#maf2148cd1e" x="138.336367" y="167.214353" style="fill: #808080; stroke: #000000; stroke-width: 0.6"/>
     <use xlink:href="#maf2148cd1e" x="141.661207" y="165.58211" style="fill: #808080; stroke: #000000; stroke-width: 0.6"/>
     <use xlink:href="#maf2148cd1e" x="144.986046" y="164.175611" style="fill: #808080; stroke: #000000; stroke-width: 0.6"/>
     <use xlink:href="#maf2148cd1e" x="148.310886" y="162.976848" style="fill: #808080; stroke: #000000; stroke-width: 0.6"/>
     <use xlink:href="#maf2148cd1e" x="151.635726" y="161.96848" style="fill: #808080; stroke: #000000; stroke-width: 0.6"/>
     <use xlink:href="#maf2148cd1e" x="154.960566" y="161.134193" style="fill: #808080; stroke: #000000; stroke-width: 0.6"/>
     <use xlink:href="#maf2148cd1e" x="158.285406" y="160.458885" style="fill: #808080; stroke: #000000; stroke-width: 0.6"/>
     <use xlink:href="#maf2148cd1e" x="161.610246" y="159.928722" style="fill: #808080; stroke: #000000; stroke-width: 0.6"/>
     <use xlink:href="#maf2148cd1e" x="164.935086" y="159.531118" style="fill: #808080; stroke: #000000; stroke-width: 0.6"/>
     <use xlink:href="#maf2148cd1e" x="168.259926" y="159.254677" style="fill: #808080; stroke: #000000; stroke-width: 0.6"/>
     <use xlink:href="#maf2148cd1e" x="171.584766" y="159.089101" style="fill: #808080; stroke: #000000; stroke-width: 0.6"/>
     <use xlink:href="#maf2148cd1e" x="174.909606" y="159.025101" style="fill: #808080; stroke: #000000; stroke-width: 0.6"/>
     <use xlink:href="#maf2148cd1e" x="178.234446" y="159.054295" style="fill: #808080; stroke: #000000; stroke-width: 0.6"/>
     <use xlink:href="#maf2148cd1e" x="181.559285" y="159.169119" style="fill: #808080; stroke: #000000; stroke-width: 0.6"/>
     <use xlink:href="#maf2148cd1e" x="184.884125" y="159.362741" style="fill: #808080; stroke: #000000; stroke-width: 0.6"/>
     <use xlink:href="#maf2148cd1e" x="188.208965" y="159.628981" style="fill: #808080; stroke: #000000; stroke-width: 0.6"/>
     <use xlink:href="#maf2148cd1e" x="191.533805" y="159.962236" style="fill: #808080; stroke: #000000; stroke-width: 0.6"/>
     <use xlink:href="#maf2148cd1e" x="194.858645" y="160.357425" style="fill: #808080; stroke: #000000; stroke-width: 0.6"/>
     <use xlink:href="#maf2148cd1e" x="198.183485" y="160.809923" style="fill: #808080; stroke: #000000; stroke-width: 0.6"/>
     <use xlink:href="#maf2148cd1e" x="201.508325" y="161.315518" style="fill: #808080; stroke: #000000; stroke-width: 0.6"/>
     <use xlink:href="#maf2148cd1e" x="204.833165" y="161.870364" style="fill: #808080; stroke: #000000; stroke-width: 0.6"/>
     <use xlink:href="#maf2148cd1e" x="208.158005" y="162.470939" style="fill: #808080; stroke: #000000; stroke-width: 0.6"/>
     <use xlink:href="#maf2148cd1e" x="211.482845" y="163.114018" style="fill: #808080; stroke: #000000; stroke-width: 0.6"/>
     <use xlink:href="#maf2148cd1e" x="214.807685" y="163.796633" style="fill: #808080; stroke: #000000; stroke-width: 0.6"/>
     <use xlink:href="#maf2148cd1e" x="218.132524" y="164.516056" style="fill: #808080; stroke: #000000; stroke-width: 0.6"/>
     <use xlink:href="#maf2148cd1e" x="221.457364" y="165.269767" style="fill: #808080; stroke: #000000; stroke-width: 0.6"/>
     <use xlink:href="#maf2148cd1e" x="224.782204" y="166.05544" style="fill: #808080; stroke: #000000; stroke-width: 0.6"/>
     <use xlink:href="#maf2148cd1e" x="228.107044" y="166.870918" style="fill: #808080; stroke: #000000; stroke-width: 0.6"/>
     <use xlink:href="#maf2148cd1e" x="231.431884" y="167.714202" style="fill: #808080; stroke: #000000; stroke-width: 0.6"/>
     <use xlink:href="#maf2148cd1e" x="234.756724" y="168.583433" style="fill: #808080; stroke: #000000; stroke-width: 0.6"/>
     <use xlink:href="#maf2148cd1e" x="238.081564" y="169.476881" style="fill: #808080; stroke: #000000; stroke-width: 0.6"/>
     <use xlink:href="#maf2148cd1e" x="241.406404" y="170.392931" style="fill: #808080; stroke: #000000; stroke-width: 0.6"/>
     <use xlink:href="#maf2148cd1e" x="244.731244" y="171.330076" style="fill: #808080; stroke: #000000; stroke-width: 0.6"/>
     <use xlink:href="#maf2148cd1e" x="248.056084" y="172.286904" style="fill: #808080; stroke: #000000; stroke-width: 0.6"/>
     <use xlink:href="#maf2148cd1e" x="251.380923" y="173.262093" style="fill: #808080; stroke: #000000; stroke-width: 0.6"/>
     <use xlink:href="#maf2148cd1e" x="254.705763" y="174.254403" style="fill: #808080; stroke: #000000; stroke-width: 0.6"/>
     <use xlink:href="#maf2148cd1e" x="258.030603" y="175.262666" style="fill: #808080; stroke: #000000; stroke-width: 0.6"/>
     <use xlink:href="#maf2148cd1e" x="261.355443" y="176.285784" style="fill: #808080; stroke: #000000; stroke-width: 0.6"/>
     <use xlink:href="#maf2148cd1e" x="264.680283" y="177.322722" style="fill: #808080; stroke: #000000; stroke-width: 0.6"/>
     <use xlink:href="#maf2148cd1e" x="268.005123" y="178.372503" style="fill: #808080; stroke: #000000; stroke-width: 0.6"/>
     <use xlink:href="#maf2148cd1e" x="271.329963" y="179.434204" style="fill: #808080; stroke: #000000; stroke-width: 0.6"/>
     <use xlink:href="#maf2148cd1e" x="274.654803" y="180.506952" style="fill: #808080; stroke: #000000; stroke-width: 0.6"/>
     <use xlink:href="#maf2148cd1e" x="277.979643" y="181.589919" style="fill: #808080; stroke: #000000; stroke-width: 0.6"/>
     <use xlink:href="#maf2148cd1e" x="281.304483" y="182.68232" style="fill: #808080; stroke: #000000; stroke-width: 0.6"/>
     <use xlink:href="#maf2148cd1e" x="284.629323" y="183.78341" style="fill: #808080; stroke: #000000; stroke-width: 0.6"/>
     <use xlink:href="#maf2148cd1e" x="287.954162" y="184.892482" style="fill: #808080; stroke: #000000; stroke-width: 0.6"/>
     <use xlink:href="#maf2148cd1e" x="291.279002" y="186.008862" style="fill: #808080; stroke: #000000; stroke-width: 0.6"/>
     <use xlink:href="#maf2148cd1e" x="294.603842" y="187.131909" style="fill: #808080; stroke: #000000; stroke-width: 0.6"/>
     <use xlink:href="#maf2148cd1e" x="297.928682" y="188.261012" style="fill: #808080; stroke: #000000; stroke-width: 0.6"/>
     <use xlink:href="#maf2148cd1e" x="301.253522" y="189.395588" style="fill: #808080; stroke: #000000; stroke-width: 0.6"/>
     <use xlink:href="#maf2148cd1e" x="304.578362" y="190.535081" style="fill: #808080; stroke: #000000; stroke-width: 0.6"/>
     <use xlink:href="#maf2148cd1e" x="307.903202" y="191.678959" style="fill: #808080; stroke: #000000; stroke-width: 0.6"/>
     <use xlink:href="#maf2148cd1e" x="311.228042" y="192.826714" style="fill: #808080; stroke: #000000; stroke-width: 0.6"/>
     <use xlink:href="#maf2148cd1e" x="314.552882" y="193.977861" style="fill: #808080; stroke: #000000; stroke-width: 0.6"/>
     <use xlink:href="#maf2148cd1e" x="317.877722" y="195.131933" style="fill: #808080; stroke: #000000; stroke-width: 0.6"/>
     <use xlink:href="#maf2148cd1e" x="321.202562" y="196.288487" style="fill: #808080; stroke: #000000; stroke-width: 0.6"/>
     <use xlink:href="#maf2148cd1e" x="324.527401" y="197.447094" style="fill: #808080; stroke: #000000; stroke-width: 0.6"/>
     <use xlink:href="#maf2148cd1e" x="327.852241" y="198.607346" style="fill: #808080; stroke: #000000; stroke-width: 0.6"/>
     <use xlink:href="#maf2148cd1e" x="331.177081" y="199.768849" style="fill: #808080; stroke: #000000; stroke-width: 0.6"/>
     <use xlink:href="#maf2148cd1e" x="334.501921" y="200.931228" style="fill: #808080; stroke: #000000; stroke-width: 0.6"/>
     <use xlink:href="#maf2148cd1e" x="337.826761" y="202.094121" style="fill: #808080; stroke: #000000; stroke-width: 0.6"/>
     <use xlink:href="#maf2148cd1e" x="341.151601" y="203.257182" style="fill: #808080; stroke: #000000; stroke-width: 0.6"/>
     <use xlink:href="#maf2148cd1e" x="344.476441" y="204.420076" style="fill: #808080; stroke: #000000; stroke-width: 0.6"/>
     <use xlink:href="#maf2148cd1e" x="347.801281" y="205.582483" style="fill: #808080; stroke: #000000; stroke-width: 0.6"/>
     <use xlink:href="#maf2148cd1e" x="351.126121" y="206.744097" style="fill: #808080; stroke: #000000; stroke-width: 0.6"/>
     <use xlink:href="#maf2148cd1e" x="354.450961" y="207.904622" style="fill: #808080; stroke: #000000; stroke-width: 0.6"/>
     <use xlink:href="#maf2148cd1e" x="357.7758" y="209.063774" style="fill: #808080; stroke: #000000; stroke-width: 0.6"/>
     <use xlink:href="#maf2148cd1e" x="361.10064" y="210.22128" style="fill: #808080; stroke: #000000; stroke-width: 0.6"/>
    </g>
   </g>
   <g id="line2d_32">
    <path d="M 81.814088 96.261686 
L 374.4 96.261686 
" clip-path="url(#p843a9cc11d)" style="fill: none; stroke: #000000; stroke-linecap: square"/>
   </g>
   <g id="patch_3">
    <path d="M 81.814088 237.577187 
L 81.814088 36 
" style="fill: none; stroke: #000000; stroke-width: 0.8; stroke-linejoin: miter; stroke-linecap: square"/>
   </g>
   <g id="patch_4">
    <path d="M 374.4 237.577187 
L 374.4 36 
" style="fill: none; stroke: #000000; stroke-width: 0.8; stroke-linejoin: miter; stroke-linecap: square"/>
   </g>
   <g id="patch_5">
    <path d="M 81.814088 237.577187 
L 374.4 237.577187 
" style="fill: none; stroke: #000000; stroke-width: 0.8; stroke-linejoin: miter; stroke-linecap: square"/>
   </g>
   <g id="patch_6">
    <path d="M 81.814088 36 
L 374.4 36 
" style="fill: none; stroke: #000000; stroke-width: 0.8; stroke-linejoin: miter; stroke-linecap: square"/>
   </g>
   <g id="legend_1">
    <g id="line2d_33">
     <path d="M 262.841384 49.026706 
L 272.841384 49.026706 
L 282.841384 49.026706 
" style="fill: none; stroke-dasharray: 2.96,1.28; stroke-dashoffset: 0; stroke: #000000; stroke-width: 0.8"/>
     <g>
      <use xlink:href="#m381a47e734" x="272.841384" y="49.026706" style="stroke: #000000; stroke-width: 0.6; stroke-linejoin: miter"/>
     </g>
    </g>
    <g id="text_17">
     <!-- $L(\zeta) = l_{obs}$ -->
     <g transform="translate(290.841384 52.526706) scale(0.1 -0.1)">
      <defs>
       <path id="NimbusRomNo9L-ReguItal-4c" d="M 2579 4160 
L 832 4160 
L 832 4057 
C 1229 4019 1325 3968 1325 3783 
C 1325 3694 1299 3548 1254 3389 
L 467 574 
C 352 204 307 166 -51 102 
L -51 0 
L 3206 0 
L 3578 1141 
L 3450 1179 
C 3226 720 3053 516 2771 376 
C 2547 268 2285 230 1728 230 
C 1242 230 1082 281 1082 446 
C 1082 491 1114 644 1146 765 
L 1933 3586 
C 2029 3911 2195 4031 2579 4057 
L 2579 4160 
z
" transform="scale(0.015625)"/>
       <path id="CMR10-28" d="M 2118 -1536 
C 2118 -1517 2118 -1504 2010 -1396 
C 1210 -589 1005 620 1005 1600 
C 1005 2713 1248 3827 2035 4627 
C 2118 4704 2118 4716 2118 4736 
C 2118 4780 2093 4800 2054 4800 
C 1990 4800 1414 4365 1037 3552 
C 710 2848 634 2137 634 1600 
C 634 1100 704 326 1056 -397 
C 1440 -1184 1990 -1600 2054 -1600 
C 2093 -1600 2118 -1581 2118 -1536 
z
" transform="scale(0.015625)"/>
       <path id="StandardSymL-7a" d="M 1376 4851 
C 941 4819 653 4576 653 4237 
C 653 3987 800 3865 1222 3763 
C 621 2950 384 2316 384 1484 
C 384 857 525 505 896 217 
C 1107 51 1331 -26 1594 -26 
C 1632 -26 1677 -26 1741 -20 
C 2016 -13 2182 -7 2234 -7 
C 2534 -7 2720 -164 2720 -419 
C 2720 -668 2515 -896 2298 -896 
C 2266 -896 2227 -890 2189 -883 
C 1798 -779 1798 -779 1728 -779 
C 1530 -779 1370 -916 1370 -1082 
C 1370 -1287 1600 -1434 1926 -1434 
C 2547 -1434 2989 -961 2989 -288 
C 2989 313 2598 640 1882 640 
L 1747 640 
L 1670 640 
L 1594 633 
L 1472 640 
C 1011 640 704 1036 704 1632 
C 704 2400 1088 3283 1626 3763 
C 2253 3833 2778 4160 2778 4486 
C 2778 4601 2675 4691 2534 4691 
C 2304 4691 1952 4467 1376 3949 
C 1146 4019 1037 4141 1037 4326 
C 1037 4499 1152 4633 1376 4723 
L 1376 4851 
z
" transform="scale(0.015625)"/>
       <path id="CMR10-29" d="M 1850 1600 
C 1850 2099 1779 2873 1427 3597 
C 1043 4384 493 4800 429 4800 
C 390 4800 365 4774 365 4736 
C 365 4716 365 4704 486 4589 
C 1114 3955 1478 2937 1478 1600 
C 1478 505 1242 -621 448 -1428 
C 365 -1504 365 -1517 365 -1536 
C 365 -1575 390 -1600 429 -1600 
C 493 -1600 1069 -1165 1446 -352 
C 1773 352 1850 1062 1850 1600 
z
" transform="scale(0.015625)"/>
       <path id="CMR10-3d" d="M 4397 2111 
C 4493 2111 4614 2111 4614 2239 
C 4614 2368 4493 2368 4403 2368 
L 570 2368 
C 480 2368 358 2368 358 2239 
C 358 2111 480 2111 576 2111 
L 4397 2111 
z
M 4403 832 
C 4493 832 4614 832 4614 960 
C 4614 1088 4493 1088 4397 1088 
L 576 1088 
C 480 1088 358 1088 358 960 
C 358 832 480 832 570 832 
L 4403 832 
z
" transform="scale(0.015625)"/>
      </defs>
      <use xlink:href="#NimbusRomNo9L-ReguItal-4c" transform="scale(0.996264)"/>
      <use xlink:href="#CMR10-28" transform="translate(55.689525 0) scale(0.996264)"/>
      <use xlink:href="#StandardSymL-7a" transform="translate(94.343371 0) scale(0.996264)"/>
      <use xlink:href="#CMR10-29" transform="translate(156.110007 0) scale(0.996264)"/>
      <use xlink:href="#CMR10-3d" transform="translate(216.902999 0) scale(0.996264)"/>
      <use xlink:href="#NimbusRomNo9L-ReguItal-6c" transform="translate(316.450852 0) scale(0.996264)"/>
      <use xlink:href="#NimbusRomNo9L-ReguItal-6f" transform="translate(344.146022 -16.487732) scale(0.737241)"/>
      <use xlink:href="#NimbusRomNo9L-ReguItal-62" transform="translate(381.008064 -16.487732) scale(0.737241)"/>
      <use xlink:href="#NimbusRomNo9L-ReguItal-73" transform="translate(417.870106 -16.487732) scale(0.737241)"/>
     </g>
    </g>
    <g id="line2d_34">
     <path d="M 262.841384 64.044073 
L 272.841384 64.044073 
L 282.841384 64.044073 
" style="fill: none; stroke: #000000; stroke-width: 0.8; stroke-linecap: square"/>
     <g>
      <use xlink:href="#m8c425dbb5a" x="272.841384" y="64.044073" style="stroke: #000000; stroke-width: 0.6; stroke-linejoin: miter"/>
     </g>
    </g>
    <g id="text_18">
     <!-- $L(\zeta) = l_{obs} \zeta$ -->
     <g transform="translate(290.841384 67.544073) scale(0.1 -0.1)">
      <use xlink:href="#NimbusRomNo9L-ReguItal-4c" transform="scale(0.996264)"/>
      <use xlink:href="#CMR10-28" transform="translate(55.689525 0) scale(0.996264)"/>
      <use xlink:href="#StandardSymL-7a" transform="translate(94.343371 0) scale(0.996264)"/>
      <use xlink:href="#CMR10-29" transform="translate(156.110007 0) scale(0.996264)"/>
      <use xlink:href="#CMR10-3d" transform="translate(216.902999 0) scale(0.996264)"/>
      <use xlink:href="#NimbusRomNo9L-ReguItal-6c" transform="translate(316.450852 0) scale(0.996264)"/>
      <use xlink:href="#NimbusRomNo9L-ReguItal-6f" transform="translate(344.146022 -16.487732) scale(0.737241)"/>
      <use xlink:href="#NimbusRomNo9L-ReguItal-62" transform="translate(381.008064 -16.487732) scale(0.737241)"/>
      <use xlink:href="#NimbusRomNo9L-ReguItal-73" transform="translate(417.870106 -16.487732) scale(0.737241)"/>
      <use xlink:href="#StandardSymL-7a" transform="translate(447.046187 0) scale(0.996264)"/>
     </g>
    </g>
    <g id="line2d_35">
     <path d="M 262.841384 79.06144 
L 272.841384 79.06144 
L 282.841384 79.06144 
" style="fill: none; stroke-dasharray: 5.12,1.28,0.8,1.28; stroke-dashoffset: 0; stroke: #000000; stroke-width: 0.8"/>
     <g>
      <use xlink:href="#maf2148cd1e" x="272.841384" y="79.06144" style="fill: #808080; stroke: #000000; stroke-width: 0.6"/>
     </g>
    </g>
    <g id="text_19">
     <!-- $L(\zeta) = l_{obs} (1-\zeta)$ -->
     <g transform="translate(290.841384 82.56144) scale(0.1 -0.1)">
      <use xlink:href="#NimbusRomNo9L-ReguItal-4c" transform="scale(0.996264)"/>
      <use xlink:href="#CMR10-28" transform="translate(55.689525 0) scale(0.996264)"/>
      <use xlink:href="#StandardSymL-7a" transform="translate(94.343371 0) scale(0.996264)"/>
      <use xlink:href="#CMR10-29" transform="translate(156.110007 0) scale(0.996264)"/>
      <use xlink:href="#CMR10-3d" transform="translate(216.902999 0) scale(0.996264)"/>
      <use xlink:href="#NimbusRomNo9L-ReguItal-6c" transform="translate(316.450852 0) scale(0.996264)"/>
      <use xlink:href="#NimbusRomNo9L-ReguItal-6f" transform="translate(344.146022 -16.487732) scale(0.737241)"/>
      <use xlink:href="#NimbusRomNo9L-ReguItal-62" transform="translate(381.008064 -16.487732) scale(0.737241)"/>
      <use xlink:href="#NimbusRomNo9L-ReguItal-73" transform="translate(417.870106 -16.487732) scale(0.737241)"/>
      <use xlink:href="#CMR10-28" transform="translate(447.046187 0) scale(0.996264)"/>
      <use xlink:href="#NimbusRomNo9L-Regu-31" transform="translate(485.700033 0) scale(0.996264)"/>
      <use xlink:href="#CMSY10-0" transform="translate(549.3502 0) scale(0.996264)"/>
      <use xlink:href="#StandardSymL-7a" transform="translate(640.595873 0) scale(0.996264)"/>
      <use xlink:href="#CMR10-29" transform="translate(702.362509 0) scale(0.996264)"/>
     </g>
    </g>
   </g>
  </g>
 </g>
 <defs>
  <clipPath id="p843a9cc11d">
   <rect x="81.814088" y="36" width="292.585912" height="201.577187"/>
  </clipPath>
 </defs>
</svg>
