<?xml version="1.0" encoding="utf-8" standalone="no"?>
<!DOCTYPE svg PUBLIC "-//W3C//DTD SVG 1.1//EN"
  "http://www.w3.org/Graphics/SVG/1.1/DTD/svg11.dtd">
<svg xmlns:xlink="http://www.w3.org/1999/xlink" width="541.44pt" height="397.44pt" viewBox="0 0 541.44 397.44" xmlns="http://www.w3.org/2000/svg" version="1.1">
 <metadata>
  <rdf:RDF xmlns:dc="http://purl.org/dc/elements/1.1/" xmlns:cc="http://creativecommons.org/ns#" xmlns:rdf="http://www.w3.org/1999/02/22-rdf-syntax-ns#">
   <cc:Work>
    <dc:type rdf:resource="http://purl.org/dc/dcmitype/StillImage"/>
    <dc:date>2024-11-06T12:17:21.525069</dc:date>
    <dc:format>image/svg+xml</dc:format>
    <dc:creator>
     <cc:Agent>
      <dc:title>Matplotlib v3.9.2, https://matplotlib.org/</dc:title>
     </cc:Agent>
    </dc:creator>
   </cc:Work>
  </rdf:RDF>
 </metadata>
 <defs>
  <style type="text/css">*{stroke-linejoin: round; stroke-linecap: butt}</style>
 </defs>
 <g id="figure_1">
  <g id="patch_1">
   <path d="M 0 397.44 
L 541.44 397.44 
L 541.44 0 
L 0 0 
z
" style="fill: #ffffff"/>
  </g>
  <g id="axes_1">
   <g id="patch_2">
    <path d="M 94.732441 321.923493 
L 505.44 321.923493 
L 505.44 36 
L 94.732441 36 
z
" style="fill: #ffffff"/>
   </g>
   <g id="matplotlib.axis_1">
    <g id="xtick_1">
     <g id="line2d_1">
      <path d="M 113.400967 321.923493 
L 113.400967 36 
" clip-path="url(#pe7ba53d257)" style="fill: none; stroke-dasharray: 0.9,1.485; stroke-dashoffset: 0; stroke: #b0b0b0; stroke-width: 0.9"/>
     </g>
     <g id="line2d_2">
      <defs>
       <path id="m6c393b4c2b" d="M 0 0 
L 0 3.5 
" style="stroke: #000000; stroke-width: 0.8"/>
      </defs>
      <g>
       <use xlink:href="#m6c393b4c2b" x="113.400967" y="321.923493" style="stroke: #000000; stroke-width: 0.8"/>
      </g>
     </g>
     <g id="text_1">
      <!-- $\mathdefault{0}$ -->
      <g transform="translate(109.415911 339.73082) scale(0.16 -0.16)">
       <defs>
        <path id="NimbusRomNo9L-Regu-30" d="M 1626 4352 
C 1274 4352 1005 4243 768 4019 
C 397 3661 154 2924 154 2176 
C 154 1478 365 729 666 371 
C 902 89 1229 -64 1600 -64 
C 1926 -64 2202 44 2432 268 
C 2803 620 3046 1363 3046 2137 
C 3046 3449 2464 4352 1626 4352 
z
M 1606 4185 
C 2144 4185 2432 3462 2432 2124 
C 2432 787 2150 102 1600 102 
C 1050 102 768 787 768 2118 
C 768 3475 1056 4185 1606 4185 
z
" transform="scale(0.015625)"/>
       </defs>
       <use xlink:href="#NimbusRomNo9L-Regu-30" transform="scale(0.996264)"/>
      </g>
     </g>
    </g>
    <g id="xtick_2">
     <g id="line2d_3">
      <path d="M 188.075068 321.923493 
L 188.075068 36 
" clip-path="url(#pe7ba53d257)" style="fill: none; stroke-dasharray: 0.9,1.485; stroke-dashoffset: 0; stroke: #b0b0b0; stroke-width: 0.9"/>
     </g>
     <g id="line2d_4">
      <g>
       <use xlink:href="#m6c393b4c2b" x="188.075068" y="321.923493" style="stroke: #000000; stroke-width: 0.8"/>
      </g>
     </g>
     <g id="text_2">
      <!-- $\mathdefault{2}$ -->
      <g transform="translate(184.090012 339.73082) scale(0.16 -0.16)">
       <defs>
        <path id="NimbusRomNo9L-Regu-32" d="M 3040 879 
L 2957 912 
C 2720 544 2637 486 2349 486 
L 819 486 
L 1894 1621 
C 2464 2221 2714 2711 2714 3214 
C 2714 3858 2195 4352 1530 4352 
C 1178 4352 845 4211 608 3955 
C 403 3736 307 3530 198 3072 
L 333 3039 
C 589 3671 819 3878 1261 3878 
C 1798 3878 2163 3510 2163 2969 
C 2163 2466 1869 1866 1331 1292 
L 192 76 
L 192 0 
L 2688 0 
L 3040 879 
z
" transform="scale(0.015625)"/>
       </defs>
       <use xlink:href="#NimbusRomNo9L-Regu-32" transform="scale(0.996264)"/>
      </g>
     </g>
    </g>
    <g id="xtick_3">
     <g id="line2d_5">
      <path d="M 262.74917 321.923493 
L 262.74917 36 
" clip-path="url(#pe7ba53d257)" style="fill: none; stroke-dasharray: 0.9,1.485; stroke-dashoffset: 0; stroke: #b0b0b0; stroke-width: 0.9"/>
     </g>
     <g id="line2d_6">
      <g>
       <use xlink:href="#m6c393b4c2b" x="262.74917" y="321.923493" style="stroke: #000000; stroke-width: 0.8"/>
      </g>
     </g>
     <g id="text_3">
      <!-- $\mathdefault{4}$ -->
      <g transform="translate(258.764114 339.73082) scale(0.16 -0.16)">
       <defs>
        <path id="NimbusRomNo9L-Regu-34" d="M 3021 1497 
L 2368 1497 
L 2368 4352 
L 2086 4352 
L 77 1497 
L 77 1088 
L 1875 1088 
L 1875 0 
L 2368 0 
L 2368 1088 
L 3021 1088 
L 3021 1497 
z
M 1869 1497 
L 333 1497 
L 1869 3697 
L 1869 1497 
z
" transform="scale(0.015625)"/>
       </defs>
       <use xlink:href="#NimbusRomNo9L-Regu-34" transform="scale(0.996264)"/>
      </g>
     </g>
    </g>
    <g id="xtick_4">
     <g id="line2d_7">
      <path d="M 337.423271 321.923493 
L 337.423271 36 
" clip-path="url(#pe7ba53d257)" style="fill: none; stroke-dasharray: 0.9,1.485; stroke-dashoffset: 0; stroke: #b0b0b0; stroke-width: 0.9"/>
     </g>
     <g id="line2d_8">
      <g>
       <use xlink:href="#m6c393b4c2b" x="337.423271" y="321.923493" style="stroke: #000000; stroke-width: 0.8"/>
      </g>
     </g>
     <g id="text_4">
      <!-- $\mathdefault{6}$ -->
      <g transform="translate(333.438215 339.73082) scale(0.16 -0.16)">
       <defs>
        <path id="NimbusRomNo9L-Regu-36" d="M 2854 4390 
C 2125 4326 1754 4204 1286 3878 
C 595 3385 218 2655 218 1801 
C 218 1248 390 688 666 369 
C 909 89 1254 -64 1651 -64 
C 2445 -64 2995 541 2995 1420 
C 2995 2234 2528 2752 1792 2752 
C 1510 2752 1376 2707 973 2463 
C 1146 3430 1862 4121 2867 4288 
L 2854 4390 
z
M 1549 2457 
C 2099 2457 2419 1999 2419 1203 
C 2419 503 2170 115 1722 115 
C 1158 115 813 713 813 1700 
C 813 2024 864 2203 992 2298 
C 1126 2400 1325 2457 1549 2457 
z
" transform="scale(0.015625)"/>
       </defs>
       <use xlink:href="#NimbusRomNo9L-Regu-36" transform="scale(0.996264)"/>
      </g>
     </g>
    </g>
    <g id="xtick_5">
     <g id="line2d_9">
      <path d="M 412.097373 321.923493 
L 412.097373 36 
" clip-path="url(#pe7ba53d257)" style="fill: none; stroke-dasharray: 0.9,1.485; stroke-dashoffset: 0; stroke: #b0b0b0; stroke-width: 0.9"/>
     </g>
     <g id="line2d_10">
      <g>
       <use xlink:href="#m6c393b4c2b" x="412.097373" y="321.923493" style="stroke: #000000; stroke-width: 0.8"/>
      </g>
     </g>
     <g id="text_5">
      <!-- $\mathdefault{8}$ -->
      <g transform="translate(408.112317 339.73082) scale(0.16 -0.16)">
       <defs>
        <path id="NimbusRomNo9L-Regu-38" d="M 1856 2400 
C 2490 2739 2714 3008 2714 3443 
C 2714 3968 2253 4352 1613 4352 
C 915 4352 397 3923 397 3341 
C 397 2924 518 2739 1190 2150 
C 499 1625 358 1427 358 992 
C 358 371 864 -64 1587 -64 
C 2355 -64 2848 358 2848 1017 
C 2848 1510 2630 1824 1856 2400 
z
M 1741 1740 
C 2208 1408 2362 1177 2362 819 
C 2362 403 2074 115 1658 115 
C 1171 115 845 486 845 1043 
C 845 1452 986 1721 1357 2022 
L 1741 1740 
z
M 1670 2515 
C 1101 2886 870 3180 870 3539 
C 870 3910 1158 4172 1562 4172 
C 1997 4172 2272 3891 2272 3449 
C 2272 3084 2093 2796 1728 2553 
C 1696 2534 1696 2534 1670 2515 
z
" transform="scale(0.015625)"/>
       </defs>
       <use xlink:href="#NimbusRomNo9L-Regu-38" transform="scale(0.996264)"/>
      </g>
     </g>
    </g>
    <g id="xtick_6">
     <g id="line2d_11">
      <path d="M 486.771475 321.923493 
L 486.771475 36 
" clip-path="url(#pe7ba53d257)" style="fill: none; stroke-dasharray: 0.9,1.485; stroke-dashoffset: 0; stroke: #b0b0b0; stroke-width: 0.9"/>
     </g>
     <g id="line2d_12">
      <g>
       <use xlink:href="#m6c393b4c2b" x="486.771475" y="321.923493" style="stroke: #000000; stroke-width: 0.8"/>
      </g>
     </g>
     <g id="text_6">
      <!-- $\mathdefault{10}$ -->
      <g transform="translate(478.801363 339.73082) scale(0.16 -0.16)">
       <defs>
        <path id="NimbusRomNo9L-Regu-31" d="M 1862 4352 
L 710 3776 
L 710 3686 
C 787 3718 858 3743 883 3756 
C 998 3801 1107 3826 1171 3826 
C 1306 3826 1363 3731 1363 3525 
L 1363 599 
C 1363 386 1312 238 1210 179 
C 1114 121 1024 102 755 96 
L 755 0 
L 2522 0 
L 2522 96 
C 2016 102 1914 167 1914 477 
L 1914 4339 
L 1862 4352 
z
" transform="scale(0.015625)"/>
       </defs>
       <use xlink:href="#NimbusRomNo9L-Regu-31" transform="scale(0.996264)"/>
       <use xlink:href="#NimbusRomNo9L-Regu-30" transform="translate(49.8132 0) scale(0.996264)"/>
      </g>
     </g>
    </g>
    <g id="text_7">
     <!-- Observer gain coefficient, $l_{obs}$ -->
     <g transform="translate(205.490796 357.989074) scale(0.16 -0.16)">
      <defs>
       <path id="NimbusRomNo9L-Regu-4f" d="M 2310 4352 
C 1088 4352 218 3430 218 2144 
C 218 1542 422 960 768 588 
C 1139 185 1709 -64 2272 -64 
C 3533 -64 4403 832 4403 2118 
C 4403 2752 4218 3296 3866 3680 
C 3462 4121 2925 4352 2310 4352 
z
M 2310 4121 
C 2605 4121 2899 4006 3130 3801 
C 3475 3488 3674 2886 3674 2124 
C 3674 1747 3590 1305 3462 972 
C 3405 812 3296 652 3149 505 
C 2925 281 2637 166 2298 166 
C 2003 166 1715 281 1491 480 
C 1158 774 947 1420 947 2131 
C 947 2784 1126 3405 1395 3705 
C 1645 3981 1958 4121 2310 4121 
z
" transform="scale(0.015625)"/>
       <path id="NimbusRomNo9L-Regu-62" d="M 979 4358 
L 947 4371 
C 678 4275 506 4224 205 4140 
L 19 4089 
L 19 3987 
C 58 3993 83 3993 128 3993 
C 384 3993 442 3936 442 3667 
L 442 345 
C 442 147 986 -64 1498 -64 
C 2342 -64 2995 639 2995 1555 
C 2995 2342 2509 2944 1869 2944 
C 1478 2944 1107 2713 979 2399 
L 979 4358 
z
M 979 2060 
C 979 2310 1280 2540 1613 2540 
C 2112 2540 2432 2041 2432 1260 
C 2432 550 2125 140 1600 140 
C 1267 140 979 287 979 447 
L 979 2060 
z
" transform="scale(0.015625)"/>
       <path id="NimbusRomNo9L-Regu-73" d="M 2016 2009 
L 1990 2880 
L 1920 2880 
L 1907 2867 
C 1850 2822 1843 2815 1818 2815 
C 1779 2815 1715 2828 1645 2860 
C 1504 2918 1363 2944 1197 2944 
C 691 2944 326 2617 326 2155 
C 326 1796 531 1539 1075 1231 
L 1446 1019 
C 1670 891 1779 737 1779 538 
C 1779 256 1574 76 1248 76 
C 1030 76 832 160 710 301 
C 576 461 518 609 435 974 
L 333 974 
L 333 -26 
L 416 -26 
C 461 38 486 51 563 51 
C 621 51 710 38 858 0 
C 1037 -39 1210 -64 1325 -64 
C 1818 -64 2227 307 2227 756 
C 2227 1077 2074 1289 1690 1520 
L 998 1930 
C 819 2033 723 2193 723 2366 
C 723 2623 922 2803 1216 2803 
C 1581 2803 1773 2585 1920 2014 
L 2016 2009 
z
" transform="scale(0.015625)"/>
       <path id="NimbusRomNo9L-Regu-65" d="M 2611 1052 
C 2304 564 2029 377 1619 377 
C 1254 377 979 564 794 930 
C 678 1174 634 1386 621 1779 
L 2592 1779 
C 2541 2193 2477 2377 2317 2580 
C 2125 2809 1830 2944 1498 2944 
C 1178 2944 877 2828 634 2612 
C 333 2351 160 1900 160 1374 
C 160 486 621 -64 1357 -64 
C 1965 -64 2445 313 2714 1007 
L 2611 1052 
z
M 634 1984 
C 704 2478 922 2713 1312 2713 
C 1702 2713 1856 2535 1939 1984 
L 634 1984 
z
" transform="scale(0.015625)"/>
       <path id="NimbusRomNo9L-Regu-72" d="M 45 2496 
C 134 2515 192 2521 269 2521 
C 429 2521 486 2419 486 2137 
L 486 537 
C 486 217 442 172 32 96 
L 32 0 
L 1568 0 
L 1568 96 
C 1133 115 1024 211 1024 576 
L 1024 2016 
C 1024 2220 1299 2540 1472 2540 
C 1510 2540 1568 2508 1638 2444 
C 1741 2355 1811 2316 1894 2316 
C 2048 2316 2144 2425 2144 2604 
C 2144 2815 2010 2944 1792 2944 
C 1523 2944 1338 2796 1024 2342 
L 1024 2931 
L 992 2944 
C 653 2803 422 2720 45 2598 
L 45 2496 
z
" transform="scale(0.015625)"/>
       <path id="NimbusRomNo9L-Regu-76" d="M 3053 2880 
L 2163 2880 
L 2163 2783 
C 2368 2764 2464 2701 2464 2580 
C 2464 2517 2451 2454 2426 2390 
L 1792 748 
L 1139 2371 
C 1101 2460 1082 2549 1082 2606 
C 1082 2720 1152 2764 1376 2783 
L 1376 2880 
L 122 2880 
L 122 2783 
C 365 2771 410 2707 704 2054 
L 1472 235 
C 1485 197 1504 152 1523 102 
C 1562 -13 1600 -64 1638 -64 
C 1677 -64 1722 19 1818 254 
L 2637 2289 
C 2822 2720 2861 2764 3053 2783 
L 3053 2880 
z
" transform="scale(0.015625)"/>
       <path id="NimbusRomNo9L-Regu-67" d="M 3008 2438 
L 3008 2688 
L 2515 2688 
C 2387 2688 2291 2734 2163 2796 
L 2022 2847 
C 1850 2911 1677 2944 1510 2944 
C 915 2944 442 2438 442 1877 
C 442 1489 614 1255 1037 1049 
C 915 934 800 826 762 794 
C 550 610 467 483 467 356 
C 467 223 544 147 806 19 
C 352 -316 179 -529 179 -767 
C 179 -1108 678 -1389 1286 -1389 
C 1766 -1389 2266 -1223 2598 -954 
C 2842 -754 2950 -548 2950 -303 
C 2950 96 2650 363 2176 382 
L 1350 420 
C 1011 432 851 490 851 591 
C 851 718 1062 941 1235 992 
C 1293 985 1338 979 1357 979 
C 1478 966 1562 960 1600 960 
C 1837 960 2093 1056 2291 1224 
C 2502 1397 2598 1612 2598 1920 
C 2598 2099 2566 2241 2477 2438 
L 3008 2438 
z
M 941 0 
C 1152 -46 1664 -84 1978 -84 
C 2560 -84 2771 -168 2771 -400 
C 2771 -773 2285 -1024 1562 -1024 
C 998 -1024 627 -838 627 -554 
C 627 -406 672 -322 941 0 
z
M 973 2130 
C 973 2495 1152 2764 1446 2764 
C 1645 2764 1811 2611 1914 2419 
C 2029 2204 2106 1920 2106 1680 
C 2106 1335 1920 1120 1626 1120 
C 1242 1120 973 1520 973 2111 
L 973 2130 
z
" transform="scale(0.015625)"/>
       <path id="NimbusRomNo9L-Regu-61" d="M 2829 422 
C 2720 332 2643 300 2547 300 
C 2400 300 2355 390 2355 672 
L 2355 1920 
C 2355 2252 2323 2438 2227 2592 
C 2086 2822 1811 2944 1434 2944 
C 832 2944 358 2630 358 2227 
C 358 2080 486 1952 634 1952 
C 787 1952 922 2080 922 2220 
C 922 2246 915 2278 909 2323 
C 896 2380 890 2432 890 2476 
C 890 2649 1094 2790 1350 2790 
C 1664 2790 1837 2604 1837 2259 
L 1837 1868 
C 851 1472 742 1420 467 1177 
C 326 1049 237 832 237 620 
C 237 217 518 -64 909 -64 
C 1190 -64 1453 70 1843 403 
C 1875 70 1990 -64 2253 -64 
C 2470 -64 2605 12 2829 256 
L 2829 422 
z
M 1837 787 
C 1837 588 1805 531 1670 454 
C 1517 364 1338 307 1203 307 
C 979 307 800 524 800 800 
L 800 825 
C 800 1203 1062 1433 1837 1715 
L 1837 787 
z
" transform="scale(0.015625)"/>
       <path id="NimbusRomNo9L-Regu-69" d="M 1120 2944 
L 128 2592 
L 128 2496 
L 179 2502 
C 256 2515 339 2521 397 2521 
C 550 2521 608 2419 608 2137 
L 608 652 
C 608 192 544 121 102 96 
L 102 0 
L 1619 0 
L 1619 96 
C 1197 128 1146 192 1146 652 
L 1146 2924 
L 1120 2944 
z
M 819 4352 
C 646 4352 499 4204 499 4025 
C 499 3846 640 3699 819 3699 
C 1005 3699 1152 3839 1152 4025 
C 1152 4204 1005 4352 819 4352 
z
" transform="scale(0.015625)"/>
       <path id="NimbusRomNo9L-Regu-6e" d="M 102 2547 
C 141 2566 205 2572 275 2572 
C 454 2572 512 2476 512 2163 
L 512 576 
C 512 211 442 121 115 96 
L 115 0 
L 1472 0 
L 1472 96 
C 1146 121 1050 198 1050 428 
L 1050 2227 
C 1357 2515 1498 2591 1709 2591 
C 2022 2591 2176 2393 2176 1971 
L 2176 633 
C 2176 230 2093 121 1773 96 
L 1773 0 
L 3104 0 
L 3104 96 
C 2790 128 2714 204 2714 518 
L 2714 1984 
C 2714 2585 2432 2944 1958 2944 
C 1664 2944 1466 2835 1030 2425 
L 1030 2931 
L 986 2944 
C 672 2828 454 2758 102 2655 
L 102 2547 
z
" transform="scale(0.015625)"/>
       <path id="NimbusRomNo9L-Regu-63" d="M 2547 998 
C 2240 550 2010 396 1645 396 
C 1062 396 653 908 653 1644 
C 653 2303 1005 2758 1523 2758 
C 1754 2758 1837 2687 1901 2451 
L 1939 2310 
C 1990 2131 2106 2015 2240 2015 
C 2406 2015 2547 2137 2547 2284 
C 2547 2643 2099 2944 1562 2944 
C 1248 2944 922 2815 659 2585 
C 339 2303 160 1868 160 1363 
C 160 531 666 -64 1376 -64 
C 1664 -64 1920 38 2150 236 
C 2323 390 2445 563 2637 940 
L 2547 998 
z
" transform="scale(0.015625)"/>
       <path id="NimbusRomNo9L-Regu-6f" d="M 1600 2944 
C 768 2944 186 2329 186 1446 
C 186 582 781 -64 1587 -64 
C 2394 -64 3008 614 3008 1497 
C 3008 2336 2419 2944 1600 2944 
z
M 1517 2764 
C 2054 2764 2432 2150 2432 1273 
C 2432 550 2144 115 1664 115 
C 1414 115 1178 268 1043 524 
C 864 857 762 1305 762 1760 
C 762 2368 1062 2764 1517 2764 
z
" transform="scale(0.015625)"/>
       <path id="NimbusRomNo9L-Regu-66" d="M 1978 2880 
L 1190 2880 
L 1190 3611 
C 1190 3977 1312 4172 1555 4172 
C 1690 4172 1779 4109 1894 3926 
C 1997 3762 2074 3699 2182 3699 
C 2330 3699 2451 3813 2451 3958 
C 2451 4185 2170 4352 1786 4352 
C 1389 4352 1050 4179 883 3889 
C 717 3611 666 3384 659 2880 
L 134 2880 
L 134 2675 
L 659 2675 
L 659 665 
C 659 198 589 121 128 96 
L 128 0 
L 1792 0 
L 1792 96 
C 1267 115 1197 185 1197 665 
L 1197 2675 
L 1978 2675 
L 1978 2880 
z
" transform="scale(0.015625)"/>
       <path id="NimbusRomNo9L-Regu-2" d="M 198 2668 
L 634 2668 
L 634 601 
C 634 192 563 108 205 96 
L 205 0 
L 1613 0 
L 1613 96 
C 1254 121 1171 211 1171 563 
L 1171 2668 
L 1722 2668 
C 2336 2668 2368 2649 2368 2310 
L 2368 620 
C 2368 185 2323 128 1926 96 
L 1926 0 
L 3334 0 
L 3334 96 
C 2976 128 2906 211 2906 620 
L 2906 2297 
C 2906 2438 2906 2585 2918 2924 
L 2893 2944 
C 2611 2898 2426 2880 2170 2880 
L 1165 2880 
L 1165 3151 
C 1165 3428 1184 3624 1216 3731 
C 1306 4002 1555 4191 1843 4191 
C 2022 4191 2144 4109 2298 3895 
C 2419 3725 2502 3662 2611 3662 
C 2746 3662 2842 3769 2842 3908 
C 2842 4173 2522 4352 2029 4352 
C 1542 4352 1171 4185 941 3876 
C 749 3617 678 3384 640 2880 
L 198 2880 
L 198 2668 
z
" transform="scale(0.015625)"/>
       <path id="NimbusRomNo9L-Regu-74" d="M 1632 2880 
L 986 2880 
L 986 3622 
C 986 3686 979 3705 941 3705 
C 896 3648 858 3590 813 3526 
C 570 3174 294 2867 192 2841 
C 122 2796 83 2751 83 2719 
C 83 2700 90 2687 109 2675 
L 448 2675 
L 448 748 
C 448 211 640 -64 1018 -64 
C 1331 -64 1574 89 1786 422 
L 1702 492 
C 1568 332 1459 268 1318 268 
C 1082 268 986 441 986 844 
L 986 2675 
L 1632 2675 
L 1632 2880 
z
" transform="scale(0.015625)"/>
       <path id="NimbusRomNo9L-Regu-2c" d="M 531 -890 
C 960 -679 1248 -289 1248 96 
C 1248 416 1024 665 736 665 
C 512 665 358 518 358 300 
C 358 57 506 -64 736 -64 
C 774 -64 819 -58 858 -52 
C 902 0 902 0 909 0 
C 960 0 998 -39 998 -90 
C 998 -295 819 -532 474 -769 
L 531 -890 
z
" transform="scale(0.015625)"/>
       <path id="NimbusRomNo9L-ReguItal-6c" d="M 1459 793 
C 1402 723 1344 652 1286 576 
C 1082 307 960 211 845 211 
C 781 211 749 256 749 326 
C 749 371 768 448 800 576 
C 806 595 813 627 819 640 
L 1786 4345 
L 1754 4377 
C 1376 4294 1133 4249 755 4205 
L 755 4102 
C 1062 4102 1190 4057 1190 3955 
C 1190 3936 1184 3897 1165 3840 
L 288 460 
C 269 390 256 326 256 294 
C 256 64 365 -64 570 -64 
C 902 -64 1126 121 1542 736 
L 1459 793 
z
" transform="scale(0.015625)"/>
       <path id="NimbusRomNo9L-ReguItal-6f" d="M 2080 2816 
C 1120 2816 173 1828 173 828 
C 173 280 531 -64 1114 -64 
C 1536 -64 1946 127 2317 490 
C 2739 904 2995 1446 2995 1923 
C 2995 2452 2624 2816 2080 2816 
z
M 2003 2681 
C 2278 2681 2458 2446 2458 2083 
C 2458 1618 2246 981 1965 567 
C 1728 229 1485 70 1210 70 
C 909 70 710 299 710 650 
C 710 1121 896 1681 1210 2134 
C 1459 2490 1728 2681 2003 2681 
z
" transform="scale(0.015625)"/>
       <path id="NimbusRomNo9L-ReguItal-62" d="M 704 4108 
C 1082 4096 1120 4076 1120 3936 
C 1120 3878 1101 3801 1062 3660 
C 1050 3616 1037 3571 1030 3539 
L 1018 3494 
L 147 299 
L 147 274 
C 147 127 640 -64 998 -64 
C 1965 -64 3027 1050 3027 2050 
C 3027 2496 2714 2816 2285 2816 
C 1837 2816 1504 2553 1050 1853 
C 1382 3065 1427 3238 1715 4332 
L 1683 4364 
C 1363 4307 1133 4268 704 4217 
L 704 4108 
z
M 2035 2502 
C 2310 2502 2483 2292 2483 1954 
C 2483 1534 2157 853 1779 458 
C 1542 216 1267 83 992 83 
C 794 83 698 153 698 299 
C 698 681 890 1299 1158 1770 
C 1440 2260 1728 2502 2035 2502 
z
" transform="scale(0.015625)"/>
       <path id="NimbusRomNo9L-ReguItal-73" d="M 230 953 
L 102 -64 
L 205 -64 
C 256 38 294 70 358 70 
C 429 70 544 44 672 12 
C 813 -45 922 -64 1024 -64 
C 1562 -64 1946 280 1946 764 
C 1946 1006 1811 1286 1510 1656 
C 1267 1955 1165 2152 1165 2324 
C 1165 2534 1299 2668 1523 2668 
C 1856 2668 2048 2432 2112 1936 
L 2214 1936 
L 2342 2816 
L 2253 2816 
C 2202 2726 2150 2700 2061 2700 
C 2016 2700 1952 2713 1830 2745 
C 1670 2803 1574 2816 1472 2816 
C 1005 2816 698 2541 698 2114 
C 698 1910 832 1636 1101 1293 
C 1350 968 1459 745 1459 560 
C 1459 274 1267 70 986 70 
C 634 70 435 331 333 936 
L 230 953 
z
" transform="scale(0.015625)"/>
      </defs>
      <use xlink:href="#NimbusRomNo9L-Regu-4f" transform="scale(0.996264)"/>
      <use xlink:href="#NimbusRomNo9L-Regu-62" transform="translate(71.929985 0) scale(0.996264)"/>
      <use xlink:href="#NimbusRomNo9L-Regu-73" transform="translate(121.743185 0) scale(0.996264)"/>
      <use xlink:href="#NimbusRomNo9L-Regu-65" transform="translate(160.496892 0) scale(0.996264)"/>
      <use xlink:href="#NimbusRomNo9L-Regu-72" transform="translate(204.73046 0) scale(0.996264)"/>
      <use xlink:href="#NimbusRomNo9L-Regu-76" transform="translate(237.90569 0) scale(0.996264)"/>
      <use xlink:href="#NimbusRomNo9L-Regu-65" transform="translate(286.225498 0) scale(0.996264)"/>
      <use xlink:href="#NimbusRomNo9L-Regu-72" transform="translate(330.459066 0) scale(0.996264)"/>
      <use xlink:href="#NimbusRomNo9L-Regu-67" transform="translate(388.540896 0) scale(0.996264)"/>
      <use xlink:href="#NimbusRomNo9L-Regu-61" transform="translate(437.856619 0) scale(0.996264)"/>
      <use xlink:href="#NimbusRomNo9L-Regu-69" transform="translate(482.090187 0) scale(0.996264)"/>
      <use xlink:href="#NimbusRomNo9L-Regu-6e" transform="translate(509.785357 0) scale(0.996264)"/>
      <use xlink:href="#NimbusRomNo9L-Regu-63" transform="translate(584.505158 0) scale(0.996264)"/>
      <use xlink:href="#NimbusRomNo9L-Regu-6f" transform="translate(628.738726 0) scale(0.996264)"/>
      <use xlink:href="#NimbusRomNo9L-Regu-65" transform="translate(678.551927 0) scale(0.996264)"/>
      <use xlink:href="#NimbusRomNo9L-Regu-66" transform="translate(722.785496 0) scale(0.996264)"/>
      <use xlink:href="#NimbusRomNo9L-Regu-2" transform="translate(753.470096 0) scale(0.996264)"/>
      <use xlink:href="#NimbusRomNo9L-Regu-63" transform="translate(808.861681 0) scale(0.996264)"/>
      <use xlink:href="#NimbusRomNo9L-Regu-69" transform="translate(853.09525 0) scale(0.996264)"/>
      <use xlink:href="#NimbusRomNo9L-Regu-65" transform="translate(880.79042 0) scale(0.996264)"/>
      <use xlink:href="#NimbusRomNo9L-Regu-6e" transform="translate(925.023988 0) scale(0.996264)"/>
      <use xlink:href="#NimbusRomNo9L-Regu-74" transform="translate(974.837189 0) scale(0.996264)"/>
      <use xlink:href="#NimbusRomNo9L-Regu-2c" transform="translate(1002.532359 0) scale(0.996264)"/>
      <use xlink:href="#NimbusRomNo9L-ReguItal-6c" transform="translate(1052.345559 0) scale(0.996264)"/>
      <use xlink:href="#NimbusRomNo9L-ReguItal-6f" transform="translate(1080.040729 -16.487732) scale(0.737241)"/>
      <use xlink:href="#NimbusRomNo9L-ReguItal-62" transform="translate(1116.902771 -16.487732) scale(0.737241)"/>
      <use xlink:href="#NimbusRomNo9L-ReguItal-73" transform="translate(1153.764813 -16.487732) scale(0.737241)"/>
     </g>
    </g>
   </g>
   <g id="matplotlib.axis_2">
    <g id="ytick_1">
     <g id="line2d_13">
      <path d="M 94.732441 261.27391 
L 505.44 261.27391 
" clip-path="url(#pe7ba53d257)" style="fill: none; stroke-dasharray: 0.9,1.485; stroke-dashoffset: 0; stroke: #b0b0b0; stroke-width: 0.9"/>
     </g>
     <g id="line2d_14">
      <defs>
       <path id="mdc7831f60e" d="M 0 0 
L -3.5 0 
" style="stroke: #000000; stroke-width: 0.8"/>
      </defs>
      <g>
       <use xlink:href="#mdc7831f60e" x="94.732441" y="261.27391" style="stroke: #000000; stroke-width: 0.8"/>
      </g>
     </g>
     <g id="text_8">
      <!-- $\mathdefault{−1.0}$ -->
      <g transform="translate(54.991542 266.677573) scale(0.16 -0.16)">
       <defs>
        <path id="CMSY10-0" d="M 4218 1472 
C 4326 1472 4442 1472 4442 1600 
C 4442 1728 4326 1728 4218 1728 
L 755 1728 
C 646 1728 531 1728 531 1600 
C 531 1472 646 1472 755 1472 
L 4218 1472 
z
" transform="scale(0.015625)"/>
        <path id="CMMI10-3a" d="M 1229 339 
C 1229 524 1075 678 890 678 
C 704 678 550 524 550 339 
C 550 153 704 0 890 0 
C 1075 0 1229 153 1229 339 
z
" transform="scale(0.015625)"/>
       </defs>
       <use xlink:href="#CMSY10-0" transform="scale(0.996264)"/>
       <use xlink:href="#NimbusRomNo9L-Regu-31" transform="translate(77.408707 0) scale(0.996264)"/>
       <use xlink:href="#CMMI10-3a" transform="translate(127.221908 0) scale(0.996264)"/>
       <use xlink:href="#NimbusRomNo9L-Regu-30" transform="translate(154.817414 0) scale(0.996264)"/>
      </g>
     </g>
    </g>
    <g id="ytick_2">
     <g id="line2d_15">
      <path d="M 94.732441 191.375501 
L 505.44 191.375501 
" clip-path="url(#pe7ba53d257)" style="fill: none; stroke-dasharray: 0.9,1.485; stroke-dashoffset: 0; stroke: #b0b0b0; stroke-width: 0.9"/>
     </g>
     <g id="line2d_16">
      <g>
       <use xlink:href="#mdc7831f60e" x="94.732441" y="191.375501" style="stroke: #000000; stroke-width: 0.8"/>
      </g>
     </g>
     <g id="text_9">
      <!-- $\mathdefault{−0.5}$ -->
      <g transform="translate(54.991542 196.779165) scale(0.16 -0.16)">
       <defs>
        <path id="NimbusRomNo9L-Regu-35" d="M 1158 3718 
L 2413 3718 
C 2515 3718 2541 3731 2560 3775 
L 2803 4345 
L 2746 4390 
C 2650 4256 2586 4224 2451 4224 
L 1114 4224 
L 416 2717 
C 410 2705 410 2698 410 2686 
C 410 2654 435 2635 486 2635 
C 691 2635 947 2591 1210 2508 
C 1946 2274 2285 1882 2285 1255 
C 2285 647 1894 172 1395 172 
C 1267 172 1158 217 966 356 
C 762 502 614 565 480 565 
C 294 565 205 489 205 331 
C 205 89 506 -64 986 -64 
C 1523 -64 1984 108 2304 432 
C 2598 717 2733 1078 2733 1559 
C 2733 2015 2611 2306 2291 2622 
C 2010 2901 1645 3047 890 3180 
L 1158 3718 
z
" transform="scale(0.015625)"/>
       </defs>
       <use xlink:href="#CMSY10-0" transform="scale(0.996264)"/>
       <use xlink:href="#NimbusRomNo9L-Regu-30" transform="translate(77.408707 0) scale(0.996264)"/>
       <use xlink:href="#CMMI10-3a" transform="translate(127.221908 0) scale(0.996264)"/>
       <use xlink:href="#NimbusRomNo9L-Regu-35" transform="translate(154.817414 0) scale(0.996264)"/>
      </g>
     </g>
    </g>
    <g id="ytick_3">
     <g id="line2d_17">
      <path d="M 94.732441 121.477093 
L 505.44 121.477093 
" clip-path="url(#pe7ba53d257)" style="fill: none; stroke-dasharray: 0.9,1.485; stroke-dashoffset: 0; stroke: #b0b0b0; stroke-width: 0.9"/>
     </g>
     <g id="line2d_18">
      <g>
       <use xlink:href="#mdc7831f60e" x="94.732441" y="121.477093" style="stroke: #000000; stroke-width: 0.8"/>
      </g>
     </g>
     <g id="text_10">
      <!-- $\mathdefault{0.0}$ -->
      <g transform="translate(67.376935 126.880756) scale(0.16 -0.16)">
       <use xlink:href="#NimbusRomNo9L-Regu-30" transform="scale(0.996264)"/>
       <use xlink:href="#CMMI10-3a" transform="translate(49.8132 0) scale(0.996264)"/>
       <use xlink:href="#NimbusRomNo9L-Regu-30" transform="translate(77.408707 0) scale(0.996264)"/>
      </g>
     </g>
    </g>
    <g id="ytick_4">
     <g id="line2d_19">
      <path d="M 94.732441 51.578684 
L 505.44 51.578684 
" clip-path="url(#pe7ba53d257)" style="fill: none; stroke-dasharray: 0.9,1.485; stroke-dashoffset: 0; stroke: #b0b0b0; stroke-width: 0.9"/>
     </g>
     <g id="line2d_20">
      <g>
       <use xlink:href="#mdc7831f60e" x="94.732441" y="51.578684" style="stroke: #000000; stroke-width: 0.8"/>
      </g>
     </g>
     <g id="text_11">
      <!-- $\mathdefault{0.5}$ -->
      <g transform="translate(67.376935 56.982348) scale(0.16 -0.16)">
       <use xlink:href="#NimbusRomNo9L-Regu-30" transform="scale(0.996264)"/>
       <use xlink:href="#CMMI10-3a" transform="translate(49.8132 0) scale(0.996264)"/>
       <use xlink:href="#NimbusRomNo9L-Regu-35" transform="translate(77.408707 0) scale(0.996264)"/>
      </g>
     </g>
    </g>
    <g id="text_12">
     <!-- Most positive real part of $\lambda_o$ -->
     <g transform="translate(47.540616 268.53698) rotate(-90) scale(0.16 -0.16)">
      <defs>
       <path id="NimbusRomNo9L-Regu-4d" d="M 4314 3656 
L 4314 765 
C 4314 236 4237 153 3731 121 
L 3731 0 
L 5523 0 
L 5523 121 
C 5056 153 4966 242 4966 695 
L 4966 3528 
C 4966 3981 5050 4064 5523 4102 
L 5523 4224 
L 4250 4224 
L 2835 1002 
L 1357 4224 
L 90 4224 
L 90 4102 
C 614 4070 698 3994 698 3528 
L 698 938 
C 698 281 608 159 77 121 
L 77 0 
L 1581 0 
L 1581 121 
C 1088 147 979 293 979 938 
L 979 3509 
L 2586 0 
L 2675 0 
L 4314 3656 
z
" transform="scale(0.015625)"/>
       <path id="NimbusRomNo9L-Regu-70" d="M 58 2515 
C 115 2521 160 2521 218 2521 
C 435 2521 480 2457 480 2157 
L 480 -839 
C 480 -1172 410 -1242 32 -1280 
L 32 -1389 
L 1581 -1389 
L 1581 -1280 
C 1101 -1274 1018 -1203 1018 -798 
L 1018 211 
C 1242 0 1395 -64 1664 -64 
C 2419 -64 3008 652 3008 1580 
C 3008 2374 2560 2944 1939 2944 
C 1581 2944 1299 2783 1018 2438 
L 1018 2931 
L 979 2944 
C 634 2809 410 2726 58 2617 
L 58 2515 
z
M 1018 2137 
C 1018 2329 1376 2559 1670 2559 
C 2144 2559 2458 2073 2458 1331 
C 2458 620 2144 140 1683 140 
C 1382 140 1018 371 1018 563 
L 1018 2137 
z
" transform="scale(0.015625)"/>
       <path id="NimbusRomNo9L-Regu-6c" d="M 122 3987 
L 160 3987 
C 230 3993 307 4000 358 4000 
C 563 4000 627 3910 627 3609 
L 627 556 
C 627 211 538 128 134 96 
L 134 0 
L 1645 0 
L 1645 96 
C 1242 121 1165 185 1165 537 
L 1165 4358 
L 1139 4371 
C 806 4262 563 4198 122 4089 
L 122 3987 
z
" transform="scale(0.015625)"/>
       <path id="StandardSymL-6c" d="M 480 3650 
C 525 4013 710 4224 998 4224 
C 1203 4224 1376 4064 1472 3778 
C 1517 3650 1574 3440 1632 3198 
L 154 19 
L 755 19 
L 1843 2301 
C 2048 1059 2150 607 2266 358 
C 2406 83 2611 -64 2848 -64 
C 3098 -64 3296 89 3405 371 
C 3475 543 3501 715 3507 1014 
L 3373 1014 
C 3322 683 3174 499 2944 499 
C 2752 499 2586 620 2483 843 
C 2400 1008 2355 1174 2266 1645 
L 2093 2466 
C 2086 2485 2080 2530 2067 2594 
C 1920 3415 1690 4192 1536 4422 
C 1395 4627 1203 4736 992 4736 
C 602 4736 397 4403 326 3650 
L 480 3650 
z
" transform="scale(0.015625)"/>
      </defs>
      <use xlink:href="#NimbusRomNo9L-Regu-4d" transform="scale(0.996264)"/>
      <use xlink:href="#NimbusRomNo9L-Regu-6f" transform="translate(88.566907 0) scale(0.996264)"/>
      <use xlink:href="#NimbusRomNo9L-Regu-73" transform="translate(138.380107 0) scale(0.996264)"/>
      <use xlink:href="#NimbusRomNo9L-Regu-74" transform="translate(177.133813 0) scale(0.996264)"/>
      <use xlink:href="#NimbusRomNo9L-Regu-70" transform="translate(229.735583 0) scale(0.996264)"/>
      <use xlink:href="#NimbusRomNo9L-Regu-6f" transform="translate(279.548784 0) scale(0.996264)"/>
      <use xlink:href="#NimbusRomNo9L-Regu-73" transform="translate(329.361984 0) scale(0.996264)"/>
      <use xlink:href="#NimbusRomNo9L-Regu-69" transform="translate(368.11569 0) scale(0.996264)"/>
      <use xlink:href="#NimbusRomNo9L-Regu-74" transform="translate(395.81086 0) scale(0.996264)"/>
      <use xlink:href="#NimbusRomNo9L-Regu-69" transform="translate(423.50603 0) scale(0.996264)"/>
      <use xlink:href="#NimbusRomNo9L-Regu-76" transform="translate(448.71057 0) scale(0.996264)"/>
      <use xlink:href="#NimbusRomNo9L-Regu-65" transform="translate(497.030377 0) scale(0.996264)"/>
      <use xlink:href="#NimbusRomNo9L-Regu-72" transform="translate(566.170546 0) scale(0.996264)"/>
      <use xlink:href="#NimbusRomNo9L-Regu-65" transform="translate(599.345776 0) scale(0.996264)"/>
      <use xlink:href="#NimbusRomNo9L-Regu-61" transform="translate(643.579345 0) scale(0.996264)"/>
      <use xlink:href="#NimbusRomNo9L-Regu-6c" transform="translate(687.812913 0) scale(0.996264)"/>
      <use xlink:href="#NimbusRomNo9L-Regu-70" transform="translate(740.414683 0) scale(0.996264)"/>
      <use xlink:href="#NimbusRomNo9L-Regu-61" transform="translate(790.227884 0) scale(0.996264)"/>
      <use xlink:href="#NimbusRomNo9L-Regu-72" transform="translate(834.461453 0) scale(0.996264)"/>
      <use xlink:href="#NimbusRomNo9L-Regu-74" transform="translate(867.636682 0) scale(0.996264)"/>
      <use xlink:href="#NimbusRomNo9L-Regu-6f" transform="translate(920.238452 0) scale(0.996264)"/>
      <use xlink:href="#NimbusRomNo9L-Regu-66" transform="translate(970.051653 0) scale(0.996264)"/>
      <use xlink:href="#StandardSymL-6c" transform="translate(1028.133483 0) scale(0.996264)"/>
      <use xlink:href="#NimbusRomNo9L-ReguItal-6f" transform="translate(1082.828249 -14.943915) scale(0.737241)"/>
     </g>
    </g>
   </g>
   <g id="line2d_21">
    <path d="M 113.400967 48.996522 
L 118.068098 76.19452 
L 122.735229 103.902863 
L 127.402361 131.974549 
L 132.069492 160.195662 
L 136.736623 188.298203 
L 141.403755 215.992411 
L 146.070886 243.010642 
L 150.738018 247.849586 
L 155.405149 244.620575 
L 160.07228 241.936096 
L 164.739412 239.787323 
L 169.406543 238.144262 
L 174.073674 236.965187 
L 178.740806 236.203597 
L 183.407937 235.812702 
L 188.075068 235.747966 
L 192.7422 235.968361 
L 197.409331 236.436816 
L 202.076462 237.120208 
L 206.743594 237.989134 
L 211.410725 239.017565 
L 216.077856 240.182484 
L 220.744988 241.463532 
L 225.412119 242.842677 
L 230.07925 244.303928 
L 234.746382 245.833077 
L 239.413513 247.417484 
L 244.080644 249.04589 
L 248.747776 250.708249 
L 253.414907 252.395601 
L 258.082039 254.099945 
L 262.74917 255.814148 
L 267.416301 257.531848 
L 272.083433 259.247385 
L 276.750564 260.955736 
L 281.417695 262.652452 
L 286.084827 264.333613 
L 290.751958 265.995779 
L 295.419089 267.635949 
L 300.086221 269.251526 
L 304.753352 270.840282 
L 309.420483 272.400326 
L 314.087615 273.930075 
L 318.754746 275.428231 
L 323.421877 276.89375 
L 328.089009 278.325824 
L 332.75614 279.723856 
L 337.423271 281.087441 
L 342.090403 282.416345 
L 346.757534 283.710489 
L 351.424665 284.969931 
L 356.091797 286.194852 
L 360.758928 287.385537 
L 365.42606 288.542368 
L 370.093191 289.665805 
L 374.760322 290.75638 
L 379.427454 291.814683 
L 384.094585 292.841353 
L 388.761716 293.83707 
L 393.428848 294.802546 
L 398.095979 295.738519 
L 402.76311 296.645746 
L 407.430242 297.524998 
L 412.097373 298.377053 
L 416.764504 299.202694 
L 421.431636 300.002702 
L 426.098767 300.777857 
L 430.765898 301.52893 
L 435.43303 302.256684 
L 440.100161 302.96187 
L 444.767292 303.645227 
L 449.434424 304.30748 
L 454.101555 304.949334 
L 458.768687 305.571483 
L 463.435818 306.174599 
L 468.102949 306.759338 
L 472.770081 307.326336 
L 477.437212 307.876211 
L 482.104343 308.409563 
L 486.771475 308.926971 
" clip-path="url(#pe7ba53d257)" style="fill: none; stroke-dasharray: 2.96,1.28; stroke-dashoffset: 0; stroke: #000000; stroke-width: 0.8"/>
    <defs>
     <path id="me5e280832e" d="M 0 -1.5 
L -1.5 1.5 
L 1.5 1.5 
z
" style="stroke: #000000; stroke-width: 0.6; stroke-linejoin: miter"/>
    </defs>
    <g clip-path="url(#pe7ba53d257)">
     <use xlink:href="#me5e280832e" x="113.400967" y="48.996522" style="stroke: #000000; stroke-width: 0.6; stroke-linejoin: miter"/>
     <use xlink:href="#me5e280832e" x="118.068098" y="76.19452" style="stroke: #000000; stroke-width: 0.6; stroke-linejoin: miter"/>
     <use xlink:href="#me5e280832e" x="122.735229" y="103.902863" style="stroke: #000000; stroke-width: 0.6; stroke-linejoin: miter"/>
     <use xlink:href="#me5e280832e" x="127.402361" y="131.974549" style="stroke: #000000; stroke-width: 0.6; stroke-linejoin: miter"/>
     <use xlink:href="#me5e280832e" x="132.069492" y="160.195662" style="stroke: #000000; stroke-width: 0.6; stroke-linejoin: miter"/>
     <use xlink:href="#me5e280832e" x="136.736623" y="188.298203" style="stroke: #000000; stroke-width: 0.6; stroke-linejoin: miter"/>
     <use xlink:href="#me5e280832e" x="141.403755" y="215.992411" style="stroke: #000000; stroke-width: 0.6; stroke-linejoin: miter"/>
     <use xlink:href="#me5e280832e" x="146.070886" y="243.010642" style="stroke: #000000; stroke-width: 0.6; stroke-linejoin: miter"/>
     <use xlink:href="#me5e280832e" x="150.738018" y="247.849586" style="stroke: #000000; stroke-width: 0.6; stroke-linejoin: miter"/>
     <use xlink:href="#me5e280832e" x="155.405149" y="244.620575" style="stroke: #000000; stroke-width: 0.6; stroke-linejoin: miter"/>
     <use xlink:href="#me5e280832e" x="160.07228" y="241.936096" style="stroke: #000000; stroke-width: 0.6; stroke-linejoin: miter"/>
     <use xlink:href="#me5e280832e" x="164.739412" y="239.787323" style="stroke: #000000; stroke-width: 0.6; stroke-linejoin: miter"/>
     <use xlink:href="#me5e280832e" x="169.406543" y="238.144262" style="stroke: #000000; stroke-width: 0.6; stroke-linejoin: miter"/>
     <use xlink:href="#me5e280832e" x="174.073674" y="236.965187" style="stroke: #000000; stroke-width: 0.6; stroke-linejoin: miter"/>
     <use xlink:href="#me5e280832e" x="178.740806" y="236.203597" style="stroke: #000000; stroke-width: 0.6; stroke-linejoin: miter"/>
     <use xlink:href="#me5e280832e" x="183.407937" y="235.812702" style="stroke: #000000; stroke-width: 0.6; stroke-linejoin: miter"/>
     <use xlink:href="#me5e280832e" x="188.075068" y="235.747966" style="stroke: #000000; stroke-width: 0.6; stroke-linejoin: miter"/>
     <use xlink:href="#me5e280832e" x="192.7422" y="235.968361" style="stroke: #000000; stroke-width: 0.6; stroke-linejoin: miter"/>
     <use xlink:href="#me5e280832e" x="197.409331" y="236.436816" style="stroke: #000000; stroke-width: 0.6; stroke-linejoin: miter"/>
     <use xlink:href="#me5e280832e" x="202.076462" y="237.120208" style="stroke: #000000; stroke-width: 0.6; stroke-linejoin: miter"/>
     <use xlink:href="#me5e280832e" x="206.743594" y="237.989134" style="stroke: #000000; stroke-width: 0.6; stroke-linejoin: miter"/>
     <use xlink:href="#me5e280832e" x="211.410725" y="239.017565" style="stroke: #000000; stroke-width: 0.6; stroke-linejoin: miter"/>
     <use xlink:href="#me5e280832e" x="216.077856" y="240.182484" style="stroke: #000000; stroke-width: 0.6; stroke-linejoin: miter"/>
     <use xlink:href="#me5e280832e" x="220.744988" y="241.463532" style="stroke: #000000; stroke-width: 0.6; stroke-linejoin: miter"/>
     <use xlink:href="#me5e280832e" x="225.412119" y="242.842677" style="stroke: #000000; stroke-width: 0.6; stroke-linejoin: miter"/>
     <use xlink:href="#me5e280832e" x="230.07925" y="244.303928" style="stroke: #000000; stroke-width: 0.6; stroke-linejoin: miter"/>
     <use xlink:href="#me5e280832e" x="234.746382" y="245.833077" style="stroke: #000000; stroke-width: 0.6; stroke-linejoin: miter"/>
     <use xlink:href="#me5e280832e" x="239.413513" y="247.417484" style="stroke: #000000; stroke-width: 0.6; stroke-linejoin: miter"/>
     <use xlink:href="#me5e280832e" x="244.080644" y="249.04589" style="stroke: #000000; stroke-width: 0.6; stroke-linejoin: miter"/>
     <use xlink:href="#me5e280832e" x="248.747776" y="250.708249" style="stroke: #000000; stroke-width: 0.6; stroke-linejoin: miter"/>
     <use xlink:href="#me5e280832e" x="253.414907" y="252.395601" style="stroke: #000000; stroke-width: 0.6; stroke-linejoin: miter"/>
     <use xlink:href="#me5e280832e" x="258.082039" y="254.099945" style="stroke: #000000; stroke-width: 0.6; stroke-linejoin: miter"/>
     <use xlink:href="#me5e280832e" x="262.74917" y="255.814148" style="stroke: #000000; stroke-width: 0.6; stroke-linejoin: miter"/>
     <use xlink:href="#me5e280832e" x="267.416301" y="257.531848" style="stroke: #000000; stroke-width: 0.6; stroke-linejoin: miter"/>
     <use xlink:href="#me5e280832e" x="272.083433" y="259.247385" style="stroke: #000000; stroke-width: 0.6; stroke-linejoin: miter"/>
     <use xlink:href="#me5e280832e" x="276.750564" y="260.955736" style="stroke: #000000; stroke-width: 0.6; stroke-linejoin: miter"/>
     <use xlink:href="#me5e280832e" x="281.417695" y="262.652452" style="stroke: #000000; stroke-width: 0.6; stroke-linejoin: miter"/>
     <use xlink:href="#me5e280832e" x="286.084827" y="264.333613" style="stroke: #000000; stroke-width: 0.6; stroke-linejoin: miter"/>
     <use xlink:href="#me5e280832e" x="290.751958" y="265.995779" style="stroke: #000000; stroke-width: 0.6; stroke-linejoin: miter"/>
     <use xlink:href="#me5e280832e" x="295.419089" y="267.635949" style="stroke: #000000; stroke-width: 0.6; stroke-linejoin: miter"/>
     <use xlink:href="#me5e280832e" x="300.086221" y="269.251526" style="stroke: #000000; stroke-width: 0.6; stroke-linejoin: miter"/>
     <use xlink:href="#me5e280832e" x="304.753352" y="270.840282" style="stroke: #000000; stroke-width: 0.6; stroke-linejoin: miter"/>
     <use xlink:href="#me5e280832e" x="309.420483" y="272.400326" style="stroke: #000000; stroke-width: 0.6; stroke-linejoin: miter"/>
     <use xlink:href="#me5e280832e" x="314.087615" y="273.930075" style="stroke: #000000; stroke-width: 0.6; stroke-linejoin: miter"/>
     <use xlink:href="#me5e280832e" x="318.754746" y="275.428231" style="stroke: #000000; stroke-width: 0.6; stroke-linejoin: miter"/>
     <use xlink:href="#me5e280832e" x="323.421877" y="276.89375" style="stroke: #000000; stroke-width: 0.6; stroke-linejoin: miter"/>
     <use xlink:href="#me5e280832e" x="328.089009" y="278.325824" style="stroke: #000000; stroke-width: 0.6; stroke-linejoin: miter"/>
     <use xlink:href="#me5e280832e" x="332.75614" y="279.723856" style="stroke: #000000; stroke-width: 0.6; stroke-linejoin: miter"/>
     <use xlink:href="#me5e280832e" x="337.423271" y="281.087441" style="stroke: #000000; stroke-width: 0.6; stroke-linejoin: miter"/>
     <use xlink:href="#me5e280832e" x="342.090403" y="282.416345" style="stroke: #000000; stroke-width: 0.6; stroke-linejoin: miter"/>
     <use xlink:href="#me5e280832e" x="346.757534" y="283.710489" style="stroke: #000000; stroke-width: 0.6; stroke-linejoin: miter"/>
     <use xlink:href="#me5e280832e" x="351.424665" y="284.969931" style="stroke: #000000; stroke-width: 0.6; stroke-linejoin: miter"/>
     <use xlink:href="#me5e280832e" x="356.091797" y="286.194852" style="stroke: #000000; stroke-width: 0.6; stroke-linejoin: miter"/>
     <use xlink:href="#me5e280832e" x="360.758928" y="287.385537" style="stroke: #000000; stroke-width: 0.6; stroke-linejoin: miter"/>
     <use xlink:href="#me5e280832e" x="365.42606" y="288.542368" style="stroke: #000000; stroke-width: 0.6; stroke-linejoin: miter"/>
     <use xlink:href="#me5e280832e" x="370.093191" y="289.665805" style="stroke: #000000; stroke-width: 0.6; stroke-linejoin: miter"/>
     <use xlink:href="#me5e280832e" x="374.760322" y="290.75638" style="stroke: #000000; stroke-width: 0.6; stroke-linejoin: miter"/>
     <use xlink:href="#me5e280832e" x="379.427454" y="291.814683" style="stroke: #000000; stroke-width: 0.6; stroke-linejoin: miter"/>
     <use xlink:href="#me5e280832e" x="384.094585" y="292.841353" style="stroke: #000000; stroke-width: 0.6; stroke-linejoin: miter"/>
     <use xlink:href="#me5e280832e" x="388.761716" y="293.83707" style="stroke: #000000; stroke-width: 0.6; stroke-linejoin: miter"/>
     <use xlink:href="#me5e280832e" x="393.428848" y="294.802546" style="stroke: #000000; stroke-width: 0.6; stroke-linejoin: miter"/>
     <use xlink:href="#me5e280832e" x="398.095979" y="295.738519" style="stroke: #000000; stroke-width: 0.6; stroke-linejoin: miter"/>
     <use xlink:href="#me5e280832e" x="402.76311" y="296.645746" style="stroke: #000000; stroke-width: 0.6; stroke-linejoin: miter"/>
     <use xlink:href="#me5e280832e" x="407.430242" y="297.524998" style="stroke: #000000; stroke-width: 0.6; stroke-linejoin: miter"/>
     <use xlink:href="#me5e280832e" x="412.097373" y="298.377053" style="stroke: #000000; stroke-width: 0.6; stroke-linejoin: miter"/>
     <use xlink:href="#me5e280832e" x="416.764504" y="299.202694" style="stroke: #000000; stroke-width: 0.6; stroke-linejoin: miter"/>
     <use xlink:href="#me5e280832e" x="421.431636" y="300.002702" style="stroke: #000000; stroke-width: 0.6; stroke-linejoin: miter"/>
     <use xlink:href="#me5e280832e" x="426.098767" y="300.777857" style="stroke: #000000; stroke-width: 0.6; stroke-linejoin: miter"/>
     <use xlink:href="#me5e280832e" x="430.765898" y="301.52893" style="stroke: #000000; stroke-width: 0.6; stroke-linejoin: miter"/>
     <use xlink:href="#me5e280832e" x="435.43303" y="302.256684" style="stroke: #000000; stroke-width: 0.6; stroke-linejoin: miter"/>
     <use xlink:href="#me5e280832e" x="440.100161" y="302.96187" style="stroke: #000000; stroke-width: 0.6; stroke-linejoin: miter"/>
     <use xlink:href="#me5e280832e" x="444.767292" y="303.645227" style="stroke: #000000; stroke-width: 0.6; stroke-linejoin: miter"/>
     <use xlink:href="#me5e280832e" x="449.434424" y="304.30748" style="stroke: #000000; stroke-width: 0.6; stroke-linejoin: miter"/>
     <use xlink:href="#me5e280832e" x="454.101555" y="304.949334" style="stroke: #000000; stroke-width: 0.6; stroke-linejoin: miter"/>
     <use xlink:href="#me5e280832e" x="458.768687" y="305.571483" style="stroke: #000000; stroke-width: 0.6; stroke-linejoin: miter"/>
     <use xlink:href="#me5e280832e" x="463.435818" y="306.174599" style="stroke: #000000; stroke-width: 0.6; stroke-linejoin: miter"/>
     <use xlink:href="#me5e280832e" x="468.102949" y="306.759338" style="stroke: #000000; stroke-width: 0.6; stroke-linejoin: miter"/>
     <use xlink:href="#me5e280832e" x="472.770081" y="307.326336" style="stroke: #000000; stroke-width: 0.6; stroke-linejoin: miter"/>
     <use xlink:href="#me5e280832e" x="477.437212" y="307.876211" style="stroke: #000000; stroke-width: 0.6; stroke-linejoin: miter"/>
     <use xlink:href="#me5e280832e" x="482.104343" y="308.409563" style="stroke: #000000; stroke-width: 0.6; stroke-linejoin: miter"/>
     <use xlink:href="#me5e280832e" x="486.771475" y="308.926971" style="stroke: #000000; stroke-width: 0.6; stroke-linejoin: miter"/>
    </g>
   </g>
   <g id="line2d_22">
    <path d="M 113.400967 48.996522 
L 118.068098 56.621014 
L 122.735229 64.379498 
L 127.402361 72.287487 
L 132.069492 80.36247 
L 136.736623 88.624263 
L 141.403755 97.09543 
L 146.070886 105.801789 
L 150.738018 114.773048 
L 155.405149 124.043579 
L 160.07228 133.653369 
L 164.739412 143.649206 
L 169.406543 154.086119 
L 174.073674 165.029143 
L 178.740806 176.55541 
L 183.407937 188.756539 
L 188.075068 201.741144 
L 192.7422 215.636957 
L 197.409331 230.591437 
L 202.076462 246.768591 
L 206.743594 264.337932 
L 211.410725 283.449603 
L 216.077856 287.633354 
L 220.744988 282.9715 
L 225.412119 277.671719 
L 230.07925 271.928785 
L 234.746382 265.986537 
L 239.413513 260.077946 
L 244.080644 254.379542 
L 248.747776 248.998347 
L 253.414907 243.982985 
L 258.082039 239.342694 
L 262.74917 235.064056 
L 267.416301 231.122541 
L 272.083433 227.489458 
L 276.750564 224.135758 
L 281.417695 221.033915 
L 286.084827 218.158745 
L 290.751958 215.487631 
L 295.419089 213.000471 
L 300.086221 210.679485 
L 304.753352 208.50898 
L 309.420483 206.475101 
L 314.087615 204.565606 
L 318.754746 202.769651 
L 323.421877 201.07761 
L 328.089009 199.480918 
L 332.75614 197.971926 
L 337.423271 196.54379 
L 342.090403 195.190364 
L 346.757534 193.906116 
L 351.424665 192.686053 
L 356.091797 191.525655 
L 360.758928 190.420822 
L 365.42606 189.367822 
L 370.093191 188.363255 
L 374.760322 187.404014 
L 379.427454 186.487252 
L 384.094585 185.610357 
L 388.761716 184.77093 
L 393.428848 183.966757 
L 398.095979 183.195798 
L 402.76311 182.456166 
L 407.430242 181.746114 
L 412.097373 181.064022 
L 416.764504 180.408385 
L 421.431636 179.777804 
L 426.098767 179.170975 
L 430.765898 178.586683 
L 435.43303 178.023792 
L 440.100161 177.481242 
L 444.767292 176.958039 
L 449.434424 176.453251 
L 454.101555 175.966007 
L 458.768687 175.495486 
L 463.435818 175.040916 
L 468.102949 174.601574 
L 472.770081 174.176775 
L 477.437212 173.765876 
L 482.104343 173.36827 
L 486.771475 172.983383 
" clip-path="url(#pe7ba53d257)" style="fill: none; stroke: #000000; stroke-width: 0.8; stroke-linecap: square"/>
    <defs>
     <path id="m82b13e3c05" d="M -1.5 1.5 
L 1.5 1.5 
L 1.5 -1.5 
L -1.5 -1.5 
z
" style="stroke: #000000; stroke-width: 0.6; stroke-linejoin: miter"/>
    </defs>
    <g clip-path="url(#pe7ba53d257)">
     <use xlink:href="#m82b13e3c05" x="113.400967" y="48.996522" style="stroke: #000000; stroke-width: 0.6; stroke-linejoin: miter"/>
     <use xlink:href="#m82b13e3c05" x="118.068098" y="56.621014" style="stroke: #000000; stroke-width: 0.6; stroke-linejoin: miter"/>
     <use xlink:href="#m82b13e3c05" x="122.735229" y="64.379498" style="stroke: #000000; stroke-width: 0.6; stroke-linejoin: miter"/>
     <use xlink:href="#m82b13e3c05" x="127.402361" y="72.287487" style="stroke: #000000; stroke-width: 0.6; stroke-linejoin: miter"/>
     <use xlink:href="#m82b13e3c05" x="132.069492" y="80.36247" style="stroke: #000000; stroke-width: 0.6; stroke-linejoin: miter"/>
     <use xlink:href="#m82b13e3c05" x="136.736623" y="88.624263" style="stroke: #000000; stroke-width: 0.6; stroke-linejoin: miter"/>
     <use xlink:href="#m82b13e3c05" x="141.403755" y="97.09543" style="stroke: #000000; stroke-width: 0.6; stroke-linejoin: miter"/>
     <use xlink:href="#m82b13e3c05" x="146.070886" y="105.801789" style="stroke: #000000; stroke-width: 0.6; stroke-linejoin: miter"/>
     <use xlink:href="#m82b13e3c05" x="150.738018" y="114.773048" style="stroke: #000000; stroke-width: 0.6; stroke-linejoin: miter"/>
     <use xlink:href="#m82b13e3c05" x="155.405149" y="124.043579" style="stroke: #000000; stroke-width: 0.6; stroke-linejoin: miter"/>
     <use xlink:href="#m82b13e3c05" x="160.07228" y="133.653369" style="stroke: #000000; stroke-width: 0.6; stroke-linejoin: miter"/>
     <use xlink:href="#m82b13e3c05" x="164.739412" y="143.649206" style="stroke: #000000; stroke-width: 0.6; stroke-linejoin: miter"/>
     <use xlink:href="#m82b13e3c05" x="169.406543" y="154.086119" style="stroke: #000000; stroke-width: 0.6; stroke-linejoin: miter"/>
     <use xlink:href="#m82b13e3c05" x="174.073674" y="165.029143" style="stroke: #000000; stroke-width: 0.6; stroke-linejoin: miter"/>
     <use xlink:href="#m82b13e3c05" x="178.740806" y="176.55541" style="stroke: #000000; stroke-width: 0.6; stroke-linejoin: miter"/>
     <use xlink:href="#m82b13e3c05" x="183.407937" y="188.756539" style="stroke: #000000; stroke-width: 0.6; stroke-linejoin: miter"/>
     <use xlink:href="#m82b13e3c05" x="188.075068" y="201.741144" style="stroke: #000000; stroke-width: 0.6; stroke-linejoin: miter"/>
     <use xlink:href="#m82b13e3c05" x="192.7422" y="215.636957" style="stroke: #000000; stroke-width: 0.6; stroke-linejoin: miter"/>
     <use xlink:href="#m82b13e3c05" x="197.409331" y="230.591437" style="stroke: #000000; stroke-width: 0.6; stroke-linejoin: miter"/>
     <use xlink:href="#m82b13e3c05" x="202.076462" y="246.768591" style="stroke: #000000; stroke-width: 0.6; stroke-linejoin: miter"/>
     <use xlink:href="#m82b13e3c05" x="206.743594" y="264.337932" style="stroke: #000000; stroke-width: 0.6; stroke-linejoin: miter"/>
     <use xlink:href="#m82b13e3c05" x="211.410725" y="283.449603" style="stroke: #000000; stroke-width: 0.6; stroke-linejoin: miter"/>
     <use xlink:href="#m82b13e3c05" x="216.077856" y="287.633354" style="stroke: #000000; stroke-width: 0.6; stroke-linejoin: miter"/>
     <use xlink:href="#m82b13e3c05" x="220.744988" y="282.9715" style="stroke: #000000; stroke-width: 0.6; stroke-linejoin: miter"/>
     <use xlink:href="#m82b13e3c05" x="225.412119" y="277.671719" style="stroke: #000000; stroke-width: 0.6; stroke-linejoin: miter"/>
     <use xlink:href="#m82b13e3c05" x="230.07925" y="271.928785" style="stroke: #000000; stroke-width: 0.6; stroke-linejoin: miter"/>
     <use xlink:href="#m82b13e3c05" x="234.746382" y="265.986537" style="stroke: #000000; stroke-width: 0.6; stroke-linejoin: miter"/>
     <use xlink:href="#m82b13e3c05" x="239.413513" y="260.077946" style="stroke: #000000; stroke-width: 0.6; stroke-linejoin: miter"/>
     <use xlink:href="#m82b13e3c05" x="244.080644" y="254.379542" style="stroke: #000000; stroke-width: 0.6; stroke-linejoin: miter"/>
     <use xlink:href="#m82b13e3c05" x="248.747776" y="248.998347" style="stroke: #000000; stroke-width: 0.6; stroke-linejoin: miter"/>
     <use xlink:href="#m82b13e3c05" x="253.414907" y="243.982985" style="stroke: #000000; stroke-width: 0.6; stroke-linejoin: miter"/>
     <use xlink:href="#m82b13e3c05" x="258.082039" y="239.342694" style="stroke: #000000; stroke-width: 0.6; stroke-linejoin: miter"/>
     <use xlink:href="#m82b13e3c05" x="262.74917" y="235.064056" style="stroke: #000000; stroke-width: 0.6; stroke-linejoin: miter"/>
     <use xlink:href="#m82b13e3c05" x="267.416301" y="231.122541" style="stroke: #000000; stroke-width: 0.6; stroke-linejoin: miter"/>
     <use xlink:href="#m82b13e3c05" x="272.083433" y="227.489458" style="stroke: #000000; stroke-width: 0.6; stroke-linejoin: miter"/>
     <use xlink:href="#m82b13e3c05" x="276.750564" y="224.135758" style="stroke: #000000; stroke-width: 0.6; stroke-linejoin: miter"/>
     <use xlink:href="#m82b13e3c05" x="281.417695" y="221.033915" style="stroke: #000000; stroke-width: 0.6; stroke-linejoin: miter"/>
     <use xlink:href="#m82b13e3c05" x="286.084827" y="218.158745" style="stroke: #000000; stroke-width: 0.6; stroke-linejoin: miter"/>
     <use xlink:href="#m82b13e3c05" x="290.751958" y="215.487631" style="stroke: #000000; stroke-width: 0.6; stroke-linejoin: miter"/>
     <use xlink:href="#m82b13e3c05" x="295.419089" y="213.000471" style="stroke: #000000; stroke-width: 0.6; stroke-linejoin: miter"/>
     <use xlink:href="#m82b13e3c05" x="300.086221" y="210.679485" style="stroke: #000000; stroke-width: 0.6; stroke-linejoin: miter"/>
     <use xlink:href="#m82b13e3c05" x="304.753352" y="208.50898" style="stroke: #000000; stroke-width: 0.6; stroke-linejoin: miter"/>
     <use xlink:href="#m82b13e3c05" x="309.420483" y="206.475101" style="stroke: #000000; stroke-width: 0.6; stroke-linejoin: miter"/>
     <use xlink:href="#m82b13e3c05" x="314.087615" y="204.565606" style="stroke: #000000; stroke-width: 0.6; stroke-linejoin: miter"/>
     <use xlink:href="#m82b13e3c05" x="318.754746" y="202.769651" style="stroke: #000000; stroke-width: 0.6; stroke-linejoin: miter"/>
     <use xlink:href="#m82b13e3c05" x="323.421877" y="201.07761" style="stroke: #000000; stroke-width: 0.6; stroke-linejoin: miter"/>
     <use xlink:href="#m82b13e3c05" x="328.089009" y="199.480918" style="stroke: #000000; stroke-width: 0.6; stroke-linejoin: miter"/>
     <use xlink:href="#m82b13e3c05" x="332.75614" y="197.971926" style="stroke: #000000; stroke-width: 0.6; stroke-linejoin: miter"/>
     <use xlink:href="#m82b13e3c05" x="337.423271" y="196.54379" style="stroke: #000000; stroke-width: 0.6; stroke-linejoin: miter"/>
     <use xlink:href="#m82b13e3c05" x="342.090403" y="195.190364" style="stroke: #000000; stroke-width: 0.6; stroke-linejoin: miter"/>
     <use xlink:href="#m82b13e3c05" x="346.757534" y="193.906116" style="stroke: #000000; stroke-width: 0.6; stroke-linejoin: miter"/>
     <use xlink:href="#m82b13e3c05" x="351.424665" y="192.686053" style="stroke: #000000; stroke-width: 0.6; stroke-linejoin: miter"/>
     <use xlink:href="#m82b13e3c05" x="356.091797" y="191.525655" style="stroke: #000000; stroke-width: 0.6; stroke-linejoin: miter"/>
     <use xlink:href="#m82b13e3c05" x="360.758928" y="190.420822" style="stroke: #000000; stroke-width: 0.6; stroke-linejoin: miter"/>
     <use xlink:href="#m82b13e3c05" x="365.42606" y="189.367822" style="stroke: #000000; stroke-width: 0.6; stroke-linejoin: miter"/>
     <use xlink:href="#m82b13e3c05" x="370.093191" y="188.363255" style="stroke: #000000; stroke-width: 0.6; stroke-linejoin: miter"/>
     <use xlink:href="#m82b13e3c05" x="374.760322" y="187.404014" style="stroke: #000000; stroke-width: 0.6; stroke-linejoin: miter"/>
     <use xlink:href="#m82b13e3c05" x="379.427454" y="186.487252" style="stroke: #000000; stroke-width: 0.6; stroke-linejoin: miter"/>
     <use xlink:href="#m82b13e3c05" x="384.094585" y="185.610357" style="stroke: #000000; stroke-width: 0.6; stroke-linejoin: miter"/>
     <use xlink:href="#m82b13e3c05" x="388.761716" y="184.77093" style="stroke: #000000; stroke-width: 0.6; stroke-linejoin: miter"/>
     <use xlink:href="#m82b13e3c05" x="393.428848" y="183.966757" style="stroke: #000000; stroke-width: 0.6; stroke-linejoin: miter"/>
     <use xlink:href="#m82b13e3c05" x="398.095979" y="183.195798" style="stroke: #000000; stroke-width: 0.6; stroke-linejoin: miter"/>
     <use xlink:href="#m82b13e3c05" x="402.76311" y="182.456166" style="stroke: #000000; stroke-width: 0.6; stroke-linejoin: miter"/>
     <use xlink:href="#m82b13e3c05" x="407.430242" y="181.746114" style="stroke: #000000; stroke-width: 0.6; stroke-linejoin: miter"/>
     <use xlink:href="#m82b13e3c05" x="412.097373" y="181.064022" style="stroke: #000000; stroke-width: 0.6; stroke-linejoin: miter"/>
     <use xlink:href="#m82b13e3c05" x="416.764504" y="180.408385" style="stroke: #000000; stroke-width: 0.6; stroke-linejoin: miter"/>
     <use xlink:href="#m82b13e3c05" x="421.431636" y="179.777804" style="stroke: #000000; stroke-width: 0.6; stroke-linejoin: miter"/>
     <use xlink:href="#m82b13e3c05" x="426.098767" y="179.170975" style="stroke: #000000; stroke-width: 0.6; stroke-linejoin: miter"/>
     <use xlink:href="#m82b13e3c05" x="430.765898" y="178.586683" style="stroke: #000000; stroke-width: 0.6; stroke-linejoin: miter"/>
     <use xlink:href="#m82b13e3c05" x="435.43303" y="178.023792" style="stroke: #000000; stroke-width: 0.6; stroke-linejoin: miter"/>
     <use xlink:href="#m82b13e3c05" x="440.100161" y="177.481242" style="stroke: #000000; stroke-width: 0.6; stroke-linejoin: miter"/>
     <use xlink:href="#m82b13e3c05" x="444.767292" y="176.958039" style="stroke: #000000; stroke-width: 0.6; stroke-linejoin: miter"/>
     <use xlink:href="#m82b13e3c05" x="449.434424" y="176.453251" style="stroke: #000000; stroke-width: 0.6; stroke-linejoin: miter"/>
     <use xlink:href="#m82b13e3c05" x="454.101555" y="175.966007" style="stroke: #000000; stroke-width: 0.6; stroke-linejoin: miter"/>
     <use xlink:href="#m82b13e3c05" x="458.768687" y="175.495486" style="stroke: #000000; stroke-width: 0.6; stroke-linejoin: miter"/>
     <use xlink:href="#m82b13e3c05" x="463.435818" y="175.040916" style="stroke: #000000; stroke-width: 0.6; stroke-linejoin: miter"/>
     <use xlink:href="#m82b13e3c05" x="468.102949" y="174.601574" style="stroke: #000000; stroke-width: 0.6; stroke-linejoin: miter"/>
     <use xlink:href="#m82b13e3c05" x="472.770081" y="174.176775" style="stroke: #000000; stroke-width: 0.6; stroke-linejoin: miter"/>
     <use xlink:href="#m82b13e3c05" x="477.437212" y="173.765876" style="stroke: #000000; stroke-width: 0.6; stroke-linejoin: miter"/>
     <use xlink:href="#m82b13e3c05" x="482.104343" y="173.36827" style="stroke: #000000; stroke-width: 0.6; stroke-linejoin: miter"/>
     <use xlink:href="#m82b13e3c05" x="486.771475" y="172.983383" style="stroke: #000000; stroke-width: 0.6; stroke-linejoin: miter"/>
    </g>
   </g>
   <g id="line2d_23">
    <path d="M 113.400967 48.996522 
L 118.068098 68.387589 
L 122.735229 87.783184 
L 127.402361 107.04526 
L 132.069492 126.02252 
L 136.736623 144.56261 
L 141.403755 162.525907 
L 146.070886 179.797657 
L 150.738018 196.29565 
L 155.405149 211.972313 
L 160.07228 226.811885 
L 164.739412 227.810632 
L 169.406543 224.779624 
L 174.073674 222.118612 
L 178.740806 219.803386 
L 183.407937 217.808363 
L 188.075068 216.108 
L 192.7422 214.677698 
L 197.409331 213.494319 
L 202.076462 212.536441 
L 206.743594 211.78444 
L 211.410725 211.220467 
L 216.077856 210.828354 
L 220.744988 210.593496 
L 225.412119 210.502716 
L 230.07925 210.544125 
L 234.746382 210.706996 
L 239.413513 210.981636 
L 244.080644 211.359278 
L 248.747776 211.831978 
L 253.414907 212.392526 
L 258.082039 213.034364 
L 262.74917 213.751517 
L 267.416301 214.538527 
L 272.083433 215.390403 
L 276.750564 216.302565 
L 281.417695 217.270809 
L 286.084827 218.291261 
L 290.751958 219.360349 
L 295.419089 220.474772 
L 300.086221 221.631472 
L 304.753352 222.827613 
L 309.420483 224.060558 
L 314.087615 225.327853 
L 318.754746 226.627208 
L 323.421877 227.956484 
L 328.089009 229.313679 
L 332.75614 230.696919 
L 337.423271 232.104442 
L 342.090403 233.534594 
L 346.757534 234.985817 
L 351.424665 236.456643 
L 356.091797 237.945687 
L 360.758928 239.451637 
L 365.42606 240.973257 
L 370.093191 242.509371 
L 374.760322 244.058868 
L 379.427454 245.620689 
L 384.094585 247.193832 
L 388.761716 248.777341 
L 393.428848 250.370307 
L 398.095979 251.971862 
L 402.76311 253.581181 
L 407.430242 255.197474 
L 412.097373 256.819987 
L 416.764504 258.447999 
L 421.431636 260.080822 
L 426.098767 261.717795 
L 430.765898 263.358287 
L 435.43303 265.001693 
L 440.100161 266.647431 
L 444.767292 268.294944 
L 449.434424 269.9437 
L 454.101555 271.593184 
L 458.768687 273.242906 
L 463.435818 274.892392 
L 468.102949 276.541188 
L 472.770081 278.188858 
L 477.437212 279.834983 
L 482.104343 281.479161 
L 486.771475 283.121004 
" clip-path="url(#pe7ba53d257)" style="fill: none; stroke-dasharray: 5.12,1.28,0.8,1.28; stroke-dashoffset: 0; stroke: #000000; stroke-width: 0.8"/>
    <defs>
     <path id="mf162ab2269" d="M 0 1.5 
C 0.397805 1.5 0.77937 1.341951 1.06066 1.06066 
C 1.341951 0.77937 1.5 0.397805 1.5 0 
C 1.5 -0.397805 1.341951 -0.77937 1.06066 -1.06066 
C 0.77937 -1.341951 0.397805 -1.5 0 -1.5 
C -0.397805 -1.5 -0.77937 -1.341951 -1.06066 -1.06066 
C -1.341951 -0.77937 -1.5 -0.397805 -1.5 0 
C -1.5 0.397805 -1.341951 0.77937 -1.06066 1.06066 
C -0.77937 1.341951 -0.397805 1.5 0 1.5 
z
" style="stroke: #000000; stroke-width: 0.6"/>
    </defs>
    <g clip-path="url(#pe7ba53d257)">
     <use xlink:href="#mf162ab2269" x="113.400967" y="48.996522" style="fill: #808080; stroke: #000000; stroke-width: 0.6"/>
     <use xlink:href="#mf162ab2269" x="118.068098" y="68.387589" style="fill: #808080; stroke: #000000; stroke-width: 0.6"/>
     <use xlink:href="#mf162ab2269" x="122.735229" y="87.783184" style="fill: #808080; stroke: #000000; stroke-width: 0.6"/>
     <use xlink:href="#mf162ab2269" x="127.402361" y="107.04526" style="fill: #808080; stroke: #000000; stroke-width: 0.6"/>
     <use xlink:href="#mf162ab2269" x="132.069492" y="126.02252" style="fill: #808080; stroke: #000000; stroke-width: 0.6"/>
     <use xlink:href="#mf162ab2269" x="136.736623" y="144.56261" style="fill: #808080; stroke: #000000; stroke-width: 0.6"/>
     <use xlink:href="#mf162ab2269" x="141.403755" y="162.525907" style="fill: #808080; stroke: #000000; stroke-width: 0.6"/>
     <use xlink:href="#mf162ab2269" x="146.070886" y="179.797657" style="fill: #808080; stroke: #000000; stroke-width: 0.6"/>
     <use xlink:href="#mf162ab2269" x="150.738018" y="196.29565" style="fill: #808080; stroke: #000000; stroke-width: 0.6"/>
     <use xlink:href="#mf162ab2269" x="155.405149" y="211.972313" style="fill: #808080; stroke: #000000; stroke-width: 0.6"/>
     <use xlink:href="#mf162ab2269" x="160.07228" y="226.811885" style="fill: #808080; stroke: #000000; stroke-width: 0.6"/>
     <use xlink:href="#mf162ab2269" x="164.739412" y="227.810632" style="fill: #808080; stroke: #000000; stroke-width: 0.6"/>
     <use xlink:href="#mf162ab2269" x="169.406543" y="224.779624" style="fill: #808080; stroke: #000000; stroke-width: 0.6"/>
     <use xlink:href="#mf162ab2269" x="174.073674" y="222.118612" style="fill: #808080; stroke: #000000; stroke-width: 0.6"/>
     <use xlink:href="#mf162ab2269" x="178.740806" y="219.803386" style="fill: #808080; stroke: #000000; stroke-width: 0.6"/>
     <use xlink:href="#mf162ab2269" x="183.407937" y="217.808363" style="fill: #808080; stroke: #000000; stroke-width: 0.6"/>
     <use xlink:href="#mf162ab2269" x="188.075068" y="216.108" style="fill: #808080; stroke: #000000; stroke-width: 0.6"/>
     <use xlink:href="#mf162ab2269" x="192.7422" y="214.677698" style="fill: #808080; stroke: #000000; stroke-width: 0.6"/>
     <use xlink:href="#mf162ab2269" x="197.409331" y="213.494319" style="fill: #808080; stroke: #000000; stroke-width: 0.6"/>
     <use xlink:href="#mf162ab2269" x="202.076462" y="212.536441" style="fill: #808080; stroke: #000000; stroke-width: 0.6"/>
     <use xlink:href="#mf162ab2269" x="206.743594" y="211.78444" style="fill: #808080; stroke: #000000; stroke-width: 0.6"/>
     <use xlink:href="#mf162ab2269" x="211.410725" y="211.220467" style="fill: #808080; stroke: #000000; stroke-width: 0.6"/>
     <use xlink:href="#mf162ab2269" x="216.077856" y="210.828354" style="fill: #808080; stroke: #000000; stroke-width: 0.6"/>
     <use xlink:href="#mf162ab2269" x="220.744988" y="210.593496" style="fill: #808080; stroke: #000000; stroke-width: 0.6"/>
     <use xlink:href="#mf162ab2269" x="225.412119" y="210.502716" style="fill: #808080; stroke: #000000; stroke-width: 0.6"/>
     <use xlink:href="#mf162ab2269" x="230.07925" y="210.544125" style="fill: #808080; stroke: #000000; stroke-width: 0.6"/>
     <use xlink:href="#mf162ab2269" x="234.746382" y="210.706996" style="fill: #808080; stroke: #000000; stroke-width: 0.6"/>
     <use xlink:href="#mf162ab2269" x="239.413513" y="210.981636" style="fill: #808080; stroke: #000000; stroke-width: 0.6"/>
     <use xlink:href="#mf162ab2269" x="244.080644" y="211.359278" style="fill: #808080; stroke: #000000; stroke-width: 0.6"/>
     <use xlink:href="#mf162ab2269" x="248.747776" y="211.831978" style="fill: #808080; stroke: #000000; stroke-width: 0.6"/>
     <use xlink:href="#mf162ab2269" x="253.414907" y="212.392526" style="fill: #808080; stroke: #000000; stroke-width: 0.6"/>
     <use xlink:href="#mf162ab2269" x="258.082039" y="213.034364" style="fill: #808080; stroke: #000000; stroke-width: 0.6"/>
     <use xlink:href="#mf162ab2269" x="262.74917" y="213.751517" style="fill: #808080; stroke: #000000; stroke-width: 0.6"/>
     <use xlink:href="#mf162ab2269" x="267.416301" y="214.538527" style="fill: #808080; stroke: #000000; stroke-width: 0.6"/>
     <use xlink:href="#mf162ab2269" x="272.083433" y="215.390403" style="fill: #808080; stroke: #000000; stroke-width: 0.6"/>
     <use xlink:href="#mf162ab2269" x="276.750564" y="216.302565" style="fill: #808080; stroke: #000000; stroke-width: 0.6"/>
     <use xlink:href="#mf162ab2269" x="281.417695" y="217.270809" style="fill: #808080; stroke: #000000; stroke-width: 0.6"/>
     <use xlink:href="#mf162ab2269" x="286.084827" y="218.291261" style="fill: #808080; stroke: #000000; stroke-width: 0.6"/>
     <use xlink:href="#mf162ab2269" x="290.751958" y="219.360349" style="fill: #808080; stroke: #000000; stroke-width: 0.6"/>
     <use xlink:href="#mf162ab2269" x="295.419089" y="220.474772" style="fill: #808080; stroke: #000000; stroke-width: 0.6"/>
     <use xlink:href="#mf162ab2269" x="300.086221" y="221.631472" style="fill: #808080; stroke: #000000; stroke-width: 0.6"/>
     <use xlink:href="#mf162ab2269" x="304.753352" y="222.827613" style="fill: #808080; stroke: #000000; stroke-width: 0.6"/>
     <use xlink:href="#mf162ab2269" x="309.420483" y="224.060558" style="fill: #808080; stroke: #000000; stroke-width: 0.6"/>
     <use xlink:href="#mf162ab2269" x="314.087615" y="225.327853" style="fill: #808080; stroke: #000000; stroke-width: 0.6"/>
     <use xlink:href="#mf162ab2269" x="318.754746" y="226.627208" style="fill: #808080; stroke: #000000; stroke-width: 0.6"/>
     <use xlink:href="#mf162ab2269" x="323.421877" y="227.956484" style="fill: #808080; stroke: #000000; stroke-width: 0.6"/>
     <use xlink:href="#mf162ab2269" x="328.089009" y="229.313679" style="fill: #808080; stroke: #000000; stroke-width: 0.6"/>
     <use xlink:href="#mf162ab2269" x="332.75614" y="230.696919" style="fill: #808080; stroke: #000000; stroke-width: 0.6"/>
     <use xlink:href="#mf162ab2269" x="337.423271" y="232.104442" style="fill: #808080; stroke: #000000; stroke-width: 0.6"/>
     <use xlink:href="#mf162ab2269" x="342.090403" y="233.534594" style="fill: #808080; stroke: #000000; stroke-width: 0.6"/>
     <use xlink:href="#mf162ab2269" x="346.757534" y="234.985817" style="fill: #808080; stroke: #000000; stroke-width: 0.6"/>
     <use xlink:href="#mf162ab2269" x="351.424665" y="236.456643" style="fill: #808080; stroke: #000000; stroke-width: 0.6"/>
     <use xlink:href="#mf162ab2269" x="356.091797" y="237.945687" style="fill: #808080; stroke: #000000; stroke-width: 0.6"/>
     <use xlink:href="#mf162ab2269" x="360.758928" y="239.451637" style="fill: #808080; stroke: #000000; stroke-width: 0.6"/>
     <use xlink:href="#mf162ab2269" x="365.42606" y="240.973257" style="fill: #808080; stroke: #000000; stroke-width: 0.6"/>
     <use xlink:href="#mf162ab2269" x="370.093191" y="242.509371" style="fill: #808080; stroke: #000000; stroke-width: 0.6"/>
     <use xlink:href="#mf162ab2269" x="374.760322" y="244.058868" style="fill: #808080; stroke: #000000; stroke-width: 0.6"/>
     <use xlink:href="#mf162ab2269" x="379.427454" y="245.620689" style="fill: #808080; stroke: #000000; stroke-width: 0.6"/>
     <use xlink:href="#mf162ab2269" x="384.094585" y="247.193832" style="fill: #808080; stroke: #000000; stroke-width: 0.6"/>
     <use xlink:href="#mf162ab2269" x="388.761716" y="248.777341" style="fill: #808080; stroke: #000000; stroke-width: 0.6"/>
     <use xlink:href="#mf162ab2269" x="393.428848" y="250.370307" style="fill: #808080; stroke: #000000; stroke-width: 0.6"/>
     <use xlink:href="#mf162ab2269" x="398.095979" y="251.971862" style="fill: #808080; stroke: #000000; stroke-width: 0.6"/>
     <use xlink:href="#mf162ab2269" x="402.76311" y="253.581181" style="fill: #808080; stroke: #000000; stroke-width: 0.6"/>
     <use xlink:href="#mf162ab2269" x="407.430242" y="255.197474" style="fill: #808080; stroke: #000000; stroke-width: 0.6"/>
     <use xlink:href="#mf162ab2269" x="412.097373" y="256.819987" style="fill: #808080; stroke: #000000; stroke-width: 0.6"/>
     <use xlink:href="#mf162ab2269" x="416.764504" y="258.447999" style="fill: #808080; stroke: #000000; stroke-width: 0.6"/>
     <use xlink:href="#mf162ab2269" x="421.431636" y="260.080822" style="fill: #808080; stroke: #000000; stroke-width: 0.6"/>
     <use xlink:href="#mf162ab2269" x="426.098767" y="261.717795" style="fill: #808080; stroke: #000000; stroke-width: 0.6"/>
     <use xlink:href="#mf162ab2269" x="430.765898" y="263.358287" style="fill: #808080; stroke: #000000; stroke-width: 0.6"/>
     <use xlink:href="#mf162ab2269" x="435.43303" y="265.001693" style="fill: #808080; stroke: #000000; stroke-width: 0.6"/>
     <use xlink:href="#mf162ab2269" x="440.100161" y="266.647431" style="fill: #808080; stroke: #000000; stroke-width: 0.6"/>
     <use xlink:href="#mf162ab2269" x="444.767292" y="268.294944" style="fill: #808080; stroke: #000000; stroke-width: 0.6"/>
     <use xlink:href="#mf162ab2269" x="449.434424" y="269.9437" style="fill: #808080; stroke: #000000; stroke-width: 0.6"/>
     <use xlink:href="#mf162ab2269" x="454.101555" y="271.593184" style="fill: #808080; stroke: #000000; stroke-width: 0.6"/>
     <use xlink:href="#mf162ab2269" x="458.768687" y="273.242906" style="fill: #808080; stroke: #000000; stroke-width: 0.6"/>
     <use xlink:href="#mf162ab2269" x="463.435818" y="274.892392" style="fill: #808080; stroke: #000000; stroke-width: 0.6"/>
     <use xlink:href="#mf162ab2269" x="468.102949" y="276.541188" style="fill: #808080; stroke: #000000; stroke-width: 0.6"/>
     <use xlink:href="#mf162ab2269" x="472.770081" y="278.188858" style="fill: #808080; stroke: #000000; stroke-width: 0.6"/>
     <use xlink:href="#mf162ab2269" x="477.437212" y="279.834983" style="fill: #808080; stroke: #000000; stroke-width: 0.6"/>
     <use xlink:href="#mf162ab2269" x="482.104343" y="281.479161" style="fill: #808080; stroke: #000000; stroke-width: 0.6"/>
     <use xlink:href="#mf162ab2269" x="486.771475" y="283.121004" style="fill: #808080; stroke: #000000; stroke-width: 0.6"/>
    </g>
   </g>
   <g id="line2d_24">
    <path d="M 94.732441 121.477093 
L 505.44 121.477093 
" clip-path="url(#pe7ba53d257)" style="fill: none; stroke: #000000; stroke-linecap: square"/>
   </g>
   <g id="patch_3">
    <path d="M 94.732441 321.923493 
L 94.732441 36 
" style="fill: none; stroke: #000000; stroke-width: 0.8; stroke-linejoin: miter; stroke-linecap: square"/>
   </g>
   <g id="patch_4">
    <path d="M 505.44 321.923493 
L 505.44 36 
" style="fill: none; stroke: #000000; stroke-width: 0.8; stroke-linejoin: miter; stroke-linecap: square"/>
   </g>
   <g id="patch_5">
    <path d="M 94.732441 321.923493 
L 505.44 321.923493 
" style="fill: none; stroke: #000000; stroke-width: 0.8; stroke-linejoin: miter; stroke-linecap: square"/>
   </g>
   <g id="patch_6">
    <path d="M 94.732441 36 
L 505.44 36 
" style="fill: none; stroke: #000000; stroke-width: 0.8; stroke-linejoin: miter; stroke-linecap: square"/>
   </g>
   <g id="legend_1">
    <g id="line2d_25">
     <path d="M 301.896386 56.84273 
L 317.896386 56.84273 
L 333.896386 56.84273 
" style="fill: none; stroke-dasharray: 2.96,1.28; stroke-dashoffset: 0; stroke: #000000; stroke-width: 0.8"/>
     <g>
      <use xlink:href="#me5e280832e" x="317.896386" y="56.84273" style="stroke: #000000; stroke-width: 0.6; stroke-linejoin: miter"/>
     </g>
    </g>
    <g id="text_13">
     <!-- $f(\zeta, l_{obs}) = l_{obs}$ -->
     <g transform="translate(346.696386 62.44273) scale(0.16 -0.16)">
      <defs>
       <path id="NimbusRomNo9L-ReguItal-66" d="M 224 2547 
L 800 2547 
L 237 -164 
C 96 -855 -115 -1210 -384 -1210 
C -461 -1210 -512 -1165 -512 -1107 
C -512 -1087 -506 -1068 -487 -1036 
C -461 -997 -455 -971 -455 -933 
C -455 -797 -570 -687 -704 -687 
C -839 -687 -941 -803 -941 -952 
C -941 -1171 -717 -1344 -435 -1344 
C 134 -1344 582 -707 845 481 
L 1306 2547 
L 2003 2547 
L 2042 2752 
L 1350 2752 
C 1536 3756 1773 4211 2131 4211 
C 2214 4211 2272 4179 2272 4134 
C 2272 4115 2266 4102 2246 4070 
C 2221 4012 2208 3980 2208 3936 
C 2208 3782 2304 3680 2445 3680 
C 2592 3680 2714 3795 2714 3936 
C 2714 4172 2477 4352 2163 4352 
C 1850 4352 1600 4211 1370 3910 
C 1178 3660 1050 3366 858 2752 
L 269 2752 
L 224 2547 
z
" transform="scale(0.015625)"/>
       <path id="CMR10-28" d="M 2118 -1536 
C 2118 -1517 2118 -1504 2010 -1396 
C 1210 -589 1005 620 1005 1600 
C 1005 2713 1248 3827 2035 4627 
C 2118 4704 2118 4716 2118 4736 
C 2118 4780 2093 4800 2054 4800 
C 1990 4800 1414 4365 1037 3552 
C 710 2848 634 2137 634 1600 
C 634 1100 704 326 1056 -397 
C 1440 -1184 1990 -1600 2054 -1600 
C 2093 -1600 2118 -1581 2118 -1536 
z
" transform="scale(0.015625)"/>
       <path id="StandardSymL-7a" d="M 1376 4851 
C 941 4819 653 4576 653 4237 
C 653 3987 800 3865 1222 3763 
C 621 2950 384 2316 384 1484 
C 384 857 525 505 896 217 
C 1107 51 1331 -26 1594 -26 
C 1632 -26 1677 -26 1741 -20 
C 2016 -13 2182 -7 2234 -7 
C 2534 -7 2720 -164 2720 -419 
C 2720 -668 2515 -896 2298 -896 
C 2266 -896 2227 -890 2189 -883 
C 1798 -779 1798 -779 1728 -779 
C 1530 -779 1370 -916 1370 -1082 
C 1370 -1287 1600 -1434 1926 -1434 
C 2547 -1434 2989 -961 2989 -288 
C 2989 313 2598 640 1882 640 
L 1747 640 
L 1670 640 
L 1594 633 
L 1472 640 
C 1011 640 704 1036 704 1632 
C 704 2400 1088 3283 1626 3763 
C 2253 3833 2778 4160 2778 4486 
C 2778 4601 2675 4691 2534 4691 
C 2304 4691 1952 4467 1376 3949 
C 1146 4019 1037 4141 1037 4326 
C 1037 4499 1152 4633 1376 4723 
L 1376 4851 
z
" transform="scale(0.015625)"/>
       <path id="CMMI10-3b" d="M 1299 6 
C 1299 428 1139 678 890 678 
C 678 678 550 518 550 339 
C 550 166 678 0 890 0 
C 966 0 1050 25 1114 83 
C 1133 96 1139 102 1146 102 
C 1152 102 1158 96 1158 6 
C 1158 -460 934 -837 723 -1044 
C 653 -1114 653 -1127 653 -1146 
C 653 -1191 685 -1216 717 -1216 
C 787 -1216 1299 -730 1299 6 
z
" transform="scale(0.015625)"/>
       <path id="CMR10-29" d="M 1850 1600 
C 1850 2099 1779 2873 1427 3597 
C 1043 4384 493 4800 429 4800 
C 390 4800 365 4774 365 4736 
C 365 4716 365 4704 486 4589 
C 1114 3955 1478 2937 1478 1600 
C 1478 505 1242 -621 448 -1428 
C 365 -1504 365 -1517 365 -1536 
C 365 -1575 390 -1600 429 -1600 
C 493 -1600 1069 -1165 1446 -352 
C 1773 352 1850 1062 1850 1600 
z
" transform="scale(0.015625)"/>
       <path id="CMR10-3d" d="M 4397 2111 
C 4493 2111 4614 2111 4614 2239 
C 4614 2368 4493 2368 4403 2368 
L 570 2368 
C 480 2368 358 2368 358 2239 
C 358 2111 480 2111 576 2111 
L 4397 2111 
z
M 4403 832 
C 4493 832 4614 832 4614 960 
C 4614 1088 4493 1088 4397 1088 
L 576 1088 
C 480 1088 358 1088 358 960 
C 358 832 480 832 570 832 
L 4403 832 
z
" transform="scale(0.015625)"/>
      </defs>
      <use xlink:href="#NimbusRomNo9L-ReguItal-66" transform="scale(0.996264)"/>
      <use xlink:href="#CMR10-28" transform="translate(42.240235 0) scale(0.996264)"/>
      <use xlink:href="#StandardSymL-7a" transform="translate(80.894081 0) scale(0.996264)"/>
      <use xlink:href="#CMMI10-3b" transform="translate(142.660716 0) scale(0.996264)"/>
      <use xlink:href="#NimbusRomNo9L-ReguItal-6c" transform="translate(181.325796 0) scale(0.996264)"/>
      <use xlink:href="#NimbusRomNo9L-ReguItal-6f" transform="translate(209.020966 -16.487732) scale(0.737241)"/>
      <use xlink:href="#NimbusRomNo9L-ReguItal-62" transform="translate(245.883008 -16.487732) scale(0.737241)"/>
      <use xlink:href="#NimbusRomNo9L-ReguItal-73" transform="translate(282.74505 -16.487732) scale(0.737241)"/>
      <use xlink:href="#CMR10-29" transform="translate(311.921131 0) scale(0.996264)"/>
      <use xlink:href="#CMR10-3d" transform="translate(372.714123 0) scale(0.996264)"/>
      <use xlink:href="#NimbusRomNo9L-ReguItal-6c" transform="translate(472.261977 0) scale(0.996264)"/>
      <use xlink:href="#NimbusRomNo9L-ReguItal-6f" transform="translate(499.957146 -16.487732) scale(0.737241)"/>
      <use xlink:href="#NimbusRomNo9L-ReguItal-62" transform="translate(536.819188 -16.487732) scale(0.737241)"/>
      <use xlink:href="#NimbusRomNo9L-ReguItal-73" transform="translate(573.68123 -16.487732) scale(0.737241)"/>
     </g>
    </g>
    <g id="line2d_26">
     <path d="M 301.896386 80.870517 
L 317.896386 80.870517 
L 333.896386 80.870517 
" style="fill: none; stroke: #000000; stroke-width: 0.8; stroke-linecap: square"/>
     <g>
      <use xlink:href="#m82b13e3c05" x="317.896386" y="80.870517" style="stroke: #000000; stroke-width: 0.6; stroke-linejoin: miter"/>
     </g>
    </g>
    <g id="text_14">
     <!-- $f(\zeta, l_{obs}) = l_{obs} \zeta$ -->
     <g transform="translate(346.696386 86.470517) scale(0.16 -0.16)">
      <use xlink:href="#NimbusRomNo9L-ReguItal-66" transform="scale(0.996264)"/>
      <use xlink:href="#CMR10-28" transform="translate(42.240235 0) scale(0.996264)"/>
      <use xlink:href="#StandardSymL-7a" transform="translate(80.894081 0) scale(0.996264)"/>
      <use xlink:href="#CMMI10-3b" transform="translate(142.660716 0) scale(0.996264)"/>
      <use xlink:href="#NimbusRomNo9L-ReguItal-6c" transform="translate(181.325796 0) scale(0.996264)"/>
      <use xlink:href="#NimbusRomNo9L-ReguItal-6f" transform="translate(209.020966 -16.487732) scale(0.737241)"/>
      <use xlink:href="#NimbusRomNo9L-ReguItal-62" transform="translate(245.883008 -16.487732) scale(0.737241)"/>
      <use xlink:href="#NimbusRomNo9L-ReguItal-73" transform="translate(282.74505 -16.487732) scale(0.737241)"/>
      <use xlink:href="#CMR10-29" transform="translate(311.921131 0) scale(0.996264)"/>
      <use xlink:href="#CMR10-3d" transform="translate(372.714123 0) scale(0.996264)"/>
      <use xlink:href="#NimbusRomNo9L-ReguItal-6c" transform="translate(472.261977 0) scale(0.996264)"/>
      <use xlink:href="#NimbusRomNo9L-ReguItal-6f" transform="translate(499.957146 -16.487732) scale(0.737241)"/>
      <use xlink:href="#NimbusRomNo9L-ReguItal-62" transform="translate(536.819188 -16.487732) scale(0.737241)"/>
      <use xlink:href="#NimbusRomNo9L-ReguItal-73" transform="translate(573.68123 -16.487732) scale(0.737241)"/>
      <use xlink:href="#StandardSymL-7a" transform="translate(602.857312 0) scale(0.996264)"/>
     </g>
    </g>
    <g id="line2d_27">
     <path d="M 301.896386 104.898303 
L 317.896386 104.898303 
L 333.896386 104.898303 
" style="fill: none; stroke-dasharray: 5.12,1.28,0.8,1.28; stroke-dashoffset: 0; stroke: #000000; stroke-width: 0.8"/>
     <g>
      <use xlink:href="#mf162ab2269" x="317.896386" y="104.898303" style="fill: #808080; stroke: #000000; stroke-width: 0.6"/>
     </g>
    </g>
    <g id="text_15">
     <!-- $f(\zeta, l_{obs}) = l_{obs} (1-\zeta)$ -->
     <g transform="translate(346.696386 110.498303) scale(0.16 -0.16)">
      <use xlink:href="#NimbusRomNo9L-ReguItal-66" transform="scale(0.996264)"/>
      <use xlink:href="#CMR10-28" transform="translate(42.240235 0) scale(0.996264)"/>
      <use xlink:href="#StandardSymL-7a" transform="translate(80.894081 0) scale(0.996264)"/>
      <use xlink:href="#CMMI10-3b" transform="translate(142.660716 0) scale(0.996264)"/>
      <use xlink:href="#NimbusRomNo9L-ReguItal-6c" transform="translate(181.325796 0) scale(0.996264)"/>
      <use xlink:href="#NimbusRomNo9L-ReguItal-6f" transform="translate(209.020966 -16.487732) scale(0.737241)"/>
      <use xlink:href="#NimbusRomNo9L-ReguItal-62" transform="translate(245.883008 -16.487732) scale(0.737241)"/>
      <use xlink:href="#NimbusRomNo9L-ReguItal-73" transform="translate(282.74505 -16.487732) scale(0.737241)"/>
      <use xlink:href="#CMR10-29" transform="translate(311.921131 0) scale(0.996264)"/>
      <use xlink:href="#CMR10-3d" transform="translate(372.714123 0) scale(0.996264)"/>
      <use xlink:href="#NimbusRomNo9L-ReguItal-6c" transform="translate(472.261977 0) scale(0.996264)"/>
      <use xlink:href="#NimbusRomNo9L-ReguItal-6f" transform="translate(499.957146 -16.487732) scale(0.737241)"/>
      <use xlink:href="#NimbusRomNo9L-ReguItal-62" transform="translate(536.819188 -16.487732) scale(0.737241)"/>
      <use xlink:href="#NimbusRomNo9L-ReguItal-73" transform="translate(573.68123 -16.487732) scale(0.737241)"/>
      <use xlink:href="#CMR10-28" transform="translate(602.857312 0) scale(0.996264)"/>
      <use xlink:href="#NimbusRomNo9L-Regu-31" transform="translate(641.511158 0) scale(0.996264)"/>
      <use xlink:href="#CMSY10-0" transform="translate(705.161324 0) scale(0.996264)"/>
      <use xlink:href="#StandardSymL-7a" transform="translate(796.406998 0) scale(0.996264)"/>
      <use xlink:href="#CMR10-29" transform="translate(858.173634 0) scale(0.996264)"/>
     </g>
    </g>
   </g>
  </g>
 </g>
 <defs>
  <clipPath id="pe7ba53d257">
   <rect x="94.732441" y="36" width="410.707559" height="285.923493"/>
  </clipPath>
 </defs>
</svg>
